<?xml version="1.0" standalone="no"?>
<!DOCTYPE svg PUBLIC "-//W3C//DTD SVG 1.1//EN" "http://www.w3.org/Graphics/SVG/1.1/DTD/svg11.dtd" >
<svg xmlns="http://www.w3.org/2000/svg" xmlns:xlink="http://www.w3.org/1999/xlink" version="1.1">
<metadata>
Created by FontForge 20190801 at Thu Oct 11 10:41:16 2018
 By Jimmy Wärting
Copyright (c) 2018 Handon &#38; Sandoll. All rights reserved. Font designed by Sandoll Communications Inc.
</metadata>
<defs>
<font id="Handon3gyeopsal600g" horiz-adv-x="920" >
  <font-face 
    font-family="Handon 3gyeopsal 600g"
    font-weight="700"
    font-stretch="normal"
    units-per-em="1000"
    panose-1="2 11 6 0 0 1 1 1 1 1"
    ascent="800"
    descent="-200"
    x-height="520"
    cap-height="690"
    bbox="-40 -200 1778 800"
    underline-thickness="50"
    underline-position="-100"
    unicode-range="U+0001-FFE6"
  />
<missing-glyph 
d="M860 -150h-800v900h800v-900zM460 271l-335 -385h670zM100 -83l334 384l-334 384v-768zM459 330l334 384h-667zM820 686l-334 -386l334 -384v770z" />
    <glyph glyph-name=".notdef" 
d="M860 -150h-800v900h800v-900zM460 271l-335 -385h670zM100 -83l334 384l-334 384v-768zM459 330l334 384h-667zM820 686l-334 -386l334 -384v770z" />
    <glyph glyph-name="cid00001" horiz-adv-x="280" 
 />
    <glyph glyph-name="cid00001" unicode="&#xa0;" horiz-adv-x="280" 
 />
    <glyph glyph-name="cid00001" unicode=" " horiz-adv-x="280" 
 />
    <glyph glyph-name="cid00001" horiz-adv-x="280" 
 />
    <glyph glyph-name="cid00001" horiz-adv-x="280" 
 />
    <glyph glyph-name="cid00001" horiz-adv-x="280" 
 />
    <glyph glyph-name="cid00001" horiz-adv-x="280" 
 />
    <glyph glyph-name="cid00001" horiz-adv-x="280" 
 />
    <glyph glyph-name="cid00001" horiz-adv-x="280" 
 />
    <glyph glyph-name="cid00001" horiz-adv-x="280" 
 />
    <glyph glyph-name="cid00001" horiz-adv-x="280" 
 />
    <glyph glyph-name="cid00001" horiz-adv-x="280" 
 />
    <glyph glyph-name="cid00001" horiz-adv-x="280" 
 />
    <glyph glyph-name="cid00001" horiz-adv-x="280" 
 />
    <glyph glyph-name="cid00001" horiz-adv-x="280" 
 />
    <glyph glyph-name="cid00001" horiz-adv-x="280" 
 />
    <glyph glyph-name="cid00001" horiz-adv-x="280" 
 />
    <glyph glyph-name="cid00001" horiz-adv-x="280" 
 />
    <glyph glyph-name="cid00001" horiz-adv-x="280" 
 />
    <glyph glyph-name="cid00001" horiz-adv-x="280" 
 />
    <glyph glyph-name="cid00001" horiz-adv-x="280" 
 />
    <glyph glyph-name="cid00001" unicode="&#xd;" horiz-adv-x="280" 
 />
    <glyph glyph-name="cid00001" horiz-adv-x="280" 
 />
    <glyph glyph-name="cid00001" horiz-adv-x="280" 
 />
    <glyph glyph-name="cid00001" unicode="&#xa;" horiz-adv-x="280" 
 />
    <glyph glyph-name="cid00001" unicode="&#x9;" horiz-adv-x="280" 
 />
    <glyph glyph-name="cid00001" horiz-adv-x="280" 
 />
    <glyph glyph-name="cid00001" horiz-adv-x="280" 
 />
    <glyph glyph-name="cid00001" horiz-adv-x="280" 
 />
    <glyph glyph-name="cid00001" horiz-adv-x="280" 
 />
    <glyph glyph-name="cid00001" horiz-adv-x="280" 
 />
    <glyph glyph-name="cid00001" horiz-adv-x="280" 
 />
    <glyph glyph-name="cid00001" horiz-adv-x="280" 
 />
    <glyph glyph-name="cid00001" horiz-adv-x="280" 
 />
    <glyph glyph-name="cid00002" unicode="!" horiz-adv-x="295" 
d="M89 714q0 11 3.5 14t12.5 3h85q9 0 12.5 -3t3.5 -14l-9 -524q0 -11 -3.5 -14t-12.5 -3h-67q-9 0 -12.5 3t-3.5 14zM207 -17q0 -11 -3 -13.5t-12 -2.5h-90q-9 0 -12 2.5t-3 13.5v84q0 11 3 13.5t12 2.5h90q9 0 12 -2.5t3 -13.5v-84z" />
    <glyph glyph-name="cid00003" unicode="&#x22;" horiz-adv-x="391" 
d="M49 730q0 11 3.5 14t12.5 3h85q9 0 12.5 -3t3.5 -14l-11 -166q0 -11 -3.5 -14t-12.5 -3h-63q-9 0 -12.5 3t-3.5 14zM227 730q-1 11 3 14t13 3h85q9 0 13 -3t3 -14l-11 -166q-1 -11 -4 -14t-12 -3h-63q-9 0 -12 3t-4 14z" />
    <glyph glyph-name="cid00004" unicode="#" horiz-adv-x="557" 
d="M509 498q11 0 14 -3.5t3 -12.5v-61q0 -9 -3 -12.5t-14 -3.5h-72l-20 -119h64q11 0 14 -3.5t3 -12.5v-61q0 -9 -3 -12.5t-14 -3.5h-80l-33 -194q-2 -12 -7 -14.5t-14 -2.5h-66q-9 0 -11 2.5t0 14.5l33 194h-100l-33 -194q-2 -12 -7 -14.5t-14 -2.5h-66q-9 0 -11 2.5
t0 14.5l33 194h-58q-11 0 -14 3.5t-3 12.5v61q0 9 3 12.5t14 3.5h74l20 119h-66q-11 0 -14 3.5t-3 12.5v61q0 9 3 12.5t14 3.5h82l32 187q2 12 7 14.5t14 2.5h66q9 0 11 -3t0 -14l-32 -187h100l32 187q2 12 7 14.5t14 2.5h66q9 0 11 -3t0 -14l-32 -187h56zM219 286h100
l20 119h-100z" />
    <glyph glyph-name="cid00005" unicode="$" horiz-adv-x="578" 
d="M76 124q16 -10 36 -19t42 -16.5t44 -12.5t42 -6v230q-49 18 -83 37.5t-55.5 43t-31.5 51.5t-10 63q0 73 45 124.5t135 64.5v72q0 11 3.5 14t12.5 3h68q9 0 12.5 -3t3.5 -14v-70q49 -5 86.5 -19t62.5 -32q6 -5 7.5 -9.5t-2.5 -13.5l-24 -58q-6 -13 -20 -5q-23 11 -51 22
t-59 16v-212q49 -18 83 -37t55 -42.5t30.5 -51.5t9.5 -64q0 -81 -47.5 -133.5t-130.5 -69.5v-76q0 -11 -3.5 -14t-12.5 -3h-68q-9 0 -12.5 3t-3.5 14v70q-57 3 -108 20t-89 40q-13 8 -9 19l22 66q3 8 7.5 10.5t12.5 -2.5zM171 503q0 -29 14 -49t55 -40v169
q-34 -11 -51.5 -33.5t-17.5 -46.5zM405 171q0 32 -15 53t-50 38v-177q30 13 47.5 35t17.5 51z" />
    <glyph glyph-name="cid00006" unicode="%" horiz-adv-x="882" 
d="M289 -5q-6 -10 -9.5 -11.5t-12.5 -1.5h-83q-22 0 -12 16l427 688q5 10 9 13t13 3h86q9 0 11.5 -5.5t-2.5 -13.5zM35 524q0 38 12 72.5t35 60.5t56 41.5t75 15.5t75 -15.5t56 -41.5t35 -60.5t12 -72.5t-12 -72.5t-35 -60.5t-56 -41t-75 -15t-75 15t-56 41t-35 60.5
t-12 72.5zM131 524q0 -43 20.5 -72t61.5 -29t61.5 29t20.5 72t-20.5 72.5t-61.5 29.5t-61.5 -29.5t-20.5 -72.5zM497 159q0 38 12 72.5t35 60.5t56 41.5t75 15.5t75 -15.5t56 -41.5t35 -60.5t12 -72.5t-12 -72.5t-35 -60.5t-56 -41t-75 -15t-75 15t-56 41t-35 60.5t-12 72.5
zM593 159q0 -43 20.5 -72t61.5 -29t61.5 29t20.5 72t-20.5 72.5t-61.5 29.5t-61.5 -29.5t-20.5 -72.5z" />
    <glyph glyph-name="cid00007" unicode="&#x26;" horiz-adv-x="687" 
d="M498 204q7 14 13 30t10.5 30.5t7 27t3.5 18.5q1 8 4 11t13 3h77q9 0 12 -4.5t2 -13.5q-5 -54 -25.5 -103t-47.5 -89l92 -111q8 -9 6.5 -15t-13.5 -6h-102q-10 0 -16.5 3t-13.5 12l-32 38q-38 -26 -86.5 -45.5t-110.5 -19.5q-58 0 -101 15.5t-71.5 43t-42.5 65t-14 81.5
q0 75 33.5 125t113.5 90q-26 34 -44.5 71t-18.5 78q0 35 11 67t35 56t61.5 38t89.5 14q97 0 146 -45.5t49 -118.5q0 -69 -39.5 -114.5t-121.5 -81.5zM307 77q35 0 63.5 11.5t52.5 29.5l-152 193q-53 -25 -76 -54t-23 -68q0 -54 34.5 -83t100.5 -29zM314 434q55 19 83 44
t28 66t-20.5 60t-58.5 19q-42 0 -65 -20.5t-23 -62.5q0 -31 15 -54t41 -52z" />
    <glyph glyph-name="cid00008" unicode="'" horiz-adv-x="217" 
d="M49 730q-1 11 3 14t13 3h85q9 0 13 -3t3 -14l-11 -166q-1 -11 -4 -14t-12 -3h-63q-9 0 -12 3t-4 14z" />
    <glyph glyph-name="cid00009" unicode="(" horiz-adv-x="372" 
d="M341 -130q6 -7 4 -11.5t-12 -4.5h-68q-15 0 -24 8q-39 36 -73 84.5t-59 105.5t-39 120t-14 126v19q0 127 47.5 236t135.5 198q6 6 12 8t14 2h68q10 0 12 -4.5t-4 -11.5q-34 -37 -63.5 -85.5t-51.5 -103.5t-34.5 -114t-12.5 -116v-29q0 -54 11.5 -112t33 -114.5
t51.5 -108.5t66 -92z" />
    <glyph glyph-name="cid00010" unicode=")" horiz-adv-x="372" 
d="M31 -130q36 40 66 92t51.5 108.5t33 114.5t11.5 112v29q0 57 -12.5 116t-34.5 114t-51.5 103.5t-63.5 85.5q-6 7 -4 11.5t12 4.5h68q8 0 14 -2t12 -8q88 -89 135.5 -198t47.5 -236v-19q0 -63 -14 -126t-39 -120t-59 -105.5t-73 -84.5q-9 -8 -24 -8h-68q-10 0 -12 4.5
t4 11.5z" />
    <glyph glyph-name="cid00011" unicode="*" horiz-adv-x="401" 
d="M129 393q-5 -8 -8.5 -8t-11.5 6l-47 38q-8 6 -8.5 10t6.5 11l83 91l-116 26q-11 2 -12 6t1 12l19 59q3 9 6 11t12 -2l110 -42l-9 121q-1 10 2.5 12.5t11.5 2.5h62q8 0 11.5 -2.5t2.5 -12.5l-10 -121l111 42q9 3 12 1.5t6 -10.5l19 -59q2 -8 1 -12t-12 -6l-119 -27l84 -90
q7 -7 6.5 -11t-8.5 -10l-47 -38q-8 -6 -11.5 -6t-8.5 8l-69 106z" />
    <glyph glyph-name="cid00012" unicode="+" horiz-adv-x="546" 
d="M220 556q0 11 3.5 14t12.5 3h79q9 0 12.5 -3t3.5 -14v-166h153q11 0 14 -3.5t3 -12.5v-69q0 -9 -3 -12.5t-14 -3.5h-153v-167q0 -11 -3.5 -14t-12.5 -3h-79q-9 0 -12.5 3t-3.5 14v167h-152q-11 0 -14 3.5t-3 12.5v69q0 9 3 12.5t14 3.5h152v166z" />
    <glyph glyph-name="cid00013" unicode="," horiz-adv-x="266" 
d="M193 -10q0 -54 -29 -95t-81 -61q-5 -2 -7.5 -1.5t-4.5 4.5l-21 35q-4 7 3 10q24 10 44.5 30t25.5 45h-35q-9 0 -12 2.5t-3 13.5v84q0 11 3 13.5t12 2.5h90q9 0 12 -2.5t3 -13.5v-67z" />
    <glyph glyph-name="cid00014" unicode="-" horiz-adv-x="412" 
d="M342 391q11 0 14 -3.5t3 -12.5v-71q0 -9 -3 -12.5t-14 -3.5h-274q-11 0 -14 3.5t-3 12.5v71q0 9 3 12.5t14 3.5h274z" />
    <glyph glyph-name="cid00015" unicode="." horiz-adv-x="266" 
d="M193 -27q0 -11 -3 -13.5t-12 -2.5h-90q-9 0 -12 2.5t-3 13.5v84q0 11 3 13.5t12 2.5h90q9 0 12 -2.5t3 -13.5v-84z" />
    <glyph glyph-name="cid00016" unicode="/" horiz-adv-x="371" 
d="M119 -135q-3 -11 -7 -13.5t-13 -2.5h-78q-8 0 -12 2.5t-1 13.5l245 869q3 11 7 14t13 3h82q17 0 12 -19z" />
    <glyph glyph-name="cid00017" unicode="0" horiz-adv-x="655" 
d="M480 342q0 268 -152 268q-75 0 -114 -66t-39 -202t39 -202t114 -66q152 0 152 268zM599 342q0 -185 -71.5 -278.5t-199.5 -93.5t-200 93.5t-72 278.5t72 278.5t200 93.5t199.5 -93.5t71.5 -278.5z" />
    <glyph glyph-name="cid00018" unicode="1" horiz-adv-x="655" 
d="M426 -1q0 -11 -3.5 -14t-12.5 -3h-85q-9 0 -12.5 3t-3.5 14v585l-142 -44q-12 -4 -18 11l-20 51q-2 7 -1 10.5t10 7.5l194 82h78q9 0 12.5 -3t3.5 -14v-686z" />
    <glyph glyph-name="cid00019" unicode="2" horiz-adv-x="655" 
d="M96 -18q-11 0 -14 3.5t-3 13.5v65q0 8 2.5 13t7.5 10q71 69 133 130.5t108.5 113.5t73 95.5t26.5 76.5q0 52 -27 78t-90 26q-38 0 -83.5 -12.5t-85.5 -35.5q-10 -6 -15 2l-40 66q-8 12 2 18q48 32 106.5 50.5t121.5 18.5q109 0 172 -53t63 -149q0 -49 -25.5 -98
t-68.5 -101t-100 -108t-120 -120h309q11 0 14 -3.5t3 -12.5v-71q0 -9 -3 -12.5t-14 -3.5h-453z" />
    <glyph glyph-name="cid00020" unicode="3" horiz-adv-x="655" 
d="M287 -30q-27 0 -55 4.5t-55.5 12t-52.5 18t-45 22.5q-9 5 -4 17l29 66q4 12 16 5q32 -17 77.5 -28.5t89.5 -11.5q77 0 118.5 29t41.5 86q0 52 -40 84.5t-108 32.5h-89q-8 0 -10 2.5t-2 10.5v78q0 7 2 9.5t10 2.5h70q65 0 106.5 26.5t41.5 79.5q0 44 -32 69t-97 25
q-36 0 -73.5 -10.5t-74.5 -29.5q-7 -4 -11 -4t-8 7l-36 65q-5 9 5 16q48 28 99.5 44t111.5 16q110 0 172 -49.5t62 -145.5q0 -109 -113 -155q63 -18 97.5 -62.5t34.5 -109.5q0 -106 -73 -164t-205 -58z" />
    <glyph glyph-name="cid00021" unicode="4" horiz-adv-x="655" 
d="M507 126v-127q0 -11 -3.5 -14t-12.5 -3h-83q-9 0 -12.5 3t-3.5 14v127h-344q-11 0 -14 3.5t-3 12.5v58q0 10 2 16.5t6 12.5l346 456q6 9 8.5 13t11.5 4h86q9 0 12.5 -3t3.5 -14v-458h96q11 0 14 -3.5t3 -12.5v-69q0 -9 -3 -12.5t-14 -3.5h-96zM392 227v305l-234 -305h234
z" />
    <glyph glyph-name="cid00022" unicode="5" horiz-adv-x="655" 
d="M511 702q11 0 14 -3.5t3 -12.5v-70q0 -9 -3 -12.5t-14 -3.5h-263l-8 -172q11 2 31 3t37 1q128 0 198 -61t70 -166q0 -112 -71.5 -173.5t-206.5 -61.5q-31 0 -61.5 5.5t-58 14.5t-50.5 19.5t-39 20.5q-8 4 -3 15l33 71q3 7 12 2q35 -18 78 -30.5t97 -12.5q70 0 111 32.5
t41 95.5q0 64 -42 97.5t-127 33.5q-38 0 -77 -4.5t-72 -10.5q-13 -2 -16 1.5t-2 13.5l20 345q1 14 5 18.5t18 4.5h346z" />
    <glyph glyph-name="cid00023" unicode="6" horiz-adv-x="655" 
d="M187 401q26 23 68 37.5t84 14.5q64 0 111 -18.5t78 -51t46.5 -77t15.5 -96.5q0 -50 -17.5 -94t-50.5 -76.5t-81 -51t-109 -18.5q-59 0 -107.5 19t-83 58t-54 97.5t-19.5 136.5q0 51 5 101.5t15 92.5q31 126 106 182.5t190 56.5q21 0 44 -3t45.5 -8.5t41.5 -12t32 -13.5
q8 -5 5 -14l-27 -70q-4 -9 -14 -6q-29 12 -65.5 19t-68.5 7q-41 0 -73.5 -15t-56.5 -43t-39.5 -67t-20.5 -87zM185 286q-7 -45 0.5 -84.5t27.5 -69t50.5 -46t68.5 -16.5q68 0 107 39t39 104q0 60 -36 100.5t-110 40.5q-51 0 -85.5 -18t-61.5 -50z" />
    <glyph glyph-name="cid00024" unicode="7" horiz-adv-x="655" 
d="M307 -2q-5 -10 -8.5 -13t-12.5 -3h-89q-8 0 -12.5 2.5t-0.5 13.5l255 601h-341q-11 0 -14 3.5t-3 12.5v71q0 9 3 12.5t14 3.5h449q11 0 14 -3.5t3 -12.5v-52q0 -22 -10 -47z" />
    <glyph glyph-name="cid00025" unicode="8" horiz-adv-x="655" 
d="M334 400q22 9 43 20t37.5 25t26 32t9.5 41q0 41 -31.5 70.5t-92.5 29.5q-57 0 -90 -27.5t-33 -69.5q0 -48 32.5 -76t98.5 -45zM324 68q65 0 106 30t41 81q0 47 -39 78t-126 52q-56 -19 -92.5 -51t-36.5 -74q0 -26 10.5 -47t30 -36.5t46.5 -24t60 -8.5zM326 -30
q-62 0 -111.5 14t-84 40t-53 62.5t-18.5 81.5q0 34 12 63t33 52t49 40.5t61 28.5q-61 25 -98 68t-37 106q0 40 17 74t49 59.5t77.5 40t102.5 14.5t102 -13.5t76.5 -37.5t48 -57t16.5 -72q0 -33 -11 -59.5t-29.5 -47.5t-44 -37.5t-54.5 -28.5q34 -11 64 -27.5t53 -39
t36.5 -51t13.5 -64.5q0 -44 -18 -82t-52.5 -66.5t-85 -44.5t-114.5 -16z" />
    <glyph glyph-name="cid00026" unicode="9" horiz-adv-x="655" 
d="M468 290q-26 -23 -68 -37.5t-84 -14.5q-64 0 -111 18t-78 50t-46.5 76t-15.5 96q0 49 17 92t50 75t81 50.5t110 18.5q58 0 107 -19t83.5 -58t54 -97.5t19.5 -136.5q0 -51 -5 -101.5t-15 -92.5q-31 -126 -106 -182.5t-190 -56.5q-21 0 -44 3t-45.5 8.5t-41.5 12t-32 13.5
q-8 5 -5 14l27 70q4 9 14 6q29 -12 65.5 -19t68.5 -7q81 0 131 57.5t59 161.5zM470 405q7 44 -0.5 82t-27.5 66.5t-50.5 44.5t-68.5 16q-68 0 -107 -38.5t-39 -100.5q0 -60 36 -99t110 -39q51 0 86 18t61 50z" />
    <glyph glyph-name="cid00027" unicode=":" horiz-adv-x="266" 
d="M193 82q0 -11 -3 -13.5t-12 -2.5h-90q-9 0 -12 2.5t-3 13.5v84q0 11 3 13.5t12 2.5h90q9 0 12 -2.5t3 -13.5v-84zM193 474q0 -11 -3 -13.5t-12 -2.5h-90q-9 0 -12 2.5t-3 13.5v84q0 11 3 13.5t12 2.5h90q9 0 12 -2.5t3 -13.5v-84z" />
    <glyph glyph-name="cid00028" unicode=";" horiz-adv-x="266" 
d="M193 474q0 -11 -3 -13.5t-12 -2.5h-90q-9 0 -12 2.5t-3 13.5v84q0 11 3 13.5t12 2.5h90q9 0 12 -2.5t3 -13.5v-84zM193 99q0 -54 -29 -95t-81 -61q-5 -2 -7.5 -1.5t-4.5 4.5l-21 35q-4 7 3 10q24 10 44.5 30t25.5 45h-35q-9 0 -12 2.5t-3 13.5v84q0 11 3 13.5t12 2.5h90
q9 0 12 -2.5t3 -13.5v-67z" />
    <glyph glyph-name="cid00029" unicode="&#x3c;" horiz-adv-x="499" 
d="M437 95q11 -8 11 -22v-92q0 -7 -4.5 -10.5t-11.5 1.5l-348 261q-6 5 -8 8t-2 9v77q0 6 2 9t8 8l348 255q16 6 16 -9v-92q0 -14 -11 -22l-258 -187z" />
    <glyph glyph-name="cid00030" unicode="=" horiz-adv-x="543" 
d="M475 501q11 0 14 -3.5t3 -12.5v-71q0 -9 -3 -12.5t-14 -3.5h-407q-11 0 -14 3.5t-3 12.5v71q0 9 3 12.5t14 3.5h407zM475 280q11 0 14 -3.5t3 -12.5v-71q0 -9 -3 -12.5t-14 -3.5h-407q-11 0 -14 3.5t-3 12.5v71q0 9 3 12.5t14 3.5h407z" />
    <glyph glyph-name="cid00031" unicode="&#x3e;" horiz-adv-x="499" 
d="M320 298l-258 187q-11 8 -11 22v92q0 15 16 9l348 -255q6 -5 8 -8t2 -9v-77q0 -6 -2 -9t-8 -8l-348 -261q-7 -5 -11.5 -1.5t-4.5 10.5v92q0 14 11 22z" />
    <glyph glyph-name="cid00032" unicode="?" horiz-adv-x="495" 
d="M160 234q0 20 5 39.5t17.5 40.5t33.5 43t53 47q36 28 53 58t17 75q0 48 -29.5 75t-90.5 27q-35 0 -64 -11.5t-58 -25.5q-12 -6 -16 9l-31 66q-2 10 7 15q16 10 38 19.5t46.5 16.5t50 11t49.5 4q51 0 91.5 -15t69.5 -41t44.5 -61.5t15.5 -76.5q0 -39 -7.5 -68.5t-22 -53
t-35 -43.5t-45.5 -40q-46 -35 -64 -62t-18 -52v-41q0 -10 -3 -13t-11 -3h-81q-9 0 -12 2.5t-3 12.5v46zM277 -17q0 -11 -3 -13.5t-12 -2.5h-90q-9 0 -12 2.5t-3 13.5v84q0 11 3 13.5t12 2.5h90q9 0 12 -2.5t3 -13.5v-84z" />
    <glyph glyph-name="cid00033" unicode="@" horiz-adv-x="954" 
d="M477 -146q-100 0 -178.5 26t-133 76.5t-83 123.5t-28.5 167q0 98 30 186t89.5 154.5t147 105.5t201.5 39q90 0 161.5 -29t121.5 -79.5t76.5 -117t26.5 -141.5q0 -78 -17.5 -138t-50 -101.5t-77.5 -62.5t-100 -21q-53 0 -81 17.5t-36 48.5q-26 -26 -59.5 -40.5
t-75.5 -14.5q-70 0 -109 45.5t-39 126.5q0 67 15.5 121.5t44 93.5t70 60t92.5 21q36 0 66.5 -12.5t47.5 -29.5l12 29q4 9 14 9h70q15 0 11 -18q-19 -79 -35 -156t-31 -154q-5 -24 3 -40t37 -16q23 0 45 15t39.5 44t28 71t10.5 96q0 61 -21 112.5t-58.5 88.5t-89.5 58
t-115 21q-82 0 -149.5 -30t-116 -82.5t-75 -123.5t-26.5 -153q0 -152 86 -229.5t240 -77.5q37 0 72.5 3.5t65 9t52.5 11.5t37 11q12 4 12 -12v-52q0 -10 -2 -13t-9 -6q-37 -16 -97 -28.5t-132 -12.5zM439 128q30 0 56.5 14t43.5 33l44 237q-12 14 -36.5 23.5t-56.5 9.5
q-35 0 -59 -16t-39 -45.5t-21.5 -69.5t-6.5 -88t20 -73t55 -25z" />
    <glyph glyph-name="cid00034" unicode="A" horiz-adv-x="711" 
d="M684 -1q4 -11 0 -14t-13 -3h-96q-9 0 -13.5 3t-8.5 14l-61 169h-282l-59 -169q-4 -11 -8.5 -14t-13.5 -3h-89q-9 0 -13 3t0 14l258 686q4 11 7.5 14t12.5 3h103q9 0 12.5 -3t7.5 -14zM244 266h213l-107 301z" />
    <glyph glyph-name="cid00035" unicode="B" horiz-adv-x="677" 
d="M349 78q148 0 148 117q0 113 -154 113h-135v-230h141zM323 404q68 0 106.5 27t38.5 76q0 54 -33 76.5t-105 22.5h-122v-202h115zM342 702q129 0 188.5 -45.5t59.5 -132.5q0 -59 -33 -101t-93 -59q69 -11 113 -58t44 -118q0 -94 -65.5 -150t-193.5 -56h-251
q-14 0 -18.5 4.5t-4.5 18.5v674q0 14 4.5 18.5t18.5 4.5h231z" />
    <glyph glyph-name="cid00036" unicode="C" horiz-adv-x="657" 
d="M178 342q0 -64 16 -113.5t45 -84t68.5 -52.5t86.5 -18q28 0 51 2t43.5 6t40 10.5t40.5 14.5q8 3 14 3.5t9 -7.5l26 -64q6 -15 -7 -22q-49 -24 -99.5 -35.5t-118.5 -11.5q-72 0 -133.5 25t-107 72.5t-71 116.5t-25.5 158t25.5 158t71 116.5t107 72.5t133.5 25
q62 0 114 -13t90 -35q13 -8 7 -22l-27 -64q-3 -8 -9 -7.5t-14 3.5q-38 17 -75 25.5t-85 8.5q-47 0 -86.5 -18t-68.5 -52.5t-45 -84t-16 -113.5z" />
    <glyph glyph-name="cid00037" unicode="D" horiz-adv-x="732" 
d="M323 80q57 0 101 14.5t74 47t45 84.5t15 128q0 132 -63.5 190.5t-182.5 58.5h-104v-523h115zM111 -18q-14 0 -18.5 4.5t-4.5 18.5v674q0 14 4.5 18.5t18.5 4.5h210q180 0 268 -85t88 -263q0 -194 -84.5 -283t-264.5 -89h-217z" />
    <glyph glyph-name="cid00038" unicode="E" horiz-adv-x="611" 
d="M111 -18q-14 0 -18.5 4.5t-4.5 18.5v674q0 14 4.5 18.5t18.5 4.5h438q11 0 14 -3.5t3 -12.5v-69q0 -9 -3 -12.5t-14 -3.5h-341v-198h294q11 0 14 -3.5t3 -12.5v-68q0 -9 -3 -12.5t-14 -3.5h-294v-220h347q11 0 14 -3.5t3 -12.5v-69q0 -9 -3 -12.5t-14 -3.5h-444z" />
    <glyph glyph-name="cid00039" unicode="F" horiz-adv-x="568" 
d="M88 679q0 14 4.5 18.5t18.5 4.5h403q11 0 14 -3.5t3 -12.5v-66q0 -9 -3 -12.5t-14 -3.5h-306v-217h253q11 0 14 -3.5t3 -12.5v-66q0 -9 -3 -12.5t-14 -3.5h-253v-290q0 -11 -3.5 -14t-12.5 -3h-88q-9 0 -12.5 3t-3.5 14v680z" />
    <glyph glyph-name="cid00040" unicode="G" horiz-adv-x="744" 
d="M411 610q-112 0 -172.5 -69.5t-60.5 -195.5q0 -131 61 -201t180 -70q19 0 40.5 3t42.5 7.5t39.5 11t32.5 14.5v177h-142q-11 0 -14 3.5t-3 12.5v68q0 9 3 12.5t14 3.5h236q9 0 12.5 -3t3.5 -14v-296q0 -13 -2 -18t-10 -11q-40 -31 -107.5 -53t-152.5 -22
q-83 0 -148.5 25.5t-112 74t-71 118t-24.5 157.5q0 86 24 154.5t70 116t111.5 73t148.5 25.5q78 0 136.5 -16.5t97.5 -41.5q13 -9 7 -22l-28 -63q-4 -8 -9.5 -8t-13.5 4q-37 17 -85.5 30t-103.5 13z" />
    <glyph glyph-name="cid00041" unicode="H" horiz-adv-x="730" 
d="M642 -1q0 -11 -3.5 -14t-12.5 -3h-88q-9 0 -12.5 3t-3.5 14v304h-314v-304q0 -11 -3.5 -14t-12.5 -3h-88q-9 0 -12.5 3t-3.5 14v686q0 11 3.5 14t12.5 3h88q9 0 12.5 -3t3.5 -14v-279h314v279q0 11 3.5 14t12.5 3h88q9 0 12.5 -3t3.5 -14v-686z" />
    <glyph glyph-name="cid00042" unicode="I" horiz-adv-x="296" 
d="M208 -1q0 -11 -3.5 -14t-12.5 -3h-88q-9 0 -12.5 3t-3.5 14v686q0 11 3.5 14t12.5 3h88q9 0 12.5 -3t3.5 -14v-686z" />
    <glyph glyph-name="cid00043" unicode="J" horiz-adv-x="451" 
d="M23 82q4 16 18 11q23 -9 53 -14.5t53 -5.5q49 0 72.5 29t23.5 80v503q0 11 3.5 14t12.5 3h88q9 0 12.5 -3t3.5 -14v-505q0 -102 -51.5 -156t-157.5 -54q-39 0 -74.5 6.5t-63.5 17.5q-15 5 -11 22z" />
    <glyph glyph-name="cid00044" unicode="K" horiz-adv-x="637" 
d="M613 2q6 -7 3.5 -13t-11.5 -7h-116q-9 0 -13.5 1.5t-10.5 9.5l-257 309v-303q0 -11 -3.5 -14t-12.5 -3h-88q-9 0 -12.5 3t-3.5 14v686q0 11 3.5 14t12.5 3h88q9 0 12.5 -3t3.5 -14v-299l249 305q6 8 10.5 9.5t13.5 1.5h111q9 -1 11 -6.5t-3 -13.5l-284 -332z" />
    <glyph glyph-name="cid00045" unicode="L" horiz-adv-x="566" 
d="M111 -18q-14 0 -18.5 4.5t-4.5 18.5v680q0 11 3.5 14t12.5 3h88q9 0 12.5 -3t3.5 -14v-600h317q11 0 14 -3.5t3 -12.5v-71q0 -9 -3 -12.5t-14 -3.5h-414z" />
    <glyph glyph-name="cid00046" unicode="M" horiz-adv-x="909" 
d="M520 -1q-4 -11 -6.5 -14t-11.5 -3h-97q-9 0 -13 3t-8 14l-186 534v-534q0 -11 -3.5 -14t-12.5 -3h-78q-9 0 -12.5 3t-3.5 14v686q0 11 3.5 14t12.5 3h128q20 0 25 -19l197 -562l201 562q5 19 25 19h125q9 0 12.5 -3t3.5 -14v-686q0 -11 -3.5 -14t-12.5 -3h-83
q-9 0 -12.5 3t-3.5 14v537z" />
    <glyph glyph-name="cid00047" unicode="N" horiz-adv-x="740" 
d="M652 -1q0 -11 -3.5 -14t-12.5 -3h-114q-9 0 -12 3t-8 14l-301 528v-528q0 -11 -3.5 -14t-12.5 -3h-81q-9 0 -12.5 3t-3.5 14v686q0 11 3.5 14t12.5 3h107q9 0 14.5 -4.5t10.5 -14.5l303 -532v534q0 11 3.5 14t12.5 3h81q9 0 12.5 -3t3.5 -14v-686z" />
    <glyph glyph-name="cid00048" unicode="O" horiz-adv-x="777" 
d="M599 342q0 64 -16 113.5t-44.5 84t-67 52.5t-83.5 18t-83 -18t-66.5 -52.5t-44.5 -84t-16 -113.5t16 -113.5t44.5 -84t66.5 -52.5t83 -18t83.5 18t67 52.5t44.5 84t16 113.5zM721 342q0 -89 -25.5 -158t-70.5 -116.5t-106 -72.5t-131 -25t-130.5 25t-105.5 72.5
t-70.5 116.5t-25.5 158t25.5 158t70.5 116.5t105.5 72.5t130.5 25t131 -25t106 -72.5t70.5 -116.5t25.5 -158z" />
    <glyph glyph-name="cid00049" unicode="P" horiz-adv-x="628" 
d="M326 342q80 0 113.5 31t33.5 100t-33 100t-112 31h-120v-262h118zM88 679q0 14 4.5 18.5t18.5 4.5h231q129 0 191.5 -59t62.5 -170t-62.5 -170t-191.5 -59h-134v-245q0 -11 -3.5 -14t-12.5 -3h-88q-9 0 -12.5 3t-3.5 14v680z" />
    <glyph glyph-name="cid00050" unicode="Q" horiz-adv-x="777" 
d="M680 -15q10 -4 10.5 -8.5t-3.5 -11.5l-39 -67q-5 -7 -10 -7t-13 4l-165 83q-37 -8 -72 -8q-70 0 -130.5 25t-105.5 72.5t-70.5 116.5t-25.5 158t25.5 158t70.5 116.5t105.5 72.5t130.5 25t131 -25t106 -72.5t70.5 -116.5t25.5 -158q0 -111 -38.5 -190t-104.5 -125z
M599 342q0 64 -16 113.5t-44.5 84t-67 52.5t-83.5 18t-83 -18t-66.5 -52.5t-44.5 -84t-16 -113.5t16 -113.5t44.5 -84t66.5 -52.5t83 -18t83.5 18t67 52.5t44.5 84t16 113.5z" />
    <glyph glyph-name="cid00051" unicode="R" horiz-adv-x="648" 
d="M88 679q0 14 4.5 18.5t18.5 4.5h231q129 0 191.5 -58t62.5 -161q0 -81 -39.5 -134.5t-120.5 -73.5l186 -274q6 -11 2 -15t-14 -4h-104q-9 0 -14.5 3t-10.5 12l-167 268h-106v-266q0 -11 -3.5 -14t-12.5 -3h-88q-9 0 -12.5 3t-3.5 14v680zM326 362q81 0 114 30t33 91
t-33 91t-112 30h-120v-242h118z" />
    <glyph glyph-name="cid00052" unicode="S" horiz-adv-x="587" 
d="M81 124q19 -10 42.5 -19.5t48.5 -16.5t49 -11.5t44 -4.5q68 0 107 32.5t39 80.5q0 44 -29 69t-96 47q-60 20 -102.5 41.5t-69.5 48t-39.5 58t-12.5 70.5q0 43 15 78.5t45 61.5t74 40.5t101 14.5q63 0 111 -14t83 -36q7 -5 8.5 -9.5t-2.5 -13.5l-26 -59q-5 -13 -20 -6
q-32 16 -72 27t-82 11q-30 0 -52.5 -7.5t-36.5 -19.5t-21 -27.5t-7 -31.5q0 -21 6.5 -37.5t24 -31t49.5 -29t83 -33.5q52 -19 87.5 -39t57.5 -43.5t32 -53t10 -67.5q0 -51 -18 -92.5t-51 -71t-80.5 -45t-106.5 -15.5q-66 0 -126.5 17.5t-104.5 44.5q-13 8 -9 19l27 65
q6 16 20 8z" />
    <glyph glyph-name="cid00053" unicode="T" horiz-adv-x="582" 
d="M541 702q11 0 14 -3.5t3 -12.5v-71q0 -9 -3 -12.5t-14 -3.5h-190v-600q0 -11 -3.5 -14t-12.5 -3h-88q-9 0 -12.5 3t-3.5 14v600h-190q-11 0 -14 3.5t-3 12.5v71q0 9 3 12.5t14 3.5h500z" />
    <glyph glyph-name="cid00054" unicode="U" horiz-adv-x="742" 
d="M654 243q0 -60 -17 -110t-52 -86.5t-88 -56.5t-126 -20t-126 20t-88 56.5t-52 86.5t-17 110v442q0 11 3.5 14t12.5 3h88q9 0 12.5 -3t3.5 -14v-429q0 -88 40 -135t123 -47q84 0 123.5 47t39.5 135v429q0 11 3.5 14t12.5 3h88q9 0 12.5 -3t3.5 -14v-442z" />
    <glyph glyph-name="cid00055" unicode="V" horiz-adv-x="718" 
d="M304 -18q-9 0 -12.5 3.5t-7.5 13.5l-246 686q-4 11 0 14t13 3h96q9 0 14 -3t9 -14l192 -568l192 568q4 11 9 14t14 3h89q9 0 13 -3t0 -14l-251 -686q-4 -10 -7.5 -13.5t-12.5 -3.5h-104z" />
    <glyph glyph-name="cid00056" unicode="W" horiz-adv-x="974" 
d="M648 -18q-9 0 -12.5 3.5t-7.5 13.5l-144 533l-134 -533q-4 -10 -7.5 -13.5t-12.5 -3.5h-116q-9 0 -12.5 3.5t-7.5 13.5l-153 686q-2 11 1 14t12 3h87q9 0 15 -3t8 -14l117 -556l141 556q3 11 8.5 14t14.5 3h96q9 0 14.5 -3t8.5 -14l143 -553l120 553q2 11 8 14t15 3h79
q9 0 12 -3t1 -14l-168 -686q-4 -10 -7.5 -13.5t-12.5 -3.5h-106z" />
    <glyph glyph-name="cid00057" unicode="X" horiz-adv-x="686" 
d="M164 -7q-5 -8 -9 -9.5t-12 -1.5h-101q-18 0 -7 16l238 363l-222 326q-9 15 8 15h111q9 0 13 -2.5t8 -8.5l159 -238l141 238q4 6 8 8.5t13 2.5h107q17 0 8 -15l-212 -329l237 -360q11 -16 -7 -16h-110q-8 0 -11.5 1.5t-9.5 9.5l-176 275z" />
    <glyph glyph-name="cid00058" unicode="Y" horiz-adv-x="652" 
d="M382 -1q0 -11 -3.5 -14t-12.5 -3h-88q-9 0 -12.5 3t-3.5 14v268l-233 420q-9 15 8 15h103q9 0 13.5 -2.5t7.5 -8.5l166 -303l166 303q5 11 21 11h100q17 0 8 -15l-240 -420v-268z" />
    <glyph glyph-name="cid00059" unicode="Z" horiz-adv-x="595" 
d="M200 85h326q11 0 14 -3.5t3 -12.5v-71q0 -9 -3 -12.5t-14 -3.5h-455q-11 0 -14 3.5t-3 12.5v39q0 21 1.5 29t9.5 20l328 513h-313q-11 0 -14 3.5t-3 12.5v71q0 9 3 12.5t14 3.5h450q11 0 14 -3.5t3 -12.5v-39q0 -21 -1.5 -29t-9.5 -20z" />
    <glyph glyph-name="cid00060" unicode="[" horiz-adv-x="372" 
d="M104 -146q-9 0 -12.5 3t-3.5 14v873q0 11 3.5 14t12.5 3h205q11 0 14 -3.5t3 -12.5v-65q0 -9 -3 -12.5t-14 -3.5h-106v-713h106q11 0 14 -3.5t3 -12.5v-65q0 -9 -3 -12.5t-14 -3.5h-205z" />
    <glyph glyph-name="cid00061" unicode="\" 
d="M112 394l-61 291q-2 11 1 14t12 3h83q9 0 14.5 -3t7.5 -14l58 -291h103l64 291q3 11 8 14t14 3h91q9 0 14.5 -3t7.5 -14l67 -291h108l61 291q2 11 7.5 14t14.5 3h77q9 0 12 -3t1 -14l-68 -291h62q11 0 13.5 -3.5t2.5 -11.5v-69q0 -8 -2.5 -11.5t-13.5 -3.5h-85l-69 -296
q-4 -10 -7.5 -13.5t-11.5 -3.5h-102q-8 0 -11.5 3.5t-7.5 13.5l-68 296h-98l-66 -296q-3 -10 -6.5 -13.5t-12.5 -3.5h-111q-9 0 -12.5 3.5t-6.5 13.5l-63 296h-84q-11 0 -13.5 3.5t-2.5 11.5v69q0 8 2.5 11.5t13.5 3.5h63zM276 147l32 148h-62zM653 151l30 144h-64zM433 394
h53l-27 116z" />
    <glyph glyph-name="cid00062" unicode="]" horiz-adv-x="372" 
d="M63 -146q-11 0 -14 3.5t-3 12.5v65q0 9 3 12.5t14 3.5h106v713h-106q-11 0 -14 3.5t-3 12.5v65q0 9 3 12.5t14 3.5h205q9 0 12.5 -3t3.5 -14v-873q0 -11 -3.5 -14t-12.5 -3h-205z" />
    <glyph glyph-name="cid00063" unicode="^" horiz-adv-x="494" 
d="M287 747q8 0 10 -3t6 -10l138 -234q5 -8 1 -10.5t-11 -2.5h-66q-7 0 -10 2.5t-8 10.5l-93 154l-99 -154q-5 -7 -7.5 -10t-10.5 -3h-71q-7 0 -11 2.5t1 10.5l139 234q4 7 6 10t11 3h75z" />
    <glyph glyph-name="cid00064" unicode="_" horiz-adv-x="360" 
d="M340 -79q11 0 14 -3.5t3 -12.5v-46q0 -9 -3 -12.5t-14 -3.5h-321q-11 0 -14 3.5t-3 12.5v46q0 9 3 12.5t14 3.5h321z" />
    <glyph glyph-name="cid00065" unicode="`" horiz-adv-x="237" 
d="M28 733q-11 14 7 14h88q8 0 10 -3t6 -10l79 -138q5 -8 1 -10.5t-11 -2.5h-68q-7 0 -10.5 1.5t-8.5 9.5z" />
    <glyph glyph-name="cid00066" unicode="a" horiz-adv-x="562" 
d="M122 413q-11 -3 -15 -1t-7 11l-18 55q-3 8 -1.5 12.5t12.5 8.5q38 13 84.5 22.5t99.5 9.5q48 0 88 -9.5t68.5 -30t44.5 -51.5t16 -73v-368q0 -11 -3.5 -14t-12.5 -3h-69q-9 0 -12.5 3t-7.5 14l-5 15q-29 -20 -73 -32t-87 -12q-36 0 -69 10t-57.5 30t-39.5 51t-15 72
q0 77 58.5 122.5t160.5 45.5h118v40q0 54 -36 73.5t-102 19.5q-29 0 -60 -6.5t-60 -14.5zM251 59q13 0 30 2t35 6.5t35 10t29 13.5v124h-115q-45 0 -75.5 -18.5t-30.5 -61.5q0 -20 7.5 -34.5t20.5 -23.5t29.5 -13.5t34.5 -4.5z" />
    <glyph glyph-name="cid00067" unicode="b" horiz-adv-x="613" 
d="M182 -1q-4 -11 -8.5 -14t-13.5 -3h-66q-16 0 -16 17v731q0 11 3.5 14t12.5 3h81q9 0 12.5 -3t3.5 -14v-256q70 56 153 56q51 0 93 -15t72 -48t46.5 -86t16.5 -129q0 -77 -17.5 -130.5t-49 -87t-76 -48.5t-97.5 -15q-35 0 -75 13t-70 34zM314 71q30 0 56 8t46 28
t31.5 55.5t11.5 89.5q0 55 -10.5 89.5t-29.5 54t-44.5 26.5t-56.5 7q-64 0 -127 -56v-266q30 -17 63 -26.5t60 -9.5z" />
    <glyph glyph-name="cid00068" unicode="c" horiz-adv-x="527" 
d="M458 103q14 9 17 -5l20 -66q2 -7 1.5 -10.5t-7.5 -8.5q-15 -9 -34.5 -17t-42.5 -13.5t-48 -9t-49 -3.5q-57 0 -106 18.5t-85 54.5t-57 89t-21 122q0 61 18.5 111.5t53.5 87.5t85 57.5t112 20.5q48 0 89.5 -11t67.5 -27q10 -6 6 -17l-23 -68q-5 -12 -15 -6q-10 5 -25 10.5
t-31.5 10t-34.5 7t-34 2.5q-37 0 -66 -13.5t-48.5 -37.5t-29.5 -56.5t-10 -70.5q0 -96 42.5 -141t117.5 -45q40 0 76.5 10.5t60.5 24.5z" />
    <glyph glyph-name="cid00069" unicode="d" horiz-adv-x="613" 
d="M422 730q0 11 3.5 14t12.5 3h81q9 0 12.5 -3t3.5 -14v-731q0 -17 -16 -17h-66q-9 0 -13.5 3t-8.5 14q-2 7 -3.5 13.5t-3.5 14.5q-72 -57 -155 -57q-51 0 -93 15t-72 48.5t-46.5 86.5t-16.5 129q0 77 17.5 131t49 87.5t76 48.5t97.5 15q33 0 71.5 -12.5t69.5 -32.5v244z
M299 431q-30 0 -56 -8t-46 -28.5t-31.5 -56t-11.5 -89.5q0 -55 10.5 -90t29 -54.5t44.5 -26.5t57 -7q32 0 63.5 13t63.5 42v268q-30 17 -63 27t-60 10z" />
    <glyph glyph-name="cid00070" unicode="e" horiz-adv-x="574" 
d="M502 6q-39 -15 -82 -25.5t-104 -10.5q-131 0 -200.5 74.5t-69.5 203.5q0 71 21 124t56 88.5t80.5 53t95.5 17.5q111 0 171.5 -73t60.5 -216q0 -17 -5 -22.5t-19 -5.5h-344q4 -44 18 -72.5t35.5 -45.5t49.5 -23.5t60 -6.5q36 0 75.5 6.5t73.5 19.5q11 4 15 1.5t7 -11.5
l17 -55q2 -8 0.5 -12t-12.5 -9zM296 435q-23 0 -44.5 -6t-39 -21.5t-30 -41.5t-17.5 -66h238q11 0 11 11q0 30 -9.5 53t-26 38.5t-38 24t-44.5 8.5z" />
    <glyph glyph-name="cid00071" unicode="f" horiz-adv-x="373" 
d="M107 -18q-9 0 -12.5 3t-3.5 14v429h-61q-11 0 -14 3.5t-3 12.5v60q0 9 3 12.5t14 3.5h61v73q0 75 45.5 120t120.5 45q56 0 100 -15q10 -4 12 -7t0 -12l-12 -60q-2 -8 -5 -8.5t-13 2.5q-12 4 -29.5 6.5t-31.5 2.5q-34 0 -53 -24.5t-19 -60.5v-62h115q11 0 14 -3.5t3 -12.5
v-60q0 -9 -3 -12.5t-14 -3.5h-115v-429q0 -11 -3.5 -14t-12.5 -3h-83v0z" />
    <glyph glyph-name="cid00072" unicode="g" horiz-adv-x="613" 
d="M102 -164q-11 5 -12.5 9t0.5 12l17 55q3 9 7 11.5t15 -1.5q34 -11 73.5 -18.5t65.5 -7.5q42 0 71 7.5t47.5 24t27 43.5t8.5 67q-71 -56 -153 -56q-51 0 -93 15.5t-72 48.5t-46.5 85t-16.5 124q0 73 17.5 125.5t49 86t76 49t97.5 15.5q34 0 74 -13t71 -34q1 8 5 19t7.5 14
t12.5 3h68q9 0 12.5 -3t3.5 -14v-470q0 -126 -65.5 -179.5t-191.5 -53.5q-17 0 -39.5 2.5t-46.5 7t-47.5 11.5t-42.5 15zM295 83q32 0 63.5 13t63.5 42v256q-30 17 -63 27t-60 10q-30 0 -56 -8.5t-46 -29t-31.5 -54t-11.5 -84.5t10.5 -84.5t29 -53t44.5 -27t57 -7.5z" />
    <glyph glyph-name="cid00073" unicode="h" horiz-adv-x="616" 
d="M323 429q-65 0 -130 -56v-374q0 -11 -3.5 -14t-12.5 -3h-83q-9 0 -12.5 3t-3.5 14v731q0 11 3.5 14t12.5 3h83q9 0 12.5 -3t3.5 -14v-256q70 57 161 57q38 0 73 -11.5t62 -33.5t43 -54.5t16 -74.5v-358q0 -11 -3.5 -14t-12.5 -3h-83q-9 0 -12.5 3t-3.5 14v319
q0 58 -28.5 84.5t-81.5 26.5z" />
    <glyph glyph-name="cid00074" unicode="i" horiz-adv-x="273" 
d="M78 503q0 11 3.5 14t12.5 3h85q9 0 12.5 -3t3.5 -14v-504q0 -11 -3.5 -14t-12.5 -3h-85q-9 0 -12.5 3t-3.5 14v504zM195 622q0 -11 -3 -13.5t-12 -2.5h-87q-9 0 -12 2.5t-3 13.5v84q0 11 3 13.5t12 2.5h87q9 0 12 -2.5t3 -13.5v-84z" />
    <glyph glyph-name="cid00075" unicode="j" horiz-adv-x="296" 
d="M218 622q0 -11 -3 -13.5t-12 -2.5h-86q-9 0 -12 2.5t-3 13.5v84q0 11 3 13.5t12 2.5h86q9 0 12 -2.5t3 -13.5v-84zM102 503q0 11 3.5 14t12.5 3h84q9 0 12.5 -3t3.5 -14v-539q0 -44 -11 -75t-29 -51t-41.5 -29t-48.5 -9q-32 0 -61 3.5t-52 9.5q-12 3 -14 7t0 13l10 61
q2 9 6 11.5t15 0.5q14 -3 30.5 -4.5t30.5 -1.5q22 0 35.5 16.5t13.5 61.5v525z" />
    <glyph glyph-name="cid00076" unicode="k" horiz-adv-x="529" 
d="M511 3q5 -7 3.5 -13.5t-10.5 -7.5h-100q-9 0 -13.5 1.5t-10.5 9.5l-187 240v-234q0 -11 -3.5 -14t-12.5 -3h-83q-9 0 -12.5 3t-3.5 14v731q0 11 3.5 14t12.5 3h83q9 0 12.5 -3t3.5 -14v-413l172 192q6 8 10.5 9.5t13.5 1.5h93q9 -1 11.5 -7t-3.5 -13l-206 -221z" />
    <glyph glyph-name="cid00077" unicode="l" horiz-adv-x="330" 
d="M176 148q0 -45 13.5 -61.5t35.5 -16.5q14 0 30.5 1.5t30.5 4.5q11 2 15 -0.5t6 -11.5l10 -61q2 -9 0 -13t-14 -7q-23 -6 -52 -9.5t-61 -3.5q-26 0 -49.5 9t-41.5 29t-28.5 51t-10.5 75v596q0 11 3.5 14t12.5 3h84q9 0 12.5 -3t3.5 -14v-582z" />
    <glyph glyph-name="cid00078" unicode="m" horiz-adv-x="853" 
d="M671 318q0 58 -17 84.5t-65 26.5q-24 0 -50 -14t-52 -37q0 -5 0.5 -10.5t0.5 -10.5v-358q0 -11 -3.5 -14t-12.5 -3h-81q-9 0 -12.5 3t-3.5 14v319q0 58 -16.5 84.5t-64.5 26.5q-21 0 -47 -12.5t-55 -38.5v-379q0 -11 -3.5 -14t-12.5 -3h-82q-9 0 -12.5 3t-3.5 14v504
q0 11 3.5 14t12.5 3h69q9 0 12.5 -3t7.5 -14q2 -7 3.5 -14t3.5 -15q35 29 71 43t64 14q97 0 138 -69q37 32 76.5 50.5t80.5 18.5q78 0 121.5 -44.5t43.5 -129.5v-358q0 -11 -3.5 -14t-12.5 -3h-82q-9 0 -12.5 3t-3.5 14v319z" />
    <glyph glyph-name="cid00079" unicode="n" horiz-adv-x="616" 
d="M433 318q0 58 -28.5 84.5t-81.5 26.5q-65 0 -130 -56v-374q0 -11 -3.5 -14t-12.5 -3h-83q-9 0 -12.5 3t-3.5 14v504q0 11 3.5 14t12.5 3h70q9 0 12.5 -3t7.5 -14q2 -7 3.5 -14.5t3.5 -15.5q36 29 76 43.5t87 14.5q38 0 73 -11.5t62 -33.5t43 -54.5t16 -74.5v-358
q0 -11 -3.5 -14t-12.5 -3h-83q-9 0 -12.5 3t-3.5 14v319z" />
    <glyph glyph-name="cid00080" unicode="o" horiz-adv-x="618" 
d="M46 250q0 57 18 108t52 89.5t82.5 61t110.5 22.5q61 0 110 -22.5t83 -61t52 -89.5t18 -108t-18 -107.5t-52 -89t-83 -61t-110 -22.5q-62 0 -110.5 22.5t-82.5 61t-52 89t-18 107.5zM161 250q0 -38 9.5 -70.5t28 -57.5t46.5 -39t64 -14t64 14t46.5 39t28 57.5t9.5 70.5
q0 37 -9.5 70.5t-28 58t-46.5 39t-64 14.5t-64 -14.5t-46.5 -39t-28 -58t-9.5 -70.5z" />
    <glyph glyph-name="cid00081" unicode="p" horiz-adv-x="613" 
d="M191 -171q0 -11 -3.5 -14t-12.5 -3h-81q-9 0 -12.5 3t-3.5 14v674q0 11 3.5 14t12.5 3h68q9 0 12.5 -3t7.5 -14q2 -7 3.5 -14t3.5 -15q70 57 155 57q49 0 91 -14.5t72.5 -47.5t47.5 -86.5t17 -131.5q0 -77 -17.5 -130.5t-49 -87t-76 -48.5t-97.5 -15q-33 0 -72 12t-69 32
v-185zM314 70q30 0 56 8t46 28t31.5 55.5t11.5 89.5q0 55 -10.5 90t-29.5 54.5t-44.5 27t-56.5 7.5q-64 0 -127 -56v-268q30 -17 63 -26.5t60 -9.5z" />
    <glyph glyph-name="cid00082" unicode="q" horiz-adv-x="613" 
d="M431 503q4 11 7.5 14t12.5 3h68q9 0 12.5 -3t3.5 -14v-674q0 -11 -3.5 -14t-12.5 -3h-81q-9 0 -12.5 3t-3.5 14v199q-71 -56 -153 -56q-51 0 -93 15t-72 48t-46.5 86t-16.5 129q0 77 17.5 130.5t49 87t76 48.5t97.5 15q34 0 74 -13t71 -34q1 8 5 19zM299 431
q-30 0 -56 -8t-46 -28t-31.5 -55.5t-11.5 -89.5q0 -55 10.5 -89.5t29 -54t44.5 -26.5t57 -7q32 0 63.5 13t63.5 42v266q-30 17 -63 27t-60 10z" />
    <glyph glyph-name="cid00083" unicode="r" horiz-adv-x="392" 
d="M333 531q14 0 27.5 -2t21.5 -6q4 -2 4 -5.5t-1 -8.5l-10 -76q-3 -11 -12 -11q-5 0 -20.5 1.5t-35.5 1.5t-49.5 -10.5t-64.5 -42.5v-373q0 -11 -3.5 -14t-12.5 -3h-83q-9 0 -12.5 3t-3.5 14v504q0 11 3.5 14t12.5 3h70q9 0 12.5 -3t7.5 -14q2 -7 3.5 -15.5t3.5 -17.5
q35 32 72.5 46.5t69.5 14.5z" />
    <glyph glyph-name="cid00084" unicode="s" horiz-adv-x="487" 
d="M240 435q-34 0 -55 -15.5t-21 -38.5q0 -13 3.5 -22.5t16 -19t36 -19t62.5 -22.5q87 -29 123 -67.5t36 -95.5q0 -75 -59.5 -120t-166.5 -45q-17 0 -39 3t-45 9t-45.5 14t-41.5 18q-11 6 -12.5 9.5t0.5 11.5l19 58q3 9 7 12t15 -2q32 -14 71 -25.5t68 -11.5q59 0 86 16.5
t27 45.5q0 12 -4 22.5t-14 20t-27.5 18t-45.5 17.5q-52 16 -87.5 34t-57.5 38.5t-31.5 45t-9.5 54.5q0 32 13 60t38.5 48.5t62 32.5t84.5 12q46 0 84.5 -10t67.5 -26q11 -6 12.5 -9.5t-0.5 -11.5l-18 -58q-3 -9 -7 -12t-15 2q-31 13 -62 21t-68 8z" />
    <glyph glyph-name="cid00085" unicode="t" horiz-adv-x="401" 
d="M379 -14q-24 -7 -53 -11.5t-64 -4.5q-33 0 -62 10.5t-51 32.5t-34.5 54.5t-12.5 76.5v284h-62q-11 0 -14 3.5t-3 12.5v60q0 9 3 12.5t14 3.5h62v112q0 11 3.5 14t12.5 3h83q9 0 12.5 -3t3.5 -14v-112h146q11 0 14 -3.5t3 -12.5v-60q0 -9 -3 -12.5t-14 -3.5h-146v-271
q0 -88 80 -88q14 0 30 1.5t34 6.5q11 3 15 0t6 -12l11 -59q2 -9 0 -12.5t-14 -7.5z" />
    <glyph glyph-name="cid00086" unicode="u" horiz-adv-x="616" 
d="M183 184q0 -58 28.5 -84.5t81.5 -26.5q33 0 64.5 13t65.5 42v375q0 11 3.5 14t12.5 3h83q9 0 12.5 -3t3.5 -14v-504q0 -11 -3.5 -14t-12.5 -3h-70q-9 0 -12.5 3t-7.5 14q-2 7 -4 14.5t-4 15.5q-73 -58 -162 -58q-38 0 -73 11.5t-62 33.5t-43 54.5t-16 74.5v358
q0 11 3.5 14t12.5 3h83q9 0 12.5 -3t3.5 -14v-319z" />
    <glyph glyph-name="cid00087" unicode="v" horiz-adv-x="581" 
d="M241 -18q-9 0 -12.5 3.5t-7.5 13.5l-196 504q-4 11 0 14t13 3h93q9 0 14 -3t9 -14l143 -399l140 399q4 11 9 14t14 3h85q9 0 13 -3t0 -14l-194 -504q-4 -10 -7.5 -13.5t-12.5 -3.5h-103z" />
    <glyph glyph-name="cid00088" unicode="w" horiz-adv-x="773" 
d="M500 -18q-9 0 -13 3.5t-7 13.5l-93 347l-89 -347q-4 -17 -20 -17h-96q-9 0 -13 3.5t-7 13.5l-135 504q-3 11 0.5 14t12.5 3h81q9 0 15 -3t8 -14l91 -384l95 384q2 11 7.5 13.5t13.5 3.5h68q9 0 14.5 -3t8.5 -14l108 -383l85 383q2 11 8 14t15 3h80q9 0 12.5 -3t0.5 -14
l-132 -504q-3 -10 -7 -13.5t-13 -3.5h-99z" />
    <glyph glyph-name="cid00089" unicode="x" horiz-adv-x="541" 
d="M145 -7q-6 -8 -9.5 -9.5t-11.5 -1.5h-92q-20 0 -8 16l177 265l-170 241q-5 7 -2.5 11.5t11.5 4.5h102q9 0 13 -2.5t8 -8.5l109 -165l112 165q4 6 8 8.5t13 2.5h95q9 0 11.5 -4.5t-2.5 -11.5l-171 -241l178 -265q12 -16 -8 -16h-99q-8 0 -11.5 1.5t-9.5 9.5l-120 184z" />
    <glyph glyph-name="cid00090" unicode="y" horiz-adv-x="559" 
d="M24 504q-3 8 -1.5 12t10.5 4h99q16 0 21 -11l131 -381l135 381q4 11 21 11h90q17 0 9 -16l-219 -569q-27 -70 -70 -102.5t-97 -32.5q-30 0 -51.5 3.5t-44.5 11.5q-11 4 -13.5 7.5t-0.5 12.5l14 61q2 9 6 12t15 0q14 -4 30.5 -6t30.5 -2q25 0 41 13.5t31 45.5l11 23z" />
    <glyph glyph-name="cid00091" unicode="z" horiz-adv-x="495" 
d="M170 74h271q11 0 14 -3.5t3 -12.5v-60q0 -9 -3 -12.5t-14 -3.5h-387q-11 0 -14 3.5t-3 12.5v36q0 21 1.5 29t9.5 20l255 345h-231q-11 0 -14 3.5t-3 12.5v60q0 9 3 12.5t14 3.5h354q11 0 14 -3.5t3 -12.5v-36q0 -21 -1.5 -29t-9.5 -20z" />
    <glyph glyph-name="cid00092" unicode="{" horiz-adv-x="396" 
d="M140 308q35 -8 57.5 -21.5t35 -30.5t17.5 -37.5t5 -42.5v-144q0 -50 26.5 -71t78.5 -21q11 0 11 -12v-63q0 -11 -10 -11q-53 0 -94.5 9.5t-69.5 30.5t-42.5 54t-14.5 80v144q0 26 -7 43t-20.5 27.5t-34 15.5t-47.5 8q-7 1 -7 9v65q0 8 7 9q27 3 47.5 8t34 15.5t20.5 27.5
t7 43v144q0 94 57 134t164 40q10 0 10 -11v-63q0 -12 -11 -12q-52 0 -78.5 -21t-26.5 -71v-144q0 -22 -5 -42t-17.5 -37t-35 -30.5t-57.5 -21.5z" />
    <glyph glyph-name="cid00093" unicode="|" horiz-adv-x="270" 
d="M187 -134q0 -11 -3.5 -14t-12.5 -3h-72q-9 0 -12.5 3t-3.5 14v868q0 11 3.5 14t12.5 3h72q9 0 12.5 -3t3.5 -14v-868z" />
    <glyph glyph-name="cid00094" unicode="}" horiz-adv-x="396" 
d="M256 308q-35 8 -57.5 21.5t-35 30.5t-17.5 37t-5 42v144q0 50 -26.5 71t-78.5 21q-11 0 -11 12v63q0 11 10 11q106 0 163.5 -40t57.5 -134v-144q0 -26 7 -43t20.5 -27.5t34 -15.5t47.5 -8q7 -1 7 -9v-65q0 -8 -7 -9q-27 -3 -47.5 -8t-34 -15.5t-20.5 -27.5t-7 -43v-144
q0 -95 -57.5 -134.5t-163.5 -39.5q-10 0 -10 11v63q0 12 11 12q52 0 78.5 21t26.5 71v144q0 22 5 42.5t17.5 37.5t35 30.5t57.5 21.5z" />
    <glyph glyph-name="cid00095" unicode="~" horiz-adv-x="699" 
d="M478 335q20 0 41.5 21t29.5 71q2 11 11 8l80 -22q10 -2 8 -13q-10 -78 -55 -122.5t-118 -44.5q-32 0 -68.5 14t-67.5 37q-14 10 -30 20.5t-32 19.5t-31 14.5t-26 5.5q-29 0 -47.5 -24t-26.5 -58q-3 -9 -11 -5l-72 30q-9 3 -7 11q7 29 21 55.5t35 47t48.5 32.5t61.5 12
q32 0 66.5 -13.5t61.5 -34.5q41 -32 70 -47t58 -15z" />
    <glyph glyph-name="cid00096" unicode="&#x20a9;" 
d="M112 394l-61 291q-2 11 1 14t12 3h83q9 0 14.5 -3t7.5 -14l58 -291h103l64 291q3 11 8 14t14 3h91q9 0 14.5 -3t7.5 -14l67 -291h108l61 291q2 11 7.5 14t14.5 3h77q9 0 12 -3t1 -14l-68 -291h62q11 0 13.5 -3.5t2.5 -11.5v-69q0 -8 -2.5 -11.5t-13.5 -3.5h-85l-69 -296
q-4 -10 -7.5 -13.5t-11.5 -3.5h-102q-8 0 -11.5 3.5t-7.5 13.5l-68 296h-98l-66 -296q-3 -10 -6.5 -13.5t-12.5 -3.5h-111q-9 0 -12.5 3.5t-6.5 13.5l-63 296h-84q-11 0 -13.5 3.5t-2.5 11.5v69q0 8 2.5 11.5t13.5 3.5h63zM276 147l32 148h-62zM653 151l30 144h-64zM433 394
h53l-27 116z" />
    <glyph glyph-name="cid00097" unicode="&#x2010;" horiz-adv-x="438" 
d="M414 275h-390v73h390v-73z" />
    <glyph glyph-name="cid00098" unicode="&#xa9;" horiz-adv-x="837" 
d="M428 128q-86 0 -137.5 50t-51.5 153v13q0 54 15.5 92t42 62t61.5 35t75 11q36 0 61.5 -6.5t40.5 -14.5v-72q-23 9 -46 14t-54 5q-45 0 -72 -27.5t-27 -90.5v-21q0 -65 24.5 -98t82.5 -33q35 0 57.5 9t39.5 17v-70q-20 -11 -47.5 -19.5t-64.5 -8.5zM418 14q67 0 124 24
t98.5 66.5t64.5 101.5t23 130t-23 130t-64.5 101t-98.5 65.5t-124 23.5q-68 0 -124.5 -23.5t-97.5 -65.5t-64 -101t-23 -130t23 -130t64 -101.5t97.5 -66.5t124.5 -24zM418 -39q-80 0 -148.5 29.5t-118.5 80.5t-78 119t-28 146t28 146t78 118.5t118.5 80t148.5 29.5
q79 0 148 -29.5t119 -80t79 -118.5t29 -146t-29 -146t-79 -119t-119 -80.5t-148 -29.5z" />
    <glyph glyph-name="cid00099" horiz-adv-x="694" 
d="M534 407q-2 -7 -4.5 -8.5t-7.5 -1.5h-56q-5 0 -7.5 1.5t-4.5 8.5l-64 203v-203q0 -7 -2 -8.5t-8 -1.5h-51q-6 0 -8 1.5t-2 8.5v286q0 7 2 8.5t8 1.5h81q12 0 15 -11l69 -217l69 217q4 11 15 11h81q6 0 8 -1.5t2 -8.5v-286q0 -7 -2 -8.5t-8 -1.5h-51q-6 0 -8 1.5t-2 8.5
v203zM264 702q7 0 8.5 -2t1.5 -8v-42q0 -5 -1.5 -7.5t-8.5 -2.5h-84v-233q0 -7 -2 -8.5t-8 -1.5h-52q-6 0 -8 1.5t-2 8.5v233h-84q-7 0 -8.5 2.5t-1.5 7.5v42q0 6 1.5 8t8.5 2h240z" />
    <glyph glyph-name="cid00100" 
d="M210 3q0 -11 -3 -13.5t-12 -2.5h-90q-9 0 -12 2.5t-3 13.5v84q0 11 3 13.5t12 2.5h90q9 0 12 -2.5t3 -13.5v-84zM520 3q0 -11 -3 -13.5t-12 -2.5h-90q-9 0 -12 2.5t-3 13.5v84q0 11 3 13.5t12 2.5h90q9 0 12 -2.5t3 -13.5v-84zM830 3q0 -11 -3 -13.5t-12 -2.5h-90
q-9 0 -12 2.5t-3 13.5v84q0 11 3 13.5t12 2.5h90q9 0 12 -2.5t3 -13.5v-84z" />
    <glyph glyph-name="cid00101" unicode="&#x3000;" horiz-adv-x="1000" 
 />
    <glyph glyph-name="cid00101" unicode="&#x3164;" horiz-adv-x="1000" 
 />
    <glyph glyph-name="cid00102" unicode="&#x3001;" horiz-adv-x="725" 
d="M228 -171q-25 34 -48 62t-46 52.5t-48.5 47t-55.5 46.5l73 67q32 -24 58 -46t50 -45.5t47.5 -49.5t49.5 -59z" />
    <glyph glyph-name="cid00103" unicode="&#x3002;" horiz-adv-x="822" 
d="M188 -98q34 0 59 25t25 60t-25 59.5t-59 24.5t-59 -24.5t-25 -59.5t25 -60t59 -25zM188 -166q-31 0 -58.5 12t-48.5 33t-33 48.5t-12 59.5q0 31 12 59t33 48.5t48.5 32.5t58.5 12q32 0 60 -12t48.5 -32.5t32.5 -48.5t12 -59q0 -32 -12 -59.5t-33 -48.5t-49 -33t-59 -12z
" />
    <glyph glyph-name="cid00104" unicode="&#xb7;" horiz-adv-x="322" 
d="M217 275q0 -11 -3 -13.5t-12 -2.5h-90q-9 0 -12 2.5t-3 13.5v84q0 11 3 13.5t12 2.5h90q9 0 12 -2.5t3 -13.5v-84z" />
    <glyph glyph-name="cid00104" unicode="&#x30fb;" horiz-adv-x="322" 
d="M217 275q0 -11 -3 -13.5t-12 -2.5h-90q-9 0 -12 2.5t-3 13.5v84q0 11 3 13.5t12 2.5h90q9 0 12 -2.5t3 -13.5v-84z" />
    <glyph glyph-name="cid00105" unicode="&#x2025;" horiz-adv-x="850" 
d="M299 275q0 -11 -3 -13.5t-12 -2.5h-90q-9 0 -12 2.5t-3 13.5v84q0 11 3 13.5t12 2.5h90q9 0 12 -2.5t3 -13.5v-84zM671 275q0 -11 -3 -13.5t-12 -2.5h-90q-9 0 -12 2.5t-3 13.5v84q0 11 3 13.5t12 2.5h90q9 0 12 -2.5t3 -13.5v-84z" />
    <glyph glyph-name="cid00106" unicode="&#x2026;" 
d="M210 275q0 -11 -3 -13.5t-12 -2.5h-90q-9 0 -12 2.5t-3 13.5v84q0 11 3 13.5t12 2.5h90q9 0 12 -2.5t3 -13.5v-84zM520 275q0 -11 -3 -13.5t-12 -2.5h-90q-9 0 -12 2.5t-3 13.5v84q0 11 3 13.5t12 2.5h90q9 0 12 -2.5t3 -13.5v-84zM830 275q0 -11 -3 -13.5t-12 -2.5h-90
q-9 0 -12 2.5t-3 13.5v84q0 11 3 13.5t12 2.5h90q9 0 12 -2.5t3 -13.5v-84z" />
    <glyph glyph-name="cid00106" unicode="&#x22ef;" 
d="M210 275q0 -11 -3 -13.5t-12 -2.5h-90q-9 0 -12 2.5t-3 13.5v84q0 11 3 13.5t12 2.5h90q9 0 12 -2.5t3 -13.5v-84zM520 275q0 -11 -3 -13.5t-12 -2.5h-90q-9 0 -12 2.5t-3 13.5v84q0 11 3 13.5t12 2.5h90q9 0 12 -2.5t3 -13.5v-84zM830 275q0 -11 -3 -13.5t-12 -2.5h-90
q-9 0 -12 2.5t-3 13.5v84q0 11 3 13.5t12 2.5h90q9 0 12 -2.5t3 -13.5v-84z" />
    <glyph glyph-name="cid00107" unicode="&#xa8;" horiz-adv-x="519" 
d="M118 718h99v-100h-99v100zM303 718h98v-100h-98v100z" />
    <glyph glyph-name="cid00108" unicode="&#x3003;" horiz-adv-x="900" 
d="M533 415h120l-136 -287h-68zM344 415h120l-135 -287h-68z" />
    <glyph glyph-name="cid00109" unicode="&#xad;" horiz-adv-x="410" 
d="M353 280h-296v69h296v-69z" />
    <glyph glyph-name="cid00109" unicode="&#x2013;" horiz-adv-x="410" 
d="M353 280h-296v69h296v-69z" />
    <glyph glyph-name="cid00110" unicode="&#x2014;" horiz-adv-x="864" 
d="M861 283h-858v63h858v-63z" />
    <glyph glyph-name="cid00110" unicode="&#x2015;" horiz-adv-x="864" 
d="M861 283h-858v63h858v-63z" />
    <glyph glyph-name="cid00111" unicode="&#x2016;" horiz-adv-x="900" 
d="M395 -178h-64v957h64v-957zM569 -178h-65v957h65v-957z" />
    <glyph glyph-name="cid00112" unicode="&#xff3c;" horiz-adv-x="900" 
d="M864 -118l-36 -36l-792 875l35 38z" />
    <glyph glyph-name="cid00113" unicode="&#x223c;" horiz-adv-x="900" 
d="M739 340q-12 -19 -29.5 -36.5t-38 -31t-43 -22t-44.5 -8.5q-43 0 -73.5 9t-62.5 26q-26 14 -60.5 27t-71.5 13q-36 0 -63 -17.5t-45 -45.5l-47 31q12 19 29.5 36.5t38 31t43 22t44.5 8.5q44 0 74 -9t62 -26t63 -29t69 -12q36 0 63 18t45 46z" />
    <glyph glyph-name="cid00113" unicode="&#xff5e;" horiz-adv-x="900" 
d="M739 340q-12 -19 -29.5 -36.5t-38 -31t-43 -22t-44.5 -8.5q-43 0 -73.5 9t-62.5 26q-26 14 -60.5 27t-71.5 13q-36 0 -63 -17.5t-45 -45.5l-47 31q12 19 29.5 36.5t38 31t43 22t44.5 8.5q44 0 74 -9t62 -26t63 -29t69 -12q36 0 63 18t45 46z" />
    <glyph glyph-name="cid00113" unicode="&#x301c;" horiz-adv-x="900" 
d="M739 340q-12 -19 -29.5 -36.5t-38 -31t-43 -22t-44.5 -8.5q-43 0 -73.5 9t-62.5 26q-26 14 -60.5 27t-71.5 13q-36 0 -63 -17.5t-45 -45.5l-47 31q12 19 29.5 36.5t38 31t43 22t44.5 8.5q44 0 74 -9t62 -26t63 -29t69 -12q36 0 63 18t45 46z" />
    <glyph glyph-name="cid00114" unicode="&#x2018;" horiz-adv-x="220" 
d="M50 628q0 57 27.5 101.5t83.5 64.5q5 2 7.5 1.5t4.5 -4.5l19 -35q4 -7 -4 -10q-58 -22 -68 -85h35q9 0 12 -2.5t3 -13.5v-84q0 -11 -3 -13.5t-12 -2.5h-90q-9 0 -12 2.5t-3 13.5v67z" />
    <glyph glyph-name="cid00115" unicode="&#x2019;" horiz-adv-x="220" 
d="M170 664q0 -57 -27.5 -101.5t-83.5 -64.5q-5 -2 -7.5 -1.5t-4.5 4.5l-19 35q-4 7 4 10q58 22 68 85h-35q-9 0 -12 2.5t-3 13.5v84q0 11 3 13.5t12 2.5h90q9 0 12 -2.5t3 -13.5v-67z" />
    <glyph glyph-name="cid00116" unicode="&#x201c;" horiz-adv-x="381" 
d="M50 628q0 57 27.5 101.5t83.5 64.5q5 2 7.5 1.5t4.5 -4.5l19 -35q4 -7 -4 -10q-58 -22 -68 -85h35q9 0 12 -2.5t3 -13.5v-84q0 -11 -3 -13.5t-12 -2.5h-90q-9 0 -12 2.5t-3 13.5v67zM211 628q0 57 27.5 101.5t83.5 64.5q5 2 7.5 1.5t4.5 -4.5l19 -35q4 -7 -4 -10
q-58 -22 -68 -85h35q9 0 12 -2.5t3 -13.5v-84q0 -11 -3 -13.5t-12 -2.5h-90q-9 0 -12 2.5t-3 13.5v67z" />
    <glyph glyph-name="cid00117" unicode="&#x201d;" horiz-adv-x="381" 
d="M331 664q0 -57 -27.5 -101.5t-83.5 -64.5q-5 -2 -7.5 -1.5t-4.5 4.5l-19 35q-4 7 4 10q58 22 68 85h-35q-9 0 -12 2.5t-3 13.5v84q0 11 3 13.5t12 2.5h90q9 0 12 -2.5t3 -13.5v-67zM170 664q0 -57 -27.5 -101.5t-83.5 -64.5q-5 -2 -7.5 -1.5t-4.5 4.5l-19 35q-4 7 4 10
q58 22 68 85h-35q-9 0 -12 2.5t-3 13.5v84q0 11 3 13.5t12 2.5h90q9 0 12 -2.5t3 -13.5v-67z" />
    <glyph glyph-name="cid00118" unicode="&#x3014;" horiz-adv-x="344" 
d="M314 -85l-35 -61l-244 135v624l244 136l35 -61l-205 -116v-540z" />
    <glyph glyph-name="cid00119" unicode="&#x3015;" horiz-adv-x="358" 
d="M315 -11l-243 -135l-35 61l204 116v541l-100 58q-26 15 -53.5 30t-50.5 29l35 60l243 -136v-624z" />
    <glyph glyph-name="cid00120" unicode="&#x3008;" horiz-adv-x="467" 
d="M430 -94l-51 -38l-341 434l340 434l52 -38l-312 -396z" />
    <glyph glyph-name="cid00121" unicode="&#x3009;" horiz-adv-x="477" 
d="M434 302l-340 -434l-53 38l312 395l-312 397l52 38z" />
    <glyph glyph-name="cid00122" unicode="&#x300a;" horiz-adv-x="496" 
d="M473 -130l-52 -29l-267 461l267 461l52 -30l-250 -431zM343 -130l-51 -29l-267 461l267 461l51 -30l-250 -431z" />
    <glyph glyph-name="cid00123" unicode="&#x300b;" horiz-adv-x="498" 
d="M470 302l-267 -461l-52 29l250 432q-22 39 -55.5 96.5t-69 118.5t-69 119t-56.5 97l52 30zM341 302l-267 -461l-52 29l249 432q-15 26 -35 60.5t-43 74t-46.5 80.5t-46.5 80.5t-43 74.5t-35 61l52 30z" />
    <glyph glyph-name="cid00124" unicode="&#x300c;" horiz-adv-x="363" 
d="M336 660h-225v-372h-84v445h309v-73z" />
    <glyph glyph-name="cid00125" unicode="&#x300d;" horiz-adv-x="369" 
d="M333 -132h-309v73h225v372h84v-445z" />
    <glyph glyph-name="cid00126" unicode="&#x300e;" horiz-adv-x="392" 
d="M301 643v36h-210v-337h40v301h170zM358 589h-170v-301h-153v445h323v-144z" />
    <glyph glyph-name="cid00127" unicode="&#x300f;" horiz-adv-x="388" 
d="M292 -78v336h-39v-299h-171v-37h210zM349 -132h-323v144h170v301h153v-445z" />
    <glyph glyph-name="cid00128" unicode="&#x3010;" horiz-adv-x="374" 
d="M24 -140v880h336q-55 -36 -99.5 -83.5t-76 -104.5t-48.5 -121t-17 -132t17 -132t48.5 -120.5t76.5 -104t100 -82.5h-337z" />
    <glyph glyph-name="cid00129" unicode="&#x3011;" horiz-adv-x="382" 
d="M352 -140h-337q55 35 99.5 82.5t76 104t48.5 120.5t17 132t-17 132t-48.5 121t-76 105t-99.5 84h337v-881z" />
    <glyph glyph-name="cid00130" unicode="&#xb1;" horiz-adv-x="625" 
d="M588 97v-73h-551v73h551zM351 636v-202h237v-72h-237v-208h-78v208h-236v72h236v202h78z" />
    <glyph glyph-name="cid00131" unicode="&#xd7;" horiz-adv-x="625" 
d="M137 55q-8 -8 -12.5 -7.5t-10.5 7.5l-48 48q-7 6 -7.5 10.5t7.5 12.5l181 181l-180 180q-8 8 -7.5 12.5t7.5 10.5l48 48q6 7 10.5 7.5t12.5 -7.5l180 -180l180 180q8 8 12.5 7.5t10.5 -7.5l48 -48q7 -6 7.5 -10.5t-7.5 -12.5l-180 -180l181 -181q8 -8 7.5 -12.5
t-7.5 -10.5l-48 -48q-6 -7 -10.5 -7.5t-12.5 7.5l-181 181z" />
    <glyph glyph-name="cid00132" unicode="&#xf7;" horiz-adv-x="625" 
d="M371 471q0 -11 -3 -13.5t-12 -2.5h-90q-9 0 -12 2.5t-3 13.5v84q0 11 3 13.5t12 2.5h90q9 0 12 -2.5t3 -13.5v-84zM571 357q11 0 14 -3.5t3 -12.5v-63q0 -9 -3 -12.5t-14 -3.5h-517q-11 0 -14 3.5t-3 12.5v63q0 9 3 12.5t14 3.5h517zM371 64q0 -11 -3 -13.5t-12 -2.5h-90
q-9 0 -12 2.5t-3 13.5v84q0 11 3 13.5t12 2.5h90q9 0 12 -2.5t3 -13.5v-84z" />
    <glyph glyph-name="cid00133" unicode="&#x2260;" horiz-adv-x="596" 
d="M255 179q-7 -11 -17.5 -28.5t-22 -35.5t-22.5 -35t-17 -27h-86l79 126h-138v76h187q6 9 16 23.5t20.5 31t21 32.5t16.5 26h-261v78h309l79 125h86l-80 -125h140v-78h-189q-7 -10 -16.5 -25t-19.5 -30.5l-20 -31t-17 -26.5h262v-76h-310z" />
    <glyph glyph-name="cid00134" unicode="&#x2264;" horiz-adv-x="625" 
d="M61 329v74q126 51 251 100.5t251 100.5v-82l-398 -156v-2l398 -154v-83zM63 18v72h500v-72h-500z" />
    <glyph glyph-name="cid00135" unicode="&#x2265;" horiz-adv-x="625" 
d="M61 18v72h500v-72h-500zM61 127v83q100 38 198.5 77t199.5 78v1l-398 156v82q126 -51 251 -100.5t251 -100.5v-74z" />
    <glyph glyph-name="cid00136" unicode="&#x221e;" horiz-adv-x="769" 
d="M192 221q22 0 41.5 8.5t37.5 21.5t34 29.5t31 31.5q-15 13 -30.5 29t-33 30t-37 23t-41.5 9q-19 0 -35.5 -7.5t-28.5 -20t-19 -29t-7 -34.5q0 -40 24.5 -65.5t62.5 -25.5h1zM577 221q38 0 62.5 26.5t24.5 64.5q0 39 -23.5 65t-61.5 26q-22 0 -42 -8.5t-38 -21.5
t-34.5 -29.5l-31.5 -31.5q15 -14 31 -30t33.5 -29.5t36.5 -22.5t42 -9h1zM574 149q-30 0 -56 10.5t-49 26.5t-44 36t-40 40q-21 -20 -42 -40.5t-45 -36.5t-51.5 -26t-60.5 -10q-35 0 -64 12t-50 34t-32.5 51.5t-11.5 65.5q0 33 12 62t34 51.5t52.5 35.5t67.5 13
q30 0 56.5 -10.5t49.5 -26.5t44 -36t41 -39q20 20 41 40t45 36t51.5 26t60.5 10q36 0 65 -12t50 -33.5t32.5 -51.5t11.5 -65q0 -33 -12.5 -62.5t-34.5 -52t-52.5 -35.5t-67.5 -13h-1z" />
    <glyph glyph-name="cid00137" unicode="&#x2234;" horiz-adv-x="657" 
d="M401 490q0 -32 -20.5 -51.5t-52.5 -19.5t-52.5 19.5t-20.5 51.5q0 31 20.5 50t52.5 19t52.5 -19t20.5 -50zM208 116q0 -32 -20.5 -51.5t-52.5 -19.5t-52.5 19.5t-20.5 51.5q0 31 20.5 50t52.5 19t52.5 -19t20.5 -50zM594 116q0 -32 -20.5 -51.5t-52.5 -19.5t-52.5 19.5
t-20.5 51.5q0 31 20.5 50t52.5 19t52.5 -19t20.5 -50z" />
    <glyph glyph-name="cid00138" unicode="&#xb0;" horiz-adv-x="343" 
d="M172 666q-20 0 -35 -8t-25 -21t-15.5 -29.5t-5.5 -33.5q0 -36 23.5 -61t58.5 -25q36 0 59.5 26t23.5 64q0 15 -5 30.5t-15 28.5t-26 21t-37 8h-1zM175 722q34 0 61 -12t46 -32t29 -45.5t10 -53.5q0 -33 -12.5 -60.5t-33.5 -46.5t-47.5 -29.5t-54.5 -10.5q-33 0 -60 11.5
t-46.5 31t-30 45t-10.5 54.5q0 31 11.5 58.5t31.5 47t47 31t58 11.5h1z" />
    <glyph glyph-name="cid00139" unicode="&#x2032;" horiz-adv-x="459" 
d="M199 741l121 1l-129 -272h-69z" />
    <glyph glyph-name="cid00140" unicode="&#x2033;" horiz-adv-x="515" 
d="M323 741h121l-128 -271h-69zM141 741h120l-128 -271h-69z" />
    <glyph glyph-name="cid00141" unicode="&#x2103;" horiz-adv-x="827" 
d="M571 -42q-73 0 -132.5 21t-102 65t-65.5 111.5t-23 160.5v25q0 99 27 166.5t73 109t107.5 60t129.5 18.5q60 0 104 -11t78 -28v-90q-45 17 -86.5 27.5t-94.5 10.5q-47 0 -87.5 -13.5t-70 -43t-46 -76.5t-16.5 -115v-39q0 -131 52.5 -199.5t170.5 -68.5q65 0 108.5 14
t77.5 30v-89q-38 -22 -88.5 -34t-115.5 -12zM124 696q-22 0 -35.5 -17t-13.5 -40q0 -20 13.5 -35.5t35.5 -15.5q23 0 37 15t14 38t-14 39t-37 16zM126 736q46 0 74 -28t28 -69q0 -39 -29 -65.5t-74 -26.5q-46 0 -74.5 27t-28.5 65q0 40 28 68.5t76 28.5z" />
    <glyph glyph-name="cid00142" unicode="&#x212b;" horiz-adv-x="661" 
d="M319 753q-21 0 -34 -16t-13 -38q0 -18 13.5 -33.5t34.5 -15.5q22 0 35.5 15t13.5 36q0 22 -13.5 37t-35.5 15h-1zM322 798q48 0 76.5 -28.5t28.5 -70.5q0 -40 -30 -67.5t-76 -27.5q-23 0 -42.5 7.5t-33.5 20.5t-22 30t-8 37q0 42 29 70.5t77 28.5h1zM400 235l-81 197h-1
l-79 -197h161zM214 142l-71 -178h-112l244 585h92l243 -585h-113l-74 178h-209z" />
    <glyph glyph-name="cid00143" unicode="&#xa2;" horiz-adv-x="466" 
d="M210 -27q-85 18 -132 83t-47 177v17q0 71 20 123t55 86.5t82.5 51t103.5 16.5q2 16 5.5 32.5t5.5 33.5h72q-2 -18 -5.5 -36.5t-5.5 -35.5q23 -5 42 -12.5t36 -16.5v-82q-24 9 -44.5 16t-45.5 11q-16 -99 -30.5 -195t-28.5 -195h10q52 0 87.5 13t56.5 21v-73
q-26 -18 -64.5 -30.5t-95.5 -12.5h-7l-16 -115h-73zM138 237q0 -72 21 -115t63 -61q15 96 29 191t28 189q-66 -4 -103.5 -49.5t-37.5 -127.5v-27z" />
    <glyph glyph-name="cid00143" unicode="&#xffe0;" horiz-adv-x="466" 
d="M210 -27q-85 18 -132 83t-47 177v17q0 71 20 123t55 86.5t82.5 51t103.5 16.5q2 16 5.5 32.5t5.5 33.5h72q-2 -18 -5.5 -36.5t-5.5 -35.5q23 -5 42 -12.5t36 -16.5v-82q-24 9 -44.5 16t-45.5 11q-16 -99 -30.5 -195t-28.5 -195h10q52 0 87.5 13t56.5 21v-73
q-26 -18 -64.5 -30.5t-95.5 -12.5h-7l-16 -115h-73zM138 237q0 -72 21 -115t63 -61q15 96 29 191t28 189q-66 -4 -103.5 -49.5t-37.5 -127.5v-27z" />
    <glyph glyph-name="cid00144" unicode="&#xa3;" horiz-adv-x="552" 
d="M46 375h81v102q0 64 20 109t53.5 74t76.5 42.5t88 13.5q49 0 86 -9.5t61 -23.5v-82q-15 6 -29 10.5t-28 7.5t-30.5 4.5t-36.5 1.5q-29 0 -56 -7t-48 -24t-33.5 -47t-12.5 -76v-96h189v-79h-189v-53q0 -69 -18 -107.5t-54 -67.5v-2h353v-91h-481v80q45 25 67 66t22 113v62
h-81v79z" />
    <glyph glyph-name="cid00144" unicode="&#xffe1;" horiz-adv-x="552" 
d="M46 375h81v102q0 64 20 109t53.5 74t76.5 42.5t88 13.5q49 0 86 -9.5t61 -23.5v-82q-15 6 -29 10.5t-28 7.5t-30.5 4.5t-36.5 1.5q-29 0 -56 -7t-48 -24t-33.5 -47t-12.5 -76v-96h189v-79h-189v-53q0 -69 -18 -107.5t-54 -67.5v-2h353v-91h-481v80q45 25 67 66t22 113v62
h-81v79z" />
    <glyph glyph-name="cid00145" unicode="&#xa5;" horiz-adv-x="619" 
d="M258 118h-169v81h169v70h-169v83h145l-204 351h119l166 -301h5l168 301h107l-204 -351h147v-83h-171v-70h171v-81h-171v-143h-109v143z" />
    <glyph glyph-name="cid00145" unicode="&#xffe5;" horiz-adv-x="619" 
d="M258 118h-169v81h169v70h-169v83h145l-204 351h119l166 -301h5l168 301h107l-204 -351h147v-83h-171v-70h171v-81h-171v-143h-109v143z" />
    <glyph glyph-name="cid00146" unicode="&#x2642;" horiz-adv-x="776" 
d="M123 261q0 -42 15.5 -79.5t42.5 -66t64 -45t80 -16.5q42 0 78.5 16.5t64 45t43 66t15.5 79.5t-15.5 79.5t-43 65.5t-64 44.5t-78.5 16.5q-43 0 -80 -16.5t-64 -44.5t-42.5 -65.5t-15.5 -79.5zM42 261q0 58 22 109.5t60 90t90 60.5t111 22q50 0 92.5 -15t79.5 -44l114 114
h-105v72h229v-228h-73v106l-115 -115q29 -36 44.5 -79t15.5 -93q0 -59 -22 -110.5t-60.5 -89.5t-90 -60.5t-109.5 -22.5q-59 0 -111 22.5t-90 60.5t-60 89.5t-22 110.5z" />
    <glyph glyph-name="cid00147" unicode="&#x2640;" horiz-adv-x="652" 
d="M124 465q0 -42 15.5 -79.5t42.5 -66t64 -45t80 -16.5q42 0 78.5 16.5t64 45t43 66t15.5 79.5t-15.5 79.5t-43 65.5t-64 44.5t-78.5 16.5q-43 0 -80 -16.5t-64 -44.5t-42.5 -65.5t-15.5 -79.5zM289 185q-52 7 -97 31t-78 61t-52 85t-19 103q0 58 22 110t60 90t90 60.5
t111 22.5q58 0 110 -22.5t90 -60.5t60.5 -90t22.5 -110q0 -55 -19 -103.5t-52 -85.5t-78 -61t-97 -30v-130h143v-73h-143v-140h-74v140h-144v73h144v130z" />
    <glyph glyph-name="cid00148" unicode="&#x2220;" horiz-adv-x="900" 
d="M762 -6h-624v53l479 558l59 -49l-421 -488h507v-74z" />
    <glyph glyph-name="cid00149" unicode="&#x22a5;" horiz-adv-x="900" 
d="M775 -6h-650v77h286v511h78v-511h286v-77z" />
    <glyph glyph-name="cid00150" unicode="&#x2312;" horiz-adv-x="900" 
d="M638 572q-26 47 -73.5 79t-119.5 32t-121 -32t-75 -79h-75q19 37 45 67.5t59 52.5t74 34t91 12q51 0 92 -12t74 -34t58.5 -52.5t45.5 -67.5h-75z" />
    <glyph glyph-name="cid00151" unicode="&#x2202;" horiz-adv-x="541" 
d="M238 67q32 0 59 17t47.5 45.5t34 65.5t18.5 77q-7 18 -19 34.5t-29.5 29.5t-39 21t-46.5 8q-29 0 -54 -12.5t-43.5 -34.5t-29 -52.5t-10.5 -65.5q0 -63 31.5 -98t80.5 -35zM51 679q26 18 71 37t111 19q55 0 105.5 -24t88.5 -70t60.5 -114t22.5 -155q0 -97 -23 -170
t-62 -122t-90.5 -73.5t-107.5 -24.5q-53 0 -92 19t-64.5 49.5t-38 69.5t-12.5 79q0 52 17 97.5t47 79.5t71 53.5t89 19.5q31 0 57.5 -8t47 -20.5t35 -28t22.5 -29.5h1q1 7 1 14.5v15.5q0 62 -15 109.5t-40.5 80t-59 49.5t-69.5 17q-48 0 -82 -13t-59 -27z" />
    <glyph glyph-name="cid00152" unicode="&#x2207;" horiz-adv-x="900" 
d="M854 606l-404 -639l-404 639h808zM723 534h-546l273 -437z" />
    <glyph glyph-name="cid00153" unicode="&#x2261;" horiz-adv-x="660" 
d="M56 281v67h547v-67h-547zM56 434v66h547v-66h-547zM56 127v66h547v-66h-547z" />
    <glyph glyph-name="cid00154" unicode="&#x2252;" horiz-adv-x="660" 
d="M412 85q0 25 18 43.5t44 18.5t44 -18.5t18 -43.5q0 -26 -18 -44.5t-44 -18.5t-44 18.5t-18 44.5zM121 540q0 26 18.5 44.5t43.5 18.5q26 0 44.5 -18.5t18.5 -44.5t-18.5 -44t-44.5 -18q-25 0 -43.5 18t-18.5 44zM56 427h547v-66h-547v66zM56 266h547v-66h-547v66z" />
    <glyph glyph-name="cid00155" unicode="&#xa7;" horiz-adv-x="524" 
d="M306 351q-25 8 -48.5 14.5t-48.5 15.5q-41 -7 -61.5 -29.5t-20.5 -54.5q0 -27 10 -44t31.5 -29t55 -22t79.5 -24q3 -2 6.5 -2t6.5 -2q42 8 63 30.5t21 54.5q0 37 -20.5 56.5t-73.5 35.5zM244 -164q-57 0 -100.5 11t-78.5 30v84q18 -8 35.5 -14.5t37 -11.5t42.5 -8t52 -3
q63 0 93 21t30 60q0 18 -3.5 31t-13.5 22t-27 16.5t-44 15.5q-48 15 -91.5 28.5t-76.5 33.5t-52.5 52t-19.5 83q0 53 25 85t73 49q-23 19 -37 49t-14 74q0 38 13.5 70t40 54.5t66 35t92.5 12.5q58 0 93 -11.5t62 -24.5v-83q-25 11 -63 21.5t-87 10.5q-54 0 -85 -19t-31 -56
q0 -18 3 -31t11.5 -22.5t22.5 -16.5t36 -14q61 -20 108.5 -34.5t80.5 -34.5t50 -50.5t17 -81.5q0 -56 -26 -88t-71 -49q54 -38 54 -119q0 -85 -56.5 -131t-160.5 -46z" />
    <glyph glyph-name="cid00156" unicode="&#x203b;" 
d="M849 -13l-62 -60l-324 320q-81 -81 -161.5 -160t-161.5 -160l-61 59q82 79 164.5 157.5t164.5 158.5l-327 317l57 61l324 -323l327 323l57 -60l-327 -318zM244 301q0 -15 -6.5 -29.5t-18 -26t-27 -18t-32.5 -6.5q-16 0 -31 6.5t-27 17.5t-19 25.5t-7 30.5q0 17 7 32
t18.5 26t26.5 17.5t31 6.5t31.5 -6.5t27.5 -17.5t19 -26t7 -32zM544 604q0 -16 -6.5 -30.5t-18 -26t-26.5 -18t-32 -6.5t-32 6.5t-26.5 18t-18.5 26t-7 30.5q0 33 24.5 57t58.5 24q17 0 32.5 -6.5t27 -17.5t18 -26t6.5 -31zM865 301q0 -16 -6.5 -30.5t-18 -25t-26.5 -17
t-32 -6.5t-32 6.5t-26 17t-18 25t-7 30.5q0 17 6.5 32t18 26t26 17.5t30.5 6.5q35 0 60 -23.5t25 -58.5zM544 -10q0 -32 -24 -55.5t-59 -23.5q-17 0 -32 6.5t-26 17t-18 25t-7 30.5q0 33 24 56.5t58 23.5q35 0 59.5 -23.5t24.5 -56.5z" />
    <glyph glyph-name="cid00157" unicode="&#x2606;" 
d="M461 586l-69 -209h-225l180 -133l-71 -211l185 129l179 -129l-66 211l179 133h-222zM573 433h350l-283 -210l106 -333l-284 201l-290 -201l111 333l-286 210h354l111 331z" />
    <glyph glyph-name="cid00158" unicode="&#x2605;" 
d="M573 433h350l-283 -210l106 -333l-284 201l-290 -201l111 333l-286 210h354l111 331z" />
    <glyph glyph-name="cid00159" unicode="&#x25cb;" 
d="M159 298q0 -62 23.5 -117t64 -95.5t95.5 -64t117 -23.5q63 0 117.5 23.5t95.5 64t64.5 95.5t23.5 117t-23.5 116.5t-64.5 95.5t-95.5 65t-117.5 24q-62 0 -117 -24t-95.5 -65t-64 -95.5t-23.5 -116.5zM89 298q0 76 29 144t79 118t117.5 79.5t144.5 29.5t144.5 -29.5
t118 -79.5t79.5 -118t29 -144q0 -77 -29 -145t-79.5 -118t-118 -79t-144.5 -29t-144.5 29t-117.5 79t-79 118t-29 145z" />
    <glyph glyph-name="cid00160" unicode="&#x25cf;" 
d="M89 298q0 76 29 144t79 118t117.5 79.5t144.5 29.5t144.5 -29.5t118 -79.5t79.5 -118t29 -144q0 -77 -29 -145t-79.5 -118t-118 -79t-144.5 -29t-144.5 29t-117.5 79t-79 118t-29 145z" />
    <glyph glyph-name="cid00161" unicode="&#x25ce;" 
d="M304 298q0 -32 12 -60.5t33 -49.5t49.5 -33t60.5 -12q33 0 61.5 12t49.5 33t33 49.5t12 60.5t-12 60.5t-33 49.5t-49.5 33.5t-61.5 12.5q-32 0 -60.5 -12.5t-49.5 -33.5t-33 -49.5t-12 -60.5zM240 298q0 45 17 85t47 69.5t70 47t85 17.5t85 -17.5t70 -47t47 -69.5t17 -85
t-17 -85t-47 -70t-70 -47t-85 -17t-85 17t-70 47t-47 70t-17 85zM160 298q0 -62 23.5 -116.5t64 -95t95 -64t116.5 -23.5t116.5 23.5t95 64t64 95t23.5 116.5q0 61 -23.5 115.5t-64 95t-95 64.5t-116.5 24t-116.5 -24t-95 -64.5t-64 -95t-23.5 -115.5zM89 298q0 76 29 144
t79 118t117.5 79.5t144.5 29.5t144.5 -29.5t118 -79.5t79.5 -118t29 -144q0 -77 -29 -145t-79.5 -118t-118 -79t-144.5 -29t-144.5 29t-117.5 79t-79 118t-29 145z" />
    <glyph glyph-name="cid00162" unicode="&#x25c7;" 
d="M460 602l-304 -303l304 -305l303 304zM460 701l402 -403l-402 -403l-403 403z" />
    <glyph glyph-name="cid00163" unicode="&#x25c6;" 
d="M57 299l403 402l403 -403l-402 -403z" />
    <glyph glyph-name="cid00164" unicode="&#x25a1;" 
d="M174 582v-569h570v569h-570zM104 653h711v-711h-711v711z" />
    <glyph glyph-name="cid00165" unicode="&#x25a0;" 
d="M104 -58v711h712v-711h-712z" />
    <glyph glyph-name="cid00166" unicode="&#x25b3;" 
d="M733 4l-275 550l-275 -550h550zM80 -58l380 756l380 -756h-760z" />
    <glyph glyph-name="cid00167" unicode="&#x25b2;" 
d="M81 -58l379 755l379 -755h-758z" />
    <glyph glyph-name="cid00168" unicode="&#x25bd;" 
d="M185 591l275 -551l275 551h-550zM840 653l-380 -755l-380 755h760z" />
    <glyph glyph-name="cid00169" unicode="&#x25bc;" 
d="M839 653l-379 -755l-379 755h758z" />
    <glyph glyph-name="cid00170" unicode="&#x2192;" horiz-adv-x="750" 
d="M0 374h564l-76 129l15 17l212 -176l-212 -176l-15 17l76 128h-564v61z" />
    <glyph glyph-name="cid00171" unicode="&#x2190;" horiz-adv-x="750" 
d="M750 313h-564l76 -128l-15 -17l-212 176l212 176l15 -17l-76 -129h564v-61z" />
    <glyph glyph-name="cid00172" unicode="&#x2191;" horiz-adv-x="586" 
d="M263 -7v564l-129 -76l-17 15l176 212l176 -212l-17 -15l-129 76v-564h-60z" />
    <glyph glyph-name="cid00173" unicode="&#x2193;" horiz-adv-x="586" 
d="M323 694v-563l129 75l17 -15l-176 -212l-176 212l17 15l129 -75v563h60z" />
    <glyph glyph-name="cid00174" unicode="&#x2194;" horiz-adv-x="819" 
d="M233 185l-16 -17l-212 176l212 176l16 -17l-77 -129h506l-77 129l16 17l212 -176l-212 -176l-16 17l77 128h-506z" />
    <glyph glyph-name="cid00175" unicode="&#x3013;" horiz-adv-x="856" 
d="M780 393h-660v38h660v-38zM780 193h-660v38h660v-38z" />
    <glyph glyph-name="cid00176" unicode="&#xab;" 
d="M818 13l-32 -54l-492 320v47l483 330l39 -51l-444 -302zM606 9l-35 -54l-489 324v47l481 335l39 -53l-442 -306z" />
    <glyph glyph-name="cid00176" unicode="&#x226a;" 
d="M818 13l-32 -54l-492 320v47l483 330l39 -51l-444 -302zM606 9l-35 -54l-489 324v47l481 335l39 -53l-442 -306z" />
    <glyph glyph-name="cid00177" unicode="&#xbb;" 
d="M815 279l-489 -324l-35 54l446 293l-441 306l38 53l481 -335v-47zM603 279l-492 -320l-32 54l446 289l-444 303l39 51l483 -330v-47z" />
    <glyph glyph-name="cid00177" unicode="&#x226b;" 
d="M815 279l-489 -324l-35 54l446 293l-441 306l38 53l481 -335v-47zM603 279l-492 -320l-32 54l446 289l-444 303l39 51l483 -330v-47z" />
    <glyph glyph-name="cid00178" unicode="&#x221a;" horiz-adv-x="568" 
d="M358 -130h-74l-163 432l-76 -31l-22 52l151 62l122 -340q6 -17 11 -36t8 -33h2q3 13 6.5 32.5t8.5 37.5l183 751h78z" />
    <glyph glyph-name="cid00179" unicode="&#x223d;" 
d="M839 316q0 -39 -14 -74t-38.5 -62t-59 -42.5t-75.5 -15.5q-32 0 -63 12t-62 34l33 54q24 -17 46 -24.5t46 -7.5q26 0 47.5 9.5t37.5 26.5t24.5 40t8.5 50q0 24 -8.5 46t-24 39.5t-37 28t-47.5 10.5q-55 0 -91 -35t-70 -99q-12 -23 -30.5 -54.5t-45.5 -60t-65 -48.5
t-89 -20q-35 0 -68.5 12t-59.5 36t-42 60.5t-16 84.5q0 46 15.5 82t41.5 60.5t59 37t69 12.5q35 0 66.5 -12.5t60.5 -30.5l-33 -56q-23 14 -44.5 21.5t-42.5 7.5q-55 0 -88 -34t-33 -88q0 -55 31.5 -89t88.5 -34q37 0 65 16.5t49 41t36 52t26 48.5q16 30 36 58.5t45.5 50.5
t57 35t69.5 13q41 0 75.5 -16t59.5 -42.5t39 -61.5t14 -72z" />
    <glyph glyph-name="cid00180" unicode="&#x221d;" 
d="M303 193q30 0 54 11t43 29t33.5 39.5t26.5 42.5q-12 21 -26.5 42.5t-34 39.5t-43 29.5t-53.5 11.5q-54 0 -86.5 -34t-32.5 -88q0 -56 30.5 -89.5t88.5 -33.5zM771 408q-20 14 -42 23t-42 9q-51 0 -87.5 -33t-68.5 -92q32 -59 68 -92t88 -33q17 0 36.5 6t39.5 17l32 -58
q-27 -16 -54.5 -24.5t-53.5 -8.5q-33 0 -61 10.5t-52 27.5t-43.5 40t-35.5 49q-14 -22 -32 -44.5t-41.5 -40.5t-54 -29.5t-68.5 -11.5q-35 0 -68.5 12t-60 36t-42.5 60t-16 85q0 46 16 82t42 60.5t59.5 37t68.5 12.5q39 0 69 -11.5t54 -30t42 -41.5t32 -45q16 25 35.5 48.5
t43.5 41t52 28t61 10.5q30 0 60 -12t59 -32z" />
    <glyph glyph-name="cid00181" unicode="&#x2235;" horiz-adv-x="657" 
d="M401 114q0 -31 -20.5 -50t-52.5 -19t-52.5 19t-20.5 50q0 32 20.5 51.5t52.5 19.5t52.5 -19.5t20.5 -51.5zM208 488q0 -31 -20.5 -50t-52.5 -19t-52.5 19t-20.5 50q0 32 20.5 51.5t52.5 19.5t52.5 -19.5t20.5 -51.5zM594 488q0 -31 -20.5 -50t-52.5 -19t-52.5 19
t-20.5 50q0 32 20.5 51.5t52.5 19.5t52.5 -19.5t20.5 -51.5z" />
    <glyph glyph-name="cid00182" unicode="&#x222b;" horiz-adv-x="336" 
d="M308 713q-8 2 -16 3t-17 1q-14 0 -26.5 -6t-20.5 -18q-14 -19 -20.5 -55t-6.5 -102q0 -113 6.5 -234t6.5 -240q0 -73 -11.5 -119t-30.5 -71q-18 -29 -46 -43t-60 -14q-18 0 -34.5 3.5t-24.5 7.5l13 67q7 -2 16.5 -4t20.5 -2q27 0 45 21q6 8 11.5 20t9.5 29.5t6.5 43
t2.5 60.5q0 120 -7 243.5t-7 238.5q0 79 13.5 126t42.5 78q39 40 97 40q14 0 27.5 -2.5t21.5 -5.5z" />
    <glyph glyph-name="cid00183" unicode="&#x222c;" horiz-adv-x="573" 
d="M544 713q-8 2 -16 3t-16 1q-14 0 -26.5 -6t-20.5 -18q-15 -19 -21.5 -55t-6.5 -102q0 -113 6.5 -234t6.5 -240q0 -73 -11.5 -119t-29.5 -71q-19 -29 -47 -43t-60 -14q-18 0 -34.5 3.5t-24.5 7.5l13 67q8 -2 17 -4t20 -2q27 0 45 21q6 8 11.5 20t9.5 29.5t6.5 43t2.5 60.5
q0 120 -7 243.5t-7 238.5q0 79 14 126t43 78q18 20 43 30t53 10q15 0 28 -2.5t20 -5.5zM305 713q-8 2 -15.5 3t-16.5 1q-31 0 -47 -24q-14 -19 -21 -55t-7 -102q0 -113 7 -234t7 -240q0 -73 -12 -119t-30 -71q-19 -29 -46.5 -43t-59.5 -14q-19 0 -35 3.5t-24 7.5l13 67
q7 -2 16.5 -4t20.5 -2q26 0 44 21q7 8 12.5 20t9.5 29.5t6.5 43t2.5 60.5q0 120 -7 243.5t-7 238.5q0 79 13.5 126t42.5 78q19 20 44 30t53 10q14 0 27.5 -2.5t21.5 -5.5z" />
    <glyph glyph-name="cid00184" unicode="&#x2208;" 
d="M772 278h-608q10 -59 57.5 -97.5t142.5 -38.5h410v-83h-406q-76 0 -131 20.5t-91 56t-53.5 83t-17.5 101.5q0 51 16.5 95.5t51.5 78.5t89.5 53.5t131.5 19.5h410v-83h-410q-47 0 -81.5 -9.5t-58.5 -26.5t-38 -40t-20 -49h606v-81z" />
    <glyph glyph-name="cid00185" unicode="&#x220b;" 
d="M118 360h605q-6 25 -20 48t-37.5 39.5t-58 26.5t-80.5 10h-410v83h410q76 0 130.5 -20t90 -53.5t52 -78.5t16.5 -95q0 -53 -17.5 -100.5t-53.5 -83t-91.5 -56.5t-131.5 -21h-405v83h410q47 0 82 10.5t59 28.5t38 43t19 54h-607v82z" />
    <glyph glyph-name="cid00186" unicode="&#x2286;" 
d="M772 -6h-661v82h661v-82zM774 547h-410q-56 0 -94.5 -11.5t-62.5 -32t-34.5 -47.5t-10.5 -57q0 -35 11 -63.5t35.5 -49t63 -32t92.5 -11.5h410v-83h-406q-76 0 -131 18.5t-91 51t-53.5 77t-17.5 95.5q0 48 16.5 89t51.5 72t89.5 48.5t131.5 17.5h410v-82z" />
    <glyph glyph-name="cid00187" unicode="&#x2287;" 
d="M117 629h410q76 0 130.5 -17.5t90 -48.5t52 -72t16.5 -89q0 -51 -17.5 -95.5t-53.5 -77t-91.5 -51t-131.5 -18.5h-405v83h410q54 0 92.5 11.5t62.5 32t35 49t11 63.5q0 30 -10.5 57t-34.5 47.5t-62.5 32t-93.5 11.5h-410v82zM118 76h662v-82h-662v82z" />
    <glyph glyph-name="cid00188" unicode="&#x2282;" 
d="M774 478h-410q-56 0 -94.5 -13t-62.5 -34.5t-34.5 -51t-10.5 -62.5q0 -36 11 -67t35.5 -53.5t63 -35.5t92.5 -13h410v-83h-406q-76 0 -131 20t-91 54.5t-53.5 81t-17.5 99.5q0 50 16.5 94t51.5 76.5t89.5 51.5t131.5 19h410v-83z" />
    <glyph glyph-name="cid00189" unicode="&#x2283;" 
d="M117 561h410q76 0 130.5 -19t90 -51.5t52 -76.5t16.5 -94q0 -53 -17.5 -99.5t-53.5 -81t-91.5 -54.5t-131.5 -20h-405v83h410q54 0 92.5 13t62.5 35.5t35 53.5t11 67q0 33 -10.5 62.5t-34.5 51t-62.5 34.5t-93.5 13h-410v83z" />
    <glyph glyph-name="cid00190" unicode="&#x222a;" horiz-adv-x="656" 
d="M162 644v-410q0 -56 13 -95t35.5 -63.5t51.5 -36t62 -11.5q36 0 67.5 11.5t54 36.5t35.5 64t13 94v410h87v-405q0 -76 -20.5 -131.5t-56 -92t-83 -54t-100.5 -17.5q-50 0 -94.5 16.5t-78.5 52t-53.5 90t-19.5 131.5v410h87z" />
    <glyph glyph-name="cid00191" unicode="&#x2229;" horiz-adv-x="656" 
d="M328 644q54 0 100 -17.5t79.5 -53.5t53 -91.5t19.5 -131.5v-406h-87v411q0 54 -12 93.5t-34 65t-52.5 37.5t-66.5 12t-66.5 -12t-52.5 -37.5t-34 -65t-12 -93.5v-411h-87v406q0 76 19.5 131.5t53 91.5t79.5 53.5t100 17.5z" />
    <glyph glyph-name="cid00192" unicode="&#x2227;" 
d="M778 18l-60 -29l-268 518l-268 -518l-60 29l299 580h58z" />
    <glyph glyph-name="cid00193" unicode="&#x2228;" 
d="M778 576l-299 -579h-58l-299 579l60 29l268 -518l268 518z" />
    <glyph glyph-name="cid00194" unicode="&#xac;" 
d="M886 -157h-66v258h-806v64h872v-322z" />
    <glyph glyph-name="cid00194" unicode="&#xffe2;" 
d="M886 -157h-66v258h-806v64h872v-322z" />
    <glyph glyph-name="cid00195" unicode="&#x21d2;" horiz-adv-x="948" 
d="M938 299l-273 -275l-41 40l112 113h-731v58h788l67 64l-67 65h-788v58h730l-111 111l41 40z" />
    <glyph glyph-name="cid00196" unicode="&#x21d4;" horiz-adv-x="940" 
d="M856 299l-67 65h-643l-67 -65l67 -64h643zM934 299l-273 -275l-41 40l112 113h-529l112 -113l-41 -40l-273 275l273 274l41 -40l-111 -111h527l-111 111l41 40z" />
    <glyph glyph-name="cid00197" unicode="&#x2200;" horiz-adv-x="900" 
d="M772 682l-251 -730h-136l-248 730h115l70 -216h258l72 216h120zM450 44l109 336h-215l105 -336h1z" />
    <glyph glyph-name="cid00198" unicode="&#x2203;" horiz-adv-x="900" 
d="M260 378h305v214h-323v92h433v-731h-447v92h337v242h-305v91z" />
    <glyph glyph-name="cid00199" unicode="&#xb4;" horiz-adv-x="519" 
d="M297 744h116l-111 -153h-92z" />
    <glyph glyph-name="cid00200" unicode="&#x2dc;" horiz-adv-x="519" 
d="M96 607q6 63 37 91t67 28q17 0 32.5 -6t29.5 -12.5t26.5 -12.5t23.5 -6q31 0 37 38h69q-3 -31 -13 -53.5t-24.5 -36.5t-31.5 -21t-35 -7q-17 0 -32.5 5.5t-29.5 12.5t-26.5 12.5t-23.5 5.5q-30 0 -37 -38h-69z" />
    <glyph glyph-name="cid00201" unicode="&#x2c7;" horiz-adv-x="519" 
d="M411 743q-27 -38 -53.5 -76t-53.5 -76h-90q-27 38 -53.5 76t-53.5 76h81q18 -20 36 -39.5t36 -38.5l69 78h82z" />
    <glyph glyph-name="cid00202" unicode="&#x2d8;" horiz-adv-x="519" 
d="M259 597q-63 0 -101.5 37.5t-41.5 98.5h79q4 -29 19 -45t45 -16q32 0 46.5 16t19.5 45h77q-2 -61 -41 -98.5t-102 -37.5z" />
    <glyph glyph-name="cid00203" unicode="&#x2dd;" horiz-adv-x="519" 
d="M337 744h109l-73 -153h-86zM165 744h109l-72 -153h-87z" />
    <glyph glyph-name="cid00204" unicode="&#x2da;" horiz-adv-x="519" 
d="M259 580q-22 0 -41 8t-33 21.5t-22 31.5t-8 38q0 42 29.5 71t74.5 29q23 0 42 -8t33 -21.5t22 -31.5t8 -39q0 -20 -8 -38t-22 -31.5t-33 -21.5t-42 -8zM259 629q23 0 37 13.5t14 36.5t-14 37.5t-37 14.5t-36 -14.5t-13 -37.5t13 -36.5t36 -13.5z" />
    <glyph glyph-name="cid00205" unicode="&#x2d9;" horiz-adv-x="519" 
d="M206 720h107v-102h-107v102z" />
    <glyph glyph-name="cid00206" unicode="&#xb8;" horiz-adv-x="519" 
d="M212 -139q57 5 81.5 14.5t24.5 26.5q0 20 -20 26.5t-63 6.5v98h62v-49q49 -3 76 -21.5t27 -53.5q0 -47 -42 -72.5t-146 -33.5v58z" />
    <glyph glyph-name="cid00207" unicode="&#x2db;" horiz-adv-x="519" 
d="M268 -196q-54 0 -84.5 24t-30.5 66q0 22 8.5 40.5t22 33.5t29.5 26.5t31 19.5h76q-32 -26 -54 -52t-22 -53q0 -23 15 -30t37 -7q11 0 19.5 1t13.5 3v-62q-11 -4 -26 -7t-35 -3z" />
    <glyph glyph-name="cid00208" unicode="&#xa1;" horiz-adv-x="426" 
d="M145 713h117v-115h-117v115zM156 491h95l13 -543h-122z" />
    <glyph glyph-name="cid00209" unicode="&#xbf;" horiz-adv-x="446" 
d="M321 595h-117v115h117v-115zM313 437q0 -28 -7 -48.5t-21 -38t-34 -35t-47 -38.5q-34 -28 -48.5 -62.5t-14.5 -79.5q0 -55 33 -77t93 -22q47 0 77.5 7.5t63.5 18.5v-82q-36 -16 -76 -24t-93 -8q-44 0 -82.5 10t-67 31.5t-45.5 56t-17 83.5q0 34 6 61t19 51t33.5 46
t49.5 46q19 15 34 27.5t25.5 25t15.5 26.5t5 33v43h98v-51z" />
    <glyph glyph-name="cid00210" unicode="&#x2d0;" 
d="M317 503l-93 -97l-92 97h185zM317 99h-185l92 96z" />
    <glyph glyph-name="cid00210" unicode="&#x2236;" 
d="M317 503l-93 -97l-92 97h185zM317 99h-185l92 96z" />
    <glyph glyph-name="cid00211" unicode="&#x222e;" horiz-adv-x="900" 
d="M424 412q-32 -12 -53.5 -41.5t-25.5 -71.5q-4 -45 14 -75t53 -40q4 52 6 116q1 30 2.5 57.5t3.5 54.5zM563 299q4 43 -16.5 76t-60.5 41q-4 -52 -6 -116q-1 -32 -2.5 -61t-5.5 -56q38 9 62.5 40t28.5 76zM615 635q-8 19 -20.5 29.5t-30.5 10.5q-22 0 -42.5 -59.5
t-32.5 -168.5q27 -3 50.5 -14t41 -29.5t26.5 -45t6 -59.5q-3 -32 -15.5 -57.5t-32 -44.5t-44.5 -30t-52 -15q-14 -113 -43 -185q-17 -39 -41 -63t-54 -24q-63 0 -94 60l45 26q9 -19 21.5 -30t30.5 -11q22 0 43 59t32 169q-25 4 -47 15.5t-38 30t-24 43.5t-5 57
q3 31 14.5 55.5t29.5 42.5t41 30t48 17q14 115 44 189q17 39 40.5 63t54.5 24q65 0 96 -64z" />
    <glyph glyph-name="cid00212" unicode="&#x2211;" horiz-adv-x="582" 
d="M571 -40h-550v68l263 297l-250 286v77h512v-92h-364v-2l231 -266l-243 -272v-4h401v-92z" />
    <glyph glyph-name="cid00213" unicode="&#x220f;" horiz-adv-x="696" 
d="M568 596v-636h-104v636h-232v-636h-104v636h-113v92h666v-92h-113z" />
    <glyph glyph-name="cid00214" unicode="&#xa4;" horiz-adv-x="882" 
d="M813 575l-118 -105q21 -35 33 -76.5t12 -87.5q0 -48 -14 -93t-40 -83q4 -3 22.5 -19.5t40 -35.5t40 -36t21.5 -20l-55 -62l-124 113q-41 -35 -92.5 -55t-108.5 -20q-54 0 -103 17.5t-90 49.5q-3 -3 -21 -19t-39 -34t-39 -33.5t-21 -18.5l-55 62l117 104
q-27 38 -43.5 84.5t-16.5 98.5q0 47 13 89.5t37 80.5q-3 3 -19.5 17.5t-35 32t-35 32t-19.5 17.5l59 59l105 -94q41 35 94 56t112 21q62 0 115 -23t96 -61q3 3 19.5 18t36 32.5t36.5 32.5t20 18zM662 306q0 48 -18.5 90.5t-50 74t-73.5 49.5t-90 18t-90.5 -18t-74 -49.5
t-49.5 -74t-18 -90.5t18 -90.5t49.5 -74t74 -49.5t90.5 -18t90 18t73.5 49.5t50 74t18.5 90.5z" />
    <glyph glyph-name="cid00215" unicode="&#x2109;" horiz-adv-x="905" 
d="M787 576h-298v-211h271v-92h-270v-311h-110v706h407v-92zM308 605q0 -12 -3 -22q-8 -31 -35 -50.5t-63 -19.5q-44 0 -73 27t-29 65q0 40 28.5 68.5t73.5 28.5t73 -28t28 -69zM258 607v7t-1 7q-4 17 -17.5 29.5t-33.5 12.5q-22 0 -37 -17.5t-15 -40.5q0 -20 15 -37t37 -17
q23 0 37.5 16.5t14.5 39.5z" />
    <glyph glyph-name="cid00216" unicode="&#x2030;" 
d="M870 146q0 -91 -33 -141t-93 -50q-62 0 -95 50t-33 141t32.5 141t94.5 50q61 0 94 -50t33 -141zM177 662q61 0 93.5 -50t32.5 -141q1 -92 -32 -142t-93 -50q-61 0 -94 50t-33 141t32.5 141.5t93.5 50.5zM578 680l-425 -743h-68l427 743h66zM603 146q0 -91 -33 -141
t-94 -50q-60 0 -93 50t-33 141t32.5 141t93.5 50t94 -50t33 -141zM801 146q0 27 -3.5 50t-10 40.5t-17.5 27.5t-26 10t-26.5 -10t-19 -27.5t-11 -40.5t-3.5 -50t3.5 -50t10.5 -40.5t18.5 -27.5t26.5 -10t26 10t18 27.5t10.5 40.5t3.5 50zM236 470q0 27 -3.5 50t-10.5 40.5
t-18 27.5t-26 10t-26 -10t-18.5 -27.5t-11 -40.5t-3.5 -50t3.5 -50t10.5 -40.5t18 -27.5t26 -10t26 10.5t18.5 28.5t11 41t3.5 48zM535 146q0 27 -3.5 50t-10.5 40.5t-18.5 27.5t-26.5 10t-26 -10t-18 -27.5t-10.5 -40.5t-3.5 -50t3.5 -50t10.5 -40.5t18 -27.5t26 -10t26 10
t18.5 27.5t11 40.5t3.5 50z" />
    <glyph glyph-name="cid00217" unicode="&#x25c1;" 
d="M789 -102l-639 402l639 404v-806zM731 3v596l-475 -299z" />
    <glyph glyph-name="cid00218" unicode="&#x25c0;" 
d="M789 -102l-639 402l639 404v-806z" />
    <glyph glyph-name="cid00219" unicode="&#x25b7;" 
d="M789 300l-639 -402v806zM683 300l-475 299v-596z" />
    <glyph glyph-name="cid00220" unicode="&#x25b6;" 
d="M789 300l-639 -402v806z" />
    <glyph glyph-name="cid00221" unicode="&#x2664;" 
d="M737 210q0 35 -26.5 87.5t-66 111t-86.5 118t-88 109.5q-41 -50 -88 -109.5t-87 -118t-66 -111t-26 -87.5q0 -17 5 -36.5t15.5 -35.5t27.5 -26.5t42 -10.5q21 0 40 8t35 18t28.5 18t20.5 8q19 0 25 -10.5t4 -34.5q-3 -31 -10.5 -65.5t-21.5 -78.5q-5 -17 18 -18
q8 0 17.5 -0.5t20.5 -0.5q10 0 20 0.5t18 0.5q21 2 17 18q-13 44 -20.5 78.5t-10.5 65.5q-2 24 4 34.5t24 10.5q9 0 21.5 -8t28.5 -18t35 -18t40 -8q24 0 41.5 10.5t28 26.5t15.5 35.5t5 36.5zM809 197q0 -34 -10.5 -62.5t-29 -49.5t-45 -32.5t-59.5 -11.5q-31 0 -60 13
t-68 36q1 -20 5.5 -45t12 -52t16.5 -52.5t19 -45.5q9 -19 -14 -22q-20 -2 -49 -4t-57 -2q-31 0 -58.5 2t-48.5 4q-24 3 -14 22q10 22 19 47.5t16 51.5t12 50.5t7 45.5q-40 -23 -68.5 -36t-59.5 -13q-33 0 -59.5 11.5t-45 32.5t-29 49.5t-10.5 62.5q0 45 31 107.5t79.5 134
t109 147.5t119.5 150q59 -74 119.5 -150t109 -147.5t79.5 -134t31 -107.5z" />
    <glyph glyph-name="cid00222" unicode="&#x2660;" 
d="M809 197q0 -34 -10.5 -62.5t-29 -49.5t-45 -32.5t-59.5 -11.5q-31 0 -60 13t-68 36q1 -20 5.5 -45t12 -52t16.5 -52.5t19 -45.5q9 -19 -14 -22q-20 -2 -49 -4t-57 -2q-31 0 -58.5 2t-48.5 4q-24 3 -14 22q10 22 19 47.5t16 51.5t12 50.5t7 45.5q-40 -23 -68.5 -36
t-59.5 -13q-33 0 -59.5 11.5t-45 32.5t-29 49.5t-10.5 62.5q0 45 31 107.5t79.5 134t109 147.5t119.5 150q59 -74 119.5 -150t109 -147.5t79.5 -134t31 -107.5z" />
    <glyph glyph-name="cid00223" unicode="&#x2661;" 
d="M758 460q0 33 -9 60.5t-27 48t-45 32t-63 11.5q-23 0 -40.5 -11.5t-30.5 -29t-22 -38t-15 -39.5q-5 -17 -12.5 -33t-23.5 -16q-17 0 -24 16t-12 33q-6 19 -15 39.5t-22.5 38t-31 29t-39.5 11.5q-37 0 -64 -11.5t-45 -32t-27 -48t-9 -60.5q0 -56 28 -119.5t71 -127.5
t94 -123t96 -106q45 47 96 106t93.5 123t70.5 127.5t28 119.5zM832 484q0 -49 -16.5 -102.5t-44.5 -107t-64.5 -106.5t-76.5 -102.5t-81.5 -93.5t-78.5 -80q-37 36 -78.5 80t-81.5 93.5t-76.5 102.5t-64.5 106.5t-44.5 106.5t-16.5 103q0 43 14 80t39 64.5t58.5 43
t71.5 15.5q66 0 111 -43.5t68 -143.5q23 100 67.5 143.5t110.5 43.5q38 0 71.5 -15.5t58.5 -43t39.5 -64.5t14.5 -80z" />
    <glyph glyph-name="cid00224" unicode="&#x2665;" 
d="M832 484q0 -49 -16.5 -102.5t-44.5 -107t-64.5 -106.5t-76.5 -102.5t-81.5 -93.5t-78.5 -80q-37 36 -78.5 80t-81.5 93.5t-76.5 102.5t-64.5 106.5t-44.5 106.5t-16.5 103q0 43 14 80t39 64.5t58.5 43t71.5 15.5q66 0 111 -43.5t68 -143.5q23 100 67.5 143.5t110.5 43.5
q38 0 71.5 -15.5t58.5 -43t39.5 -64.5t14.5 -80z" />
    <glyph glyph-name="cid00225" unicode="&#x2667;" 
d="M822 214q0 26 -9 49t-26 40.5t-40.5 27.5t-52.5 10q-24 0 -45 -6.5t-39 -14t-33.5 -13.5t-28.5 -6q-23 0 -38 14t-15 37q0 21 16 38t35 37.5t35 48t16 71.5q0 60 -36.5 91.5t-90.5 31.5q-27 0 -50 -8t-40.5 -23.5t-27.5 -38.5t-10 -53q0 -44 16 -71.5t34.5 -48
t34.5 -37.5t16 -38q0 -23 -14 -37t-37 -14q-13 0 -28.5 6t-33.5 13.5t-39 14t-45 6.5q-29 0 -52.5 -10t-40.5 -27.5t-26 -40.5t-9 -49q0 -28 9 -53t26.5 -43.5t42 -29t55.5 -10.5q36 0 61.5 14t45.5 31t36 31t32 14q11 0 13.5 -5t2.5 -16q0 -19 -4.5 -41t-10 -47.5
t-10 -55.5t-4.5 -65q0 -12 12 -13q11 -1 22 -1.5t23 -0.5q11 0 22.5 0.5t21.5 1.5q13 1 13 13q0 35 -4.5 65t-10 55.5t-10 47.5t-4.5 41q0 11 2.5 16t12.5 5q15 0 31.5 -14t36.5 -31t46.5 -31t61.5 -14q31 0 55.5 10.5t41.5 29t26.5 43.5t9.5 53zM883 207q0 -38 -12.5 -72.5
t-35.5 -61t-55 -42.5t-72 -16q-28 0 -53 8.5t-46.5 21t-38.5 27.5t-29 28q7 -18 14.5 -42.5t13 -52t9 -57.5t3.5 -58q0 -7 -5.5 -11t-12.5 -5q-13 -1 -20.5 -1.5t-16.5 -1t-21.5 -0.5h-34.5q-25 0 -46.5 0.5t-47.5 2.5q-7 1 -12.5 5t-5.5 11q0 28 3 58t8.5 57.5t13 52
t16.5 42.5q-12 -13 -29 -28t-38.5 -27.5t-46.5 -21t-53 -8.5q-40 0 -72 16t-55 42.5t-35.5 61t-12.5 72.5q0 36 12.5 70t35 59.5t54 41t68.5 15.5q35 0 66 -12t61 -26q8 -4 17 -3t12 6q5 8 1 16.5t-9 13.5q-24 22 -42 41t-29 39.5t-16.5 42.5t-5.5 50q0 38 15.5 69
t41.5 52.5t60 33.5t71 12t71 -12t60 -33.5t41.5 -52.5t15.5 -69q0 -28 -5.5 -50t-17 -42.5t-29 -39.5t-42.5 -41q-5 -5 -9 -13.5t1 -16.5q3 -5 12 -6t17 3q31 14 62 26t66 12q37 0 68.5 -15.5t54 -41t35 -59.5t12.5 -70z" />
    <glyph glyph-name="cid00226" unicode="&#x2663;" 
d="M883 207q0 -38 -12.5 -72.5t-35.5 -61t-55 -42.5t-72 -16q-28 0 -53 8.5t-46.5 21t-38.5 27.5t-29 28q7 -18 14.5 -42.5t13 -52t9 -57.5t3.5 -58q0 -7 -5.5 -11t-12.5 -5q-13 -1 -20.5 -1.5t-16.5 -1t-21.5 -0.5h-34.5q-25 0 -46.5 0.5t-47.5 2.5q-7 1 -12.5 5t-5.5 11
q0 28 3 58t8.5 57.5t13 52t16.5 42.5q-12 -13 -29 -28t-38.5 -27.5t-46.5 -21t-53 -8.5q-40 0 -72 16t-55 42.5t-35.5 61t-12.5 72.5q0 36 12.5 70t35 59.5t54 41t68.5 15.5q35 0 66 -12t61 -26q8 -4 17 -3t12 6q5 8 1 16.5t-9 13.5q-24 22 -42 41t-29 39.5t-16.5 42.5
t-5.5 50q0 38 15.5 69t41.5 52.5t60 33.5t71 12t71 -12t60 -33.5t41.5 -52.5t15.5 -69q0 -28 -5.5 -50t-17 -42.5t-29 -39.5t-42.5 -41q-5 -5 -9 -13.5t1 -16.5q3 -5 12 -6t17 3q31 14 62 26t66 12q37 0 68.5 -15.5t54 -41t35 -59.5t12.5 -70z" />
    <glyph glyph-name="cid00227" unicode="&#x2299;" 
d="M874 299q0 -84 -32 -157.5t-86.5 -128t-128 -86.5t-157.5 -32q-83 0 -156 32t-128.5 86.5t-87.5 128t-32 157.5t32 157.5t87.5 128t128.5 86.5t156 32q84 0 157.5 -32t128 -86.5t86.5 -128t32 -157.5zM809 299q0 70 -27 131.5t-73 107.5t-107.5 73t-131.5 27t-131.5 -27
t-107.5 -73t-72.5 -107.5t-26.5 -131.5t26.5 -131.5t72.5 -107.5t107.5 -72.5t131.5 -26.5t131.5 26.5t107.5 72.5t73 107.5t27 131.5zM628 299q0 -33 -12.5 -62t-33.5 -50t-50 -33.5t-62 -12.5q-32 0 -61 12.5t-50.5 33.5t-34 50t-12.5 62t12.5 62t34 50t50.5 33.5t61 12.5
q33 0 62 -12.5t50 -33.5t33.5 -50t12.5 -62z" />
    <glyph glyph-name="cid00227" unicode="&#x25c9;" 
d="M874 299q0 -84 -32 -157.5t-86.5 -128t-128 -86.5t-157.5 -32q-83 0 -156 32t-128.5 86.5t-87.5 128t-32 157.5t32 157.5t87.5 128t128.5 86.5t156 32q84 0 157.5 -32t128 -86.5t86.5 -128t32 -157.5zM809 299q0 70 -27 131.5t-73 107.5t-107.5 73t-131.5 27t-131.5 -27
t-107.5 -73t-72.5 -107.5t-26.5 -131.5t26.5 -131.5t72.5 -107.5t107.5 -72.5t131.5 -26.5t131.5 26.5t107.5 72.5t73 107.5t27 131.5zM628 299q0 -33 -12.5 -62t-33.5 -50t-50 -33.5t-62 -12.5q-32 0 -61 12.5t-50.5 33.5t-34 50t-12.5 62t12.5 62t34 50t50.5 33.5t61 12.5
q33 0 62 -12.5t50 -33.5t33.5 -50t12.5 -62z" />
    <glyph glyph-name="cid00228" unicode="&#x25c8;" 
d="M920 298l-451 -450l-449 449l450 451zM856 298l-386 385l-387 -386l386 -386zM739 297l-269 -269l-270 269l270 269z" />
    <glyph glyph-name="cid00229" unicode="&#x25a3;" 
d="M855 -87h-770v769h770v-769zM806 -38v671h-672v-671h672zM701 66h-462v462h462v-462z" />
    <glyph glyph-name="cid00230" unicode="&#x25d0;" 
d="M868 299q0 -83 -31.5 -155.5t-85.5 -126.5t-126.5 -85t-154.5 -31q-81 0 -153.5 31t-127 85t-86 126.5t-31.5 155.5q0 82 31.5 154.5t86 126.5t127 85.5t153.5 31.5q82 0 154.5 -31.5t126.5 -85.5t85.5 -126.5t31.5 -154.5zM828 299q0 73 -28.5 138.5t-77 114t-114 77
t-138.5 28.5v-715q73 0 138.5 28t114 77t77 113.5t28.5 138.5z" />
    <glyph glyph-name="cid00231" unicode="&#x25d1;" 
d="M868 299q0 -83 -31.5 -155.5t-86 -126.5t-127 -85t-153.5 -31q-83 0 -155.5 31t-126.5 85t-85 126.5t-31 155.5q0 82 31 154.5t85 126.5t126.5 85.5t155.5 31.5q81 0 153.5 -31.5t127 -85.5t86 -126.5t31.5 -154.5zM470 657q-74 0 -139 -28.5t-113.5 -77t-77 -114
t-28.5 -138.5q0 -74 28.5 -138.5t77 -113.5t113.5 -77t139 -28v715z" />
    <glyph glyph-name="cid00232" unicode="&#x2592;" 
d="M849 -81h-758v757h758v-757zM816 -48v691h-692v-691h692zM783 587q0 -12 -7.5 -19t-18.5 -7q-26 0 -26 26q0 11 7 18.5t19 7.5q11 0 18.5 -7.5t7.5 -18.5zM687 587q0 -26 -25 -26q-26 0 -26 26q0 11 7 18.5t19 7.5q11 0 18 -7.5t7 -18.5zM783 491q0 -10 -7.5 -17.5
t-18.5 -7.5q-12 0 -19 7.5t-7 17.5q0 11 7 18.5t19 7.5q11 0 18.5 -7.5t7.5 -18.5zM687 491q0 -10 -7 -17.5t-18 -7.5q-12 0 -19 7.5t-7 17.5q0 11 7 18.5t19 7.5q11 0 18 -7.5t7 -18.5zM592 587q0 -12 -7.5 -19t-18.5 -7t-19 7t-8 19q0 11 8 18.5t19 7.5t18.5 -7.5
t7.5 -18.5zM783 396q0 -11 -7.5 -19t-18.5 -8q-12 0 -19 8t-7 19t7 18.5t19 7.5q11 0 18.5 -7.5t7.5 -18.5zM592 491q0 -10 -7.5 -17.5t-18.5 -7.5t-19 7.5t-8 17.5q0 11 8 18.5t19 7.5t18.5 -7.5t7.5 -18.5zM687 396q0 -11 -7 -19t-18 -8q-12 0 -19 8t-7 19t7 18.5t19 7.5
q11 0 18 -7.5t7 -18.5zM495 587q0 -26 -25 -26q-10 0 -18 7t-8 19q0 11 8 18.5t18 7.5q11 0 18 -7.5t7 -18.5zM783 300q0 -10 -7.5 -17.5t-18.5 -7.5q-12 0 -19 7.5t-7 17.5q0 26 26 26q11 0 18.5 -7.5t7.5 -18.5zM495 491q0 -10 -7 -17.5t-18 -7.5q-10 0 -18 7.5t-8 17.5
q0 11 8 18.5t18 7.5q11 0 18 -7.5t7 -18.5zM592 396q0 -11 -7.5 -19t-18.5 -8t-19 8t-8 19t8 18.5t19 7.5t18.5 -7.5t7.5 -18.5zM687 300q0 -10 -7 -17.5t-18 -7.5q-12 0 -19 7.5t-7 17.5q0 26 26 26q25 0 25 -26zM401 587q0 -12 -8 -19t-19 -7q-25 0 -25 26q0 11 7 18.5
t18 7.5t19 -7.5t8 -18.5zM783 204q0 -11 -7.5 -18.5t-18.5 -7.5q-12 0 -19 7.5t-7 18.5t7 19t19 8q11 0 18.5 -8t7.5 -19zM401 491q0 -10 -8 -17.5t-19 -7.5t-18 7.5t-7 17.5q0 11 7 18.5t18 7.5t19 -7.5t8 -18.5zM495 396q0 -11 -7 -19t-18 -8q-10 0 -18 8t-8 19t8 18.5
t18 7.5q11 0 18 -7.5t7 -18.5zM592 300q0 -10 -7.5 -17.5t-18.5 -7.5t-19 7.5t-8 17.5q0 11 8 18.5t19 7.5t18.5 -7.5t7.5 -18.5zM687 204q0 -11 -7 -18.5t-18 -7.5q-12 0 -19 7.5t-7 18.5t7 19t19 8q11 0 18 -8t7 -19zM305 587q0 -12 -7.5 -19t-18.5 -7t-18.5 7t-7.5 19
q0 11 7.5 18.5t18.5 7.5t18.5 -7.5t7.5 -18.5zM783 109q0 -11 -7.5 -18.5t-18.5 -7.5q-12 0 -19 7.5t-7 18.5t7 18t19 7q11 0 18.5 -7t7.5 -18zM209 587q0 -26 -25 -26q-11 0 -18.5 7t-7.5 19q0 11 7.5 18.5t18.5 7.5q12 0 18.5 -7.5t6.5 -18.5zM305 491q0 -10 -7.5 -17.5
t-18.5 -7.5t-18.5 7.5t-7.5 17.5q0 11 7.5 18.5t18.5 7.5t18.5 -7.5t7.5 -18.5zM401 396q0 -11 -8 -19t-19 -8t-18 8t-7 19t7 18.5t18 7.5t19 -7.5t8 -18.5zM495 300q0 -10 -7 -17.5t-18 -7.5q-10 0 -18 7.5t-8 17.5q0 11 8 18.5t18 7.5q25 0 25 -26zM592 204
q0 -11 -7.5 -18.5t-18.5 -7.5t-19 7.5t-8 18.5t8 19t19 8t18.5 -8t7.5 -19zM687 109q0 -11 -7 -18.5t-18 -7.5q-12 0 -19 7.5t-7 18.5t7 18t19 7q11 0 18 -7t7 -18zM783 13q0 -11 -7.5 -18.5t-18.5 -7.5q-12 0 -19 7.5t-7 18.5q0 26 26 26q11 0 18.5 -7t7.5 -19zM209 491
q0 -10 -6.5 -17.5t-18.5 -7.5q-11 0 -18.5 7.5t-7.5 17.5q0 11 7.5 18.5t18.5 7.5q12 0 18.5 -7.5t6.5 -18.5zM687 13q0 -11 -7 -18.5t-18 -7.5q-12 0 -19 7.5t-7 18.5q0 26 26 26q25 0 25 -26zM305 396q0 -11 -7.5 -19t-18.5 -8t-18.5 8t-7.5 19t7.5 18.5t18.5 7.5
t18.5 -7.5t7.5 -18.5zM401 300q0 -10 -8 -17.5t-19 -7.5t-18 7.5t-7 17.5q0 26 25 26q11 0 19 -7.5t8 -18.5zM495 204q0 -11 -7 -18.5t-18 -7.5q-10 0 -18 7.5t-8 18.5t8 19t18 8q11 0 18 -8t7 -19zM592 109q0 -11 -7.5 -18.5t-18.5 -7.5t-19 7.5t-8 18.5t8 18t19 7t18.5 -7
t7.5 -18zM209 396q0 -11 -6.5 -19t-18.5 -8q-11 0 -18.5 8t-7.5 19t7.5 18.5t18.5 7.5q12 0 18.5 -7.5t6.5 -18.5zM592 13q0 -11 -7.5 -18.5t-18.5 -7.5t-19 7.5t-8 18.5q0 12 8 19t19 7t18.5 -7t7.5 -19zM305 300q0 -10 -7.5 -17.5t-18.5 -7.5t-18.5 7.5t-7.5 17.5
q0 11 7.5 18.5t18.5 7.5t18.5 -7.5t7.5 -18.5zM401 204q0 -11 -8 -18.5t-19 -7.5t-18 7.5t-7 18.5t7 19t18 8t19 -8t8 -19zM495 109q0 -11 -7 -18.5t-18 -7.5q-10 0 -18 7.5t-8 18.5t8 18t18 7q11 0 18 -7t7 -18zM209 300q0 -10 -6.5 -17.5t-18.5 -7.5q-11 0 -18.5 7.5
t-7.5 17.5q0 11 7.5 18.5t18.5 7.5q25 0 25 -26zM495 13q0 -11 -7 -18.5t-18 -7.5q-10 0 -18 7.5t-8 18.5q0 12 8 19t18 7q25 0 25 -26zM305 204q0 -11 -7.5 -18.5t-18.5 -7.5t-18.5 7.5t-7.5 18.5t7.5 19t18.5 8t18.5 -8t7.5 -19zM401 109q0 -11 -8 -18.5t-19 -7.5t-18 7.5
t-7 18.5t7 18t18 7t19 -7t8 -18zM209 204q0 -11 -6.5 -18.5t-18.5 -7.5q-11 0 -18.5 7.5t-7.5 18.5t7.5 19t18.5 8q12 0 18.5 -8t6.5 -19zM401 13q0 -11 -8 -18.5t-19 -7.5t-18 7.5t-7 18.5q0 26 25 26q11 0 19 -7t8 -19zM305 109q0 -11 -7.5 -18.5t-18.5 -7.5t-18.5 7.5
t-7.5 18.5t7.5 18t18.5 7t18.5 -7t7.5 -18zM209 109q0 -11 -6.5 -18.5t-18.5 -7.5q-11 0 -18.5 7.5t-7.5 18.5t7.5 18t18.5 7q12 0 18.5 -7t6.5 -18zM305 13q0 -11 -7.5 -18.5t-18.5 -7.5t-18.5 7.5t-7.5 18.5q0 12 7.5 19t18.5 7t18.5 -7t7.5 -19zM209 13q0 -11 -6.5 -18.5
t-18.5 -7.5q-11 0 -18.5 7.5t-7.5 18.5q0 12 7.5 19t18.5 7q25 0 25 -26z" />
    <glyph glyph-name="cid00233" unicode="&#x25a4;" 
d="M849 -81h-758v757h758v-757zM816 573v70h-692v-70h692zM816 466v75h-692v-75h692zM816 366v68h-692v-68h692zM816 261v73h-692v-73h692zM816 155v74h-692v-74h692zM816 53v70h-692v-70h692zM816 -48v69h-692v-69h692z" />
    <glyph glyph-name="cid00234" unicode="&#x25a5;" 
d="M849 -81h-758v757h758v-757zM816 -48v691h-70v-691h70zM714 -48v691h-70v-691h70zM612 -48v691h-74v-691h74zM506 -48v691h-73v-691h73zM401 -48v691h-68v-691h68zM301 -48v691h-75v-691h75zM194 -48v691h-70v-691h70z" />
    <glyph glyph-name="cid00235" unicode="&#x25a8;" 
d="M849 -81h-758v757h758v-757zM816 499v120l-667 -667h120zM816 330v120l-498 -498h120zM816 160v121l-329 -329h121zM816 -48v159l-159 -159h159zM282 643h-158v-157zM453 643h-122l-207 -206v-122zM622 643h-120l-378 -377v-120zM790 643h-119l-547 -546v-120z" />
    <glyph glyph-name="cid00236" unicode="&#x25a7;" 
d="M849 -81h-758v757h758v-757zM816 486v157h-158zM816 315v122l-207 206h-122zM816 146v120l-378 377h-120zM816 -23v120l-547 546h-119zM791 -48l-667 667v-120l547 -547h120zM622 -48l-498 498v-120l378 -378h120zM453 -48l-329 329v-121l208 -208h121zM283 -48l-159 159
v-159h159z" />
    <glyph glyph-name="cid00237" unicode="&#x25a6;" 
d="M849 -81h-758v757h758v-757zM816 570v73h-73v-73h73zM816 467v73h-73v-73h73zM712 570v73h-73v-73h73zM816 364v73h-73v-73h73zM609 570v73h-73v-73h73zM712 467v73h-73v-73h73zM816 261v73h-73v-73h73zM506 570v73h-73v-73h73zM609 467v73h-73v-73h73zM712 364v73h-73
v-73h73zM816 158v73h-73v-73h73zM403 570v73h-73v-73h73zM506 467v73h-73v-73h73zM609 364v73h-73v-73h73zM712 261v73h-73v-73h73zM816 55v73h-73v-73h73zM300 570v73h-73v-73h73zM403 467v73h-73v-73h73zM506 364v73h-73v-73h73zM609 261v73h-73v-73h73zM712 158v73h-73
v-73h73zM816 -48v73h-73v-73h73zM197 570v73h-73v-73h73zM300 467v73h-73v-73h73zM403 364v73h-73v-73h73zM506 261v73h-73v-73h73zM609 158v73h-73v-73h73zM712 55v73h-73v-73h73zM712 -48v73h-73v-73h73zM197 467v73h-73v-73h73zM300 364v73h-73v-73h73zM403 261v73h-73
v-73h73zM506 158v73h-73v-73h73zM609 55v73h-73v-73h73zM609 -48v73h-73v-73h73zM197 364v73h-73v-73h73zM300 261v73h-73v-73h73zM403 158v73h-73v-73h73zM506 55v73h-73v-73h73zM506 -48v73h-73v-73h73zM197 261v73h-73v-73h73zM300 158v73h-73v-73h73zM403 55v73h-73v-73
h73zM403 -48v73h-73v-73h73zM197 158v73h-73v-73h73zM300 55v73h-73v-73h73zM300 -48v73h-73v-73h73zM197 55v73h-73v-73h73zM197 -48v73h-73v-73h73z" />
    <glyph glyph-name="cid00238" unicode="&#x25a9;" 
d="M849 -81h-758v757h758v-757zM816 486v135l-69 -68zM789 643h-131l65 -66zM791 461l-67 69l-62 -62l68 -68zM698 553l-65 65l-61 -60l66 -66zM610 643h-123l62 -61zM816 314v123l-61 -61zM524 558l-61 60l-60 -60l60 -60zM614 468l-66 65l-61 -60l67 -65zM706 377l-68 67
l-60 -60l67 -69zM791 291l-61 60l-60 -60l61 -60zM438 643h-120l60 -60zM816 146v120l-60 -60zM622 291l-69 68l-60 -60l68 -67zM354 558l-61 61l-60 -60l61 -60zM528 384l-65 65l-59 -60l65 -65zM707 206l-62 60l-59 -59l60 -61zM791 122l-60 60l-60 -60l60 -61zM438 473
l-61 61l-59 -60l61 -61zM269 643h-119l59 -59zM816 -23v120l-60 -60zM791 -48l-60 60l-60 -60h120zM184 559l-60 60v-120zM537 206l-68 70l-60 -62l67 -67zM269 474l-60 61l-60 -61l60 -60zM354 390l-60 60l-61 -60l61 -60zM443 299l-65 66l-60 -60l66 -65zM622 122l-60 60
l-60 -60l60 -61zM707 37l-61 60l-60 -60l60 -60zM622 -48l-60 60l-60 -60h120zM184 390l-60 60v-120zM269 305l-60 60l-60 -60l60 -60zM359 215l-65 66l-61 -61l66 -65zM453 122l-69 69l-61 -60l68 -70zM537 37l-60 60l-60 -60l60 -60zM184 220l-60 61v-120zM453 -48l-61 60
l-61 -60h122zM274 131l-65 65l-60 -60l65 -65zM367 38l-68 68l-61 -60l70 -69zM189 46l-65 65v-130zM283 -48l-69 70l-68 -70h137z" />
    <glyph glyph-name="cid00239" unicode="&#x2668;" 
d="M676 298q3 -38 -5 -68t-20.5 -54t-26 -43.5t-21.5 -35.5q-14 -26 -20.5 -45.5t-8.5 -28.5q-2 -6 -6.5 -8t-7.5 8q-3 7 -4.5 19t-1.5 26.5t2.5 29t7.5 26.5q9 23 18.5 51t15 58t4.5 60t-12 56q-17 39 -23.5 71t-5 60t9.5 54t19 53q8 17 11 37t3 33q0 9 4.5 11t9.5 -9
q8 -16 14 -51.5t-2 -94.5q-5 -35 0 -59t14 -45.5t18.5 -47t13.5 -63.5zM541 286q4 -23 -2 -50t-17.5 -54t-24 -50.5t-19.5 -38.5q-15 -29 -22 -46.5t-8 -28.5q-1 -9 -8 -8.5t-10 7.5q-7 17 -8 50t16 76q15 36 18.5 71.5t0.5 66t-9.5 53t-10.5 30.5q-20 47 -23 84t3.5 66.5
t18.5 53.5t23 45q14 30 18.5 54.5t4.5 40.5q0 11 5.5 10.5t10.5 -8.5q5 -11 9.5 -29t6 -40.5t-1 -47.5t-11.5 -50q-13 -37 -11.5 -67t10.5 -59t21 -60t20 -71zM397 260q3 -31 -14 -75t-43 -93q-13 -25 -18 -39.5t-6 -23.5t-6.5 -9.5t-10.5 9.5q-7 13 -10 39.5t9 59.5
q5 14 11 39.5t9 55.5t0.5 62.5t-13.5 60.5q-29 70 -19 134t41 121q18 30 24 61q2 8 7 7.5t7 -6.5q5 -15 6 -53t-16 -100q-6 -22 -2 -49.5t12 -59.5t17.5 -67.5t14.5 -73.5zM876 97q0 -47 -32.5 -86t-87.5 -67.5t-128 -44t-153 -15.5q-81 0 -155.5 13.5t-131.5 38t-91 58.5
t-34 75t25 72t59.5 53t70.5 35.5t57 19.5q11 4 13 -5t-11 -13q-4 -2 -26.5 -13t-47.5 -29t-45.5 -43.5t-20.5 -55.5q0 -26 30 -45.5t78.5 -32.5t109 -19.5t121.5 -6.5t121.5 8.5t108.5 25t78 39.5t30 52q0 21 -13 39.5t-32 33.5t-39 25t-34 14q-12 5 -9 12t14 5
q15 -2 44 -11.5t58 -27.5t51 -44t22 -60z" />
    <glyph glyph-name="cid00240" unicode="&#x260f;" 
d="M901 329q-6 -11 -20 -13.5t-33 -0.5t-40 7t-40 10q-32 9 -57.5 22.5t-29.5 32.5q-2 7 0 18t5.5 22.5t6 22t1.5 17.5q-4 21 -18.5 25t-34.5 5q-2 -12 -3 -23.5t0 -25t4 -31t11 -41.5q7 -27 16.5 -46t21.5 -34t25.5 -27.5t29.5 -25.5q26 -21 40.5 -45.5t21.5 -47.5
t8.5 -43.5t1.5 -35.5q8 -3 12.5 -12.5t7 -21.5t2.5 -25t-1 -23q-1 -9 -10 -12.5t-24 -3.5h-670q-15 0 -24 3.5t-10 12.5q-1 10 -1 23t2.5 25t7 21.5t12.5 12.5q0 15 1.5 35.5t8.5 43.5t21.5 47.5t40.5 45.5q16 13 29.5 25.5t25.5 27.5t21.5 34t16.5 46q7 24 10 41.5t4 31
t0 25t-2 23.5q-20 -1 -34.5 -5t-18.5 -25q-2 -7 0.5 -17.5t6 -22t6 -22.5t0.5 -18q-4 -19 -29.5 -32.5t-57.5 -22.5q-20 -5 -40.5 -10t-39.5 -7t-33 0.5t-20 13.5q-6 10 -8 29.5t1.5 42t12 45.5t22.5 41q25 32 68 55.5t97 38.5t115.5 22.5t122.5 7.5t122.5 -7.5t115.5 -22.5
t97 -38.5t68 -55.5q14 -18 22.5 -41t12 -45.5t1.5 -42t-8 -29.5zM537 437v58q-12 -5 -30.5 -7.5t-36.5 -2.5q-20 0 -37.5 2.5t-29.5 7.5v-58h134zM864 351q6 1 9 16.5t-1.5 38t-19 49t-42.5 48.5q-22 18 -63 32.5t-89.5 25t-98.5 16t-89 5.5q-52 0 -103.5 -5.5t-97 -16
t-82 -25t-58.5 -32.5q-29 -22 -43 -48t-18.5 -49t-1.5 -38.5t9 -16.5q19 -2 40 0.5t40.5 8.5t36 14t27.5 17q6 4 3.5 14.5t-6 24t-5 29t4.5 29.5q9 20 43.5 31.5t101.5 11.5q11 0 21.5 -2t24.5 -4q17 -4 31.5 -6.5t31.5 -2.5t31.5 2.5t31.5 6.5q13 2 24 4t22 2
q67 0 100.5 -11.5t43.5 -31.5q7 -14 5.5 -29.5t-5 -29t-6 -24t3.5 -14.5q10 -9 26.5 -17t36 -13.5t40.5 -8.5t40 -1zM791 8q3 0 4.5 8t0.5 18.5t-4.5 21.5t-10.5 16q0 11 -2.5 29t-7.5 37t-14 37t-22 30q-23 21 -39 36.5t-27.5 29t-20 27t-15.5 31.5q-17 49 -21.5 92
t-2.5 75h-39v-89h-200v89h-40q3 -32 -1.5 -75t-22.5 -92q-7 -18 -15 -31.5t-20 -27t-28 -29t-38 -36.5q-13 -12 -22 -30t-14 -37t-7.5 -37t-2.5 -29q-8 -5 -11.5 -16t-4 -21.5t1 -18.5t4.5 -8h642zM631 203q0 -33 -13 -62t-34.5 -51t-51 -35t-62.5 -13t-62.5 13t-51 35
t-34.5 51t-13 62t13 62.5t34.5 51t51 34.5t62.5 13t62.5 -13t51 -34.5t34.5 -51t13 -62.5zM593 203q0 26 -9.5 48.5t-26.5 39.5t-39.5 26.5t-47.5 9.5q-26 0 -48.5 -9.5t-39.5 -26.5t-26.5 -39.5t-9.5 -48.5t9.5 -48.5t26.5 -39t39.5 -26t48.5 -9.5q25 0 47.5 9.5t39.5 26
t26.5 39t9.5 48.5z" />
    <glyph glyph-name="cid00241" unicode="&#x260e;" 
d="M901 329q-6 -11 -20 -13.5t-33 -0.5t-40 7t-40 10q-32 9 -57.5 22.5t-29.5 32.5q-2 7 0.5 18t6.5 22.5t7 22t2 17.5q-4 21 -20 28t-36 10q-3 -23 -3 -52t15 -77q7 -27 16.5 -46t21.5 -34t25.5 -27.5t29.5 -25.5q26 -21 40.5 -45.5t21.5 -47.5t8.5 -43.5t1.5 -35.5
q8 -3 12.5 -12.5t7 -21.5t2.5 -25t-1 -23q-1 -9 -10 -12.5t-24 -3.5h-670q-15 0 -24 3.5t-10 12.5q-1 10 -1 23t2.5 25t7 21.5t12.5 12.5q0 15 1.5 35.5t8.5 43.5t21.5 47.5t40.5 45.5q16 13 29.5 25.5t25.5 27.5t21.5 34t16.5 46q14 48 14.5 77t-2.5 52q-20 -3 -36 -10
t-20 -28q-2 -7 1 -17.5t7 -22t7 -22.5t1 -18q-4 -19 -29.5 -32.5t-57.5 -22.5q-20 -5 -40.5 -10t-39.5 -7t-33 0.5t-20 13.5q-6 10 -8 29.5t1.5 42t12 46t22.5 41.5q25 32 68 55.5t97 38.5t115.5 22t122.5 7t122.5 -7t115.5 -22t97 -38.5t68 -55.5q14 -18 22.5 -41.5t12 -46
t1.5 -42t-8 -29.5zM550 442v66q-15 -4 -36 -7t-44 -3t-44 3t-36 7v-66h160zM620 206q0 31 -12 58.5t-32 47.5t-47.5 32t-58.5 12t-58.5 -12t-47.5 -32t-32 -47.5t-12 -58.5t12 -58t32 -47.5t47.5 -32t58.5 -11.5t58.5 11.5t47.5 32t32 47.5t12 58z" />
    <glyph glyph-name="cid00242" unicode="&#x261c;" 
d="M837 182h-78v21h-29q-27 -16 -66.5 -30.5t-105.5 -25.5q-19 -3 -46 -4t-55 -1t-53.5 1.5t-41.5 3.5q-19 3 -35.5 10t-21.5 24q-2 12 3 19.5t13 12.5q-14 0 -26 9.5t-13 24.5q-1 11 2.5 18t8.5 13q-14 2 -25.5 9t-11.5 24q0 23 19.5 32t64.5 9l-3 8q-24 1 -43.5 1.5l-39 1
t-41.5 1.5t-50 3q-22 1 -44.5 2t-41 5t-30 12.5t-11.5 24.5q0 13 9.5 20.5t25.5 11t38 5t48 3.5q14 1 45.5 2t72 1.5t86.5 1t88 0.5q33 0 66 -0.5t65.5 -5.5t62.5 -17.5t56 -36.5q17 -4 33 -5.5t28 -0.5v32h77v-240zM760 215v157q-8 -1 -21.5 0t-23.5 3q2 -7 3 -8
q2 -10 0 -10.5t-8 5.5q-8 10 -22.5 23t-36.5 27q-16 10 -42 16.5t-54 9.5t-53.5 3.5t-38.5 -1.5q-15 -2 -34 -8.5t-34 -16.5q-8 -5 -12.5 -12t-9.5 -15q-8 -19 -20 -25q-4 -5 3 -9t29 4q10 4 18.5 10.5t14.5 12.5t10 9.5t6 0.5q5 -5 -4 -16q8 -3 21 -4.5t21 0.5
q20 6 30.5 13.5t12.5 3.5q2 -5 -2.5 -12t-12.5 -12q6 -9 27.5 -25.5t53.5 -27.5q20 -7 37.5 -9.5t30 -4t19.5 -3t7 -5.5q0 -3 -9.5 -4t-23 0t-29 3.5t-27.5 5.5q-21 7 -38 16t-30 19t-21.5 18.5t-12.5 14.5q-5 -3 -11.5 -3.5t-12.5 -0.5q-14 1 -25.5 3t-16.5 4l-16 -13
q27 0 45.5 -6.5t21.5 -18.5q4 -14 0 -25t-12 -17q29 -7 32 -29q2 -14 -2.5 -20.5t-12.5 -11.5q29 -8 32 -29q3 -15 -3 -24t-10 -10q15 -3 36 0q79 7 126.5 25t79.5 39q3 3 5.5 3t1.5 -4l-2 -9h20zM410 440q-50 0 -116.5 -1t-135.5 -3q-50 -2 -77.5 -5.5t-27.5 -19.5
t24 -19.5t81 -7.5q63 -3 105.5 -5t84.5 -4q4 6 9 14t13 19t17 19t23 13zM821 198v207h-45v-207h45zM473 246q1 15 -6 20.5t-23 8.5q-7 1 -23.5 1h-35t-36 -0.5t-26.5 -0.5q-10 -2 -17 -9t-7 -17q0 -16 26 -20q5 -1 23.5 -2t39 -1h36.5h17q10 0 20.5 4.5t11.5 15.5zM490 192
q-1 11 -11.5 14.5t-20.5 3.5q-27 1 -59.5 1t-55.5 -2q-11 -1 -15.5 -8.5t-2.5 -15.5q1 -6 5.5 -11.5t12.5 -7.5q27 -5 59 -5.5t57 1.5q34 1 31 30zM449 316q0 6 -4.5 11.5t-15.5 6.5q-38 2 -71.5 3t-65.5 -3q-10 -2 -15 -8.5t-4 -14.5q0 -7 5 -13t15 -6q16 -1 35 -1h37.5
t35.5 1t29 2q8 2 13.5 6.5t5.5 15.5z" />
    <glyph glyph-name="cid00243" unicode="&#x261e;" 
d="M864 411q0 -16 -11.5 -24.5t-30 -12.5t-41 -5t-44.5 -2q-28 -2 -50 -3t-41.5 -1.5l-39 -1t-43.5 -1.5l-3 -8q45 0 64.5 -9t19.5 -32q0 -17 -11.5 -24t-25.5 -9q5 -6 8.5 -13t2.5 -18q-1 -15 -13 -24.5t-26 -9.5q8 -5 13 -12.5t3 -19.5q-5 -17 -21.5 -24t-35.5 -10
q-16 -2 -41.5 -3.5t-53.5 -1.5t-55 1t-46 4q-66 11 -105.5 25.5t-66.5 30.5h-29v-21h-78v240h77v-32q12 -1 28 0.5t33 5.5q26 24 56 36.5t62.5 17.5t65.5 5.5t66 0.5q42 0 88 -0.5t86.5 -1t72 -1.5t45.5 -2q25 -2 47.5 -3.5t38.5 -5t25.5 -11t9.5 -20.5zM547 363
q-12 6 -20 25q-5 8 -9.5 15t-12.5 12q-15 10 -34 16.5t-34 8.5q-14 2 -39 1.5t-53 -3.5t-54 -9.5t-42 -16.5q-22 -14 -36.5 -27t-22.5 -23q-6 -6 -8 -5.5t0 10.5q2 2 2 3.5t1 4.5q-10 -2 -23.5 -3t-21.5 0v-157h20l-2 9q-1 4 1.5 4t5.5 -3q16 -11 35.5 -21t44 -18.5
t55.5 -15t71 -9.5q21 -3 35 0q-2 2 -8.5 10.5t-3.5 23.5q3 21 32 29q-8 5 -12.5 11.5t-2.5 20.5q2 11 9.5 18t22.5 11q-8 6 -12 17t0 25q4 12 22 18.5t45 6.5l-16 13q-5 -2 -16.5 -4t-25.5 -3q-6 0 -12.5 0.5t-11.5 3.5q-4 -6 -12.5 -14.5t-21.5 -18.5t-30 -19t-38 -16
q-12 -3 -27.5 -5.5t-29 -3.5t-23 0t-9.5 4q0 4 7 5.5t19.5 3t30 4t37.5 9.5q32 11 53.5 27.5t27.5 25.5q-8 5 -12.5 12t-2.5 12q2 4 12.5 -3.5t30.5 -13.5q8 -2 21 -0.5t21 4.5q-9 11 -4 16q2 3 6 -0.5t10 -9.5t14 -12.5t19 -10.5q22 -8 29 -4t3 9zM847 411q0 16 -27.5 19.5
t-77.5 5.5q-69 2 -135.5 3t-116.5 1q14 -5 23 -13t17 -19t13 -19t9 -14q42 2 84.5 4t105.5 5q57 4 81 7.5t24 19.5zM124 198v207h-45v-207h45zM601 249q0 10 -7 17t-17 9q-9 0 -26.5 0.5t-36.5 0.5h-35t-23 -1q-15 -3 -22.5 -8.5t-6.5 -20.5q1 -11 11.5 -15.5t20.5 -4.5h17
h36.5t39 1t23.5 2q26 4 26 20zM575 185q2 8 -2.5 15.5t-15.5 8.5q-23 2 -55.5 2t-59.5 -1q-10 0 -20.5 -3.5t-11.5 -14.5q-3 -29 31 -30q25 -2 57 -1.5t59 5.5q8 2 12.5 7.5t5.5 11.5zM627 311q1 8 -4 14.5t-15 8.5q-32 4 -65.5 3t-71.5 -3q-11 -1 -15.5 -6.5t-4.5 -11.5
q0 -11 5.5 -15.5t13.5 -6.5q12 -1 29 -2t35.5 -1h37.5t35 1q10 0 15 6t5 13z" />
    <glyph glyph-name="cid00244" unicode="&#xb6;" horiz-adv-x="600" 
d="M289 327h-48q-42 0 -79.5 12t-66 35.5t-45.5 58.5t-17 81q0 39 12.5 73t41 60t74.5 41t112 15h248v-854h-73v789h-86v-789h-73v478z" />
    <glyph glyph-name="cid00245" unicode="&#x2020;" horiz-adv-x="499" 
d="M201 411h-166v89h166v203h98v-203h165v-89h-165v-508h-98v508z" />
    <glyph glyph-name="cid00246" unicode="&#x2021;" horiz-adv-x="505" 
d="M38 313h166v98h-166v89h166v203h98v-203h164v-89h-164v-98h164v-88h-164v-322h-98v322h-166v88z" />
    <glyph glyph-name="cid00247" unicode="&#x2195;" horiz-adv-x="586" 
d="M323 557v-426l129 75l17 -15l-176 -212l-176 212l17 15l129 -75v426l-129 -76l-17 15l176 212l176 -212l-17 -15z" />
    <glyph glyph-name="cid00248" unicode="&#x2197;" horiz-adv-x="805" 
d="M42 25l593 592l-145 37l-1 24l274 25l-25 -274l-24 1l-37 145l-593 -593z" />
    <glyph glyph-name="cid00249" unicode="&#x2199;" horiz-adv-x="806" 
d="M764 663l-594 -592l145 -38l2 -24l-275 -25l25 275l24 -2l38 -145l593 593z" />
    <glyph glyph-name="cid00250" unicode="&#x2196;" horiz-adv-x="805" 
d="M721 -18l-593 593l-37 -145l-24 -1l-25 274l274 -25l-1 -24l-145 -37l593 -592z" />
    <glyph glyph-name="cid00251" unicode="&#x2198;" horiz-adv-x="806" 
d="M84 705l593 -593l38 145l24 2l25 -275l-275 25l2 24l145 38l-594 592z" />
    <glyph glyph-name="cid00252" unicode="&#x266d;" horiz-adv-x="517" 
d="M344 227q0 55 -19.5 92.5t-53.5 37.5q-29 0 -49.5 -12t-34.5 -30t-20.5 -39t-6.5 -39v-219q30 2 62.5 14t59.5 37t44.5 63.5t17.5 94.5zM421 265q0 -86 -31.5 -142.5t-80 -90t-105.5 -47.5t-108 -17v679h64v-335q6 16 16 33t26.5 31.5t41 23.5t59.5 9q24 0 45.5 -10
t37.5 -29t25.5 -45.5t9.5 -59.5z" />
    <glyph glyph-name="cid00253" unicode="&#x2669;" horiz-adv-x="388" 
d="M290 111q0 -44 -6.5 -72.5t-29.5 -54.5q-14 -17 -32.5 -30.5t-38.5 -20.5t-38.5 -5t-32.5 18t-14.5 35t8 38.5t24 36.5t34.5 28q39 22 87 29v556h39v-558z" />
    <glyph glyph-name="cid00254" unicode="&#x266a;" horiz-adv-x="539" 
d="M483 340q0 -31 -9 -63t-31 -65q-20 -30 -50.5 -59t-58.5 -46q-11 -7 -14.5 -1t4.5 14q13 13 30.5 32t33.5 44t26.5 55t10.5 65q0 33 -19 57t-47 40.5t-58.5 27t-52.5 17.5v-347q0 -44 -7 -72.5t-29 -54.5q-14 -17 -32.5 -30.5t-38.5 -20.5t-38.5 -5t-32.5 18t-14.5 35
t8 38.5t24 36.5t34.5 28q39 22 87 29v510q0 14 1 27.5t8 13.5t13 -5t19 -19q13 -16 28 -32.5t43 -40.5q44 -38 74.5 -69.5t50 -58.5t28.5 -51.5t9 -47.5z" />
    <glyph glyph-name="cid00255" unicode="&#x266c;" horiz-adv-x="693" 
d="M603 490v59l-354 -75v-60zM644 189q0 -35 -20 -66t-49 -55q-13 -11 -29.5 -20t-33.5 -12.5t-32.5 0t-27.5 18.5q-9 12 -8 27.5t8 32t18.5 31.5t25.5 25q29 21 54 27.5t53 10.5v186l-354 -77v-227q0 -35 -19.5 -66t-48.5 -55q-14 -11 -30.5 -20t-33.5 -12.5t-32.5 0
t-27.5 18.5q-9 12 -8 27.5t8 32t18.5 31.5t25.5 25q29 21 54.5 27.5t52.5 10.5v455l436 88v-463z" />
    <glyph glyph-name="cid00256" unicode="&#x327f;" horiz-adv-x="900" 
d="M669 80h-113l-168 193l-4 -5v-188h-86v462h86v-175l147 171h106l-192 -215zM776 445q-40 96 -127 155q-45 30 -94 46t-105 16q-133 1 -237 -89q-100 -88 -121 -220h126v-73h-201v21q0 178 127 305q64 64 140 95t166 32q138 0 251 -80q108 -78 156 -208h-81zM884 301
q0 -180 -127 -307q-128 -126 -307 -126q-153 0 -271 96t-151 241l79 1q16 -58 46.5 -106t78.5 -85q93 -75 218 -75q144 0 248 98q105 100 112 242h-199v73h270q3 -26 3 -52z" />
    <glyph glyph-name="cid00257" unicode="&#x321c;" horiz-adv-x="915" 
d="M516 553q6 -28 26.5 -53t50.5 -45.5t68 -35t80 -21.5q8 -2 8.5 -6t-2.5 -9l-30 -51q-4 -6 -6.5 -6.5t-10.5 1.5q-39 6 -76 21t-68 34.5t-55.5 42.5t-37.5 47q-14 -24 -38 -47t-55.5 -42.5t-68.5 -34.5t-76 -21q-8 -2 -11 -2t-6 7l-30 51q-3 5 -2.5 9t8.5 6q41 7 79 21.5
t68 35t50.5 45.5t26.5 53h-187q-9 0 -11.5 2.5t-2.5 9.5v54q0 7 2.5 9.5t11.5 2.5h483q9 0 11.5 -2.5t2.5 -9.5v-54q0 -7 -2.5 -9.5t-11.5 -2.5h-188zM716 -153q25 43 44.5 96.5t33 112t20 118.5t6.5 116v29q0 60 -7.5 120t-21.5 116.5t-33 107t-42 90.5q-4 7 -2.5 11.5
t9.5 4.5h44q11 0 19 -10q27 -34 50 -86t39 -112.5t25 -125.5t9 -125v-19q0 -66 -9.5 -131t-26 -123.5t-39.5 -109t-50 -88.5q-3 -5 -7.5 -6.5t-9.5 -1.5h-44q-8 0 -9.5 4.5t2.5 11.5zM203 -153q4 -7 2.5 -11.5t-9.5 -4.5h-44q-5 0 -9.5 1.5t-7.5 6.5q-27 38 -50 88.5
t-39.5 109t-26 123.5t-9.5 131v19q0 60 9 125t25 125.5t39 112.5t50 86q5 6 9.5 8t9.5 2h44q8 0 9.5 -4.5t-2.5 -11.5q-23 -40 -42 -90.5t-33 -107t-21.5 -116.5t-7.5 -120v-29q0 -56 6.5 -116t20 -118.5t32.5 -112t45 -96.5zM761 258q9 0 11 -3t2 -10v-53q0 -8 -2 -10.5
t-11 -2.5h-255v-233q0 -9 -2.5 -11t-10.5 -2h-67q-8 0 -10 2t-2 11v233h-254q-10 0 -11.5 2.5t-1.5 10.5v53q0 7 1.5 10t11.5 3h601z" />
    <glyph glyph-name="cid00258" unicode="&#x2116;" horiz-adv-x="900" 
d="M855 -39q-15 0 -25 11t-9 28q0 17 10 27t25 10q17 0 26.5 -10t9.5 -27t-10 -28t-27 -11zM652 10q30 0 48.5 22t29 55t14.5 70.5t4 69.5q0 31 -4 68.5t-14.5 70.5t-29.5 55t-50 22q-30 0 -49 -22t-29.5 -55t-14 -70.5t-3.5 -68.5q0 -32 3.5 -70t14 -70.5t29.5 -54.5
t50 -22h1zM648 -43q-32 0 -61 15.5t-51 48.5t-35.5 83.5t-13.5 121.5q0 72 14 123.5t37.5 84t54 48t62.5 15.5q31 0 60 -16t51 -49t35.5 -84t13.5 -121q0 -74 -14.5 -125.5t-38.5 -83.5t-53.5 -46.5t-59.5 -14.5h-1zM57 -35v732h63l141 -360q24 -66 51 -135t47 -133h2
q-2 47 -3.5 88t-2.5 80.5t-1.5 80t-0.5 87.5v292h59v-732h-61l-148 375q-24 58 -47.5 120t-44.5 137h-2q3 -39 4.5 -76.5t2 -78.5t1 -89t0.5 -108v-280h-60z" />
    <glyph glyph-name="cid00259" unicode="&#x33c7;" horiz-adv-x="900" 
d="M852 -39q-16 0 -26 11t-9 28q0 17 10 27t26 10t25.5 -10t9.5 -27t-9.5 -28t-26.5 -11zM613 9q39 0 64 29.5t39.5 76t20 103t5.5 109.5q0 52 -5.5 108t-20.5 102t-40 75.5t-64 29.5t-64.5 -29.5t-41 -75.5t-21.5 -102t-6 -109t6 -109t21.5 -102.5t41 -76t64.5 -29.5h1z
M607 -48q-41 0 -76.5 22t-62 67.5t-41.5 116t-15 168.5q0 96 16 166.5t43.5 116.5t65 68.5t81.5 22.5q41 0 76.5 -22.5t61.5 -68.5t40.5 -116t14.5 -165q0 -102 -16.5 -173.5t-44 -116.5t-64.5 -65.5t-78 -20.5h-1zM382 -27q-35 -19 -103 -19q-48 0 -91 20t-75 63.5
t-50.5 112.5t-18.5 167q0 110 23.5 183.5t59.5 117.5t80 62t85 18q31 0 53.5 -5t33.5 -13l-16 -55q-14 5 -30 10t-46 5q-29 0 -60 -16t-56.5 -52.5t-42 -97t-16.5 -148.5q0 -90 15 -150.5t40 -97t57 -52t67 -15.5q25 0 45.5 5.5t33.5 11.5z" />
    <glyph glyph-name="cid00260" unicode="&#x2122;" horiz-adv-x="694" 
d="M534 407q-2 -7 -4.5 -8.5t-7.5 -1.5h-56q-5 0 -7.5 1.5t-4.5 8.5l-64 203v-203q0 -7 -2 -8.5t-8 -1.5h-51q-6 0 -8 1.5t-2 8.5v286q0 7 2 8.5t8 1.5h81q12 0 15 -11l69 -217l69 217q4 11 15 11h81q6 0 8 -1.5t2 -8.5v-286q0 -7 -2 -8.5t-8 -1.5h-51q-6 0 -8 1.5t-2 8.5
v203zM264 702q7 0 8.5 -2t1.5 -8v-42q0 -5 -1.5 -7.5t-8.5 -2.5h-84v-233q0 -7 -2 -8.5t-8 -1.5h-52q-6 0 -8 1.5t-2 8.5v233h-84q-7 0 -8.5 2.5t-1.5 7.5v42q0 6 1.5 8t8.5 2h240z" />
    <glyph glyph-name="cid00261" unicode="&#x33c2;" horiz-adv-x="917" 
d="M872 -33q-14 0 -23 10t-8 25q0 14 9 23t23 9t23 -9t9 -23q0 -15 -9.5 -25t-23.5 -10zM315 -33q-14 0 -22.5 10t-7.5 25q0 14 8.5 23t22.5 9t23 -9t9 -23q0 -15 -9 -25t-24 -10zM196 244q-6 0 -25 -2.5t-40 -15t-37.5 -39.5t-16.5 -76q0 -29 5 -48t13.5 -30.5t18.5 -16
t20 -4.5q18 0 36 19.5t24 65.5q1 10 1.5 17.5t0.5 15.5v114zM256 83v-61t4 -55h-56l-4 51h-3q-28 -58 -77 -58q-20 0 -38.5 9.5t-33.5 28t-24 46t-9 63.5q0 49 16.5 84t42.5 57t58 32.5t63 11.5v21q0 69 -16.5 100.5t-55.5 31.5q-16 0 -30.5 -6t-27.5 -14l-15 46
q8 7 32.5 17t55.5 10q23 0 44 -7t37.5 -25.5t26.5 -50.5t10 -81v-251zM369 365q0 25 -0.5 42.5t-1.5 31t-1.5 25.5t-0.5 27h55l4 -57h1q13 30 37 47t57 17q27 0 53 -13.5t40 -57.5h2q22 41 48 58q13 8 27 10.5t27 2.5q49 0 75.5 -38t26.5 -124v-369h-62v349q0 20 -0.5 43
t-6 42t-18 31.5t-36.5 12.5q-23 0 -42.5 -21t-25.5 -64q-2 -12 -1.5 -24.5t0.5 -25.5v-343h-62v360q0 20 -1 41t-7 38t-19 28t-37 11q-22 0 -42.5 -21.5t-25.5 -72.5q-1 -11 -1 -21.5v-22.5v-340h-62v398z" />
    <glyph glyph-name="cid00262" unicode="&#x33d8;" horiz-adv-x="917" 
d="M106 169q0 -12 0.5 -22.5t2.5 -22.5q6 -34 14.5 -52.5t17.5 -27.5t16.5 -11t9.5 -2q23 0 36.5 18t21 48t9.5 68t2 78q0 42 -3 81t-11 69t-22 48.5t-36 18.5q-12 0 -22 -9.5t-17.5 -23.5t-12 -32t-5.5 -34q-1 -11 -1 -23.5v-23.5v-145zM45 347q0 71 -2 106t-2 55h56l3 -58
h2q10 21 21 34t22 20t20.5 9t15.5 2q25 0 47 -15.5t38 -48t25.5 -83.5t9.5 -123q0 -75 -11.5 -126.5t-30 -83t-42 -45t-46.5 -13.5q-16 0 -27 5t-18 13t-11 17.5t-7 17.5h-2v-227h-61v544zM872 -32q-14 0 -23 10.5t-8 24.5q0 14 9 23.5t23 9.5t22.5 -9.5t8.5 -23.5t-9 -24.5
t-23 -10.5zM315 -32q-14 0 -23 10.5t-8 24.5q0 14 9 23.5t23 9.5t23 -9.5t9 -23.5t-9.5 -24.5t-23.5 -10.5zM377 366q0 25 -0.5 42.5t-1.5 31t-1.5 26t-0.5 27.5h55l4 -57h1q13 29 35.5 46.5t54.5 17.5q27 0 52.5 -13.5t40.5 -58.5h2q11 20 22.5 35.5t25.5 23.5
q13 8 27 10.5t27 2.5q48 0 73 -38.5t25 -123.5v-370h-62v349v43t-5 42.5t-17 32t-36 12.5q-22 0 -41.5 -21.5t-25.5 -64.5q-2 -11 -1.5 -24t0.5 -26v-343h-62v360q0 20 -1.5 41t-7.5 38.5t-19 28.5t-36 11q-21 0 -40 -21.5t-24 -72.5q-1 -11 -1 -22v-23v-340h-62v398z" />
    <glyph glyph-name="cid00263" unicode="&#x2121;" horiz-adv-x="900" 
d="M396 230q0 -70 12 -113t30 -67t40.5 -32t44.5 -8q26 0 47 6t36 14q2 -12 6 -24.5t6 -24.5q-21 -12 -49 -18t-57 -6q-45 0 -79 18.5t-56.5 53t-34 83.5t-11.5 109q0 63 12 115t33.5 89.5t52.5 58.5t69 21q39 0 65.5 -22t43 -56t23.5 -76t7 -81v-21.5t-1 -18.5h-240z
M176 639h-134v58h335v-58h-135v-674h-66v674zM721 715h65v-750h-65v750zM572 280v8q0 42 -7.5 72.5t-19.5 51t-27 30.5t-30 10q-21 0 -37.5 -16t-28 -41t-18 -55.5t-7.5 -59.5h175z" />
    <glyph glyph-name="cid00264" unicode="&#xff01;" 
d="M402 714q0 11 3.5 14t12.5 3h85q9 0 12.5 -3t3.5 -14l-9 -510q0 -11 -3.5 -14t-12.5 -3h-67q-9 0 -12.5 3t-3.5 14zM520 -17q0 -11 -3 -13.5t-12 -2.5h-90q-9 0 -12 2.5t-3 13.5v84q0 11 3 13.5t12 2.5h90q9 0 12 -2.5t3 -13.5v-84z" />
    <glyph glyph-name="cid00265" unicode="&#xff02;" 
d="M312 714q0 11 3.5 14t12.5 3h85q9 0 12.5 -3t3.5 -14l-11 -166q0 -11 -3.5 -14t-12.5 -3h-63q-9 0 -12.5 3t-3.5 14zM490 714q-1 11 3 14t13 3h85q9 0 13 -3t3 -14l-11 -166q-1 -11 -4 -14t-12 -3h-63q-9 0 -12 3t-4 14z" />
    <glyph glyph-name="cid00266" unicode="&#xff03;" 
d="M691 498q11 0 14 -3.5t3 -12.5v-61q0 -9 -3 -12.5t-14 -3.5h-72l-20 -119h64q11 0 14 -3.5t3 -12.5v-61q0 -9 -3 -12.5t-14 -3.5h-80l-33 -194q-2 -12 -7 -14.5t-14 -2.5h-66q-9 0 -11 2.5t0 14.5l33 194h-100l-33 -194q-2 -12 -7 -14.5t-14 -2.5h-66q-9 0 -11 2.5
t0 14.5l33 194h-58q-11 0 -14 3.5t-3 12.5v61q0 9 3 12.5t14 3.5h74l20 119h-66q-11 0 -14 3.5t-3 12.5v61q0 9 3 12.5t14 3.5h82l32 187q2 12 7 14.5t14 2.5h66q9 0 11 -3t0 -14l-32 -187h100l32 187q2 12 7 14.5t14 2.5h66q9 0 11 -3t0 -14l-32 -187h56zM401 286h100
l20 119h-100z" />
    <glyph glyph-name="cid00267" unicode="&#xff04;" 
d="M261 124q16 -10 36 -19t42 -16.5t44 -12.5t42 -6v230q-49 18 -83 37.5t-55.5 43t-31.5 51.5t-10 63q0 73 45 124.5t135 64.5v72q0 11 3.5 14t12.5 3h68q9 0 12.5 -3t3.5 -14v-70q49 -5 86.5 -19t62.5 -32q6 -5 7.5 -9.5t-2.5 -13.5l-24 -58q-6 -13 -20 -5q-23 11 -51 22
t-59 16v-212q49 -18 83 -37t55 -42.5t30.5 -51.5t9.5 -64q0 -81 -47.5 -133.5t-130.5 -69.5v-76q0 -11 -3.5 -14t-12.5 -3h-68q-9 0 -12.5 3t-3.5 14v70q-57 3 -108 20t-89 40q-13 8 -9 19l22 66q3 8 7.5 10.5t12.5 -2.5zM356 503q0 -29 14 -49t55 -40v169
q-34 -11 -51.5 -33.5t-17.5 -46.5zM590 171q0 32 -15 53t-50 38v-177q30 13 47.5 35t17.5 51z" />
    <glyph glyph-name="cid00268" unicode="&#xff05;" 
d="M305 -5q-6 -10 -9.5 -11.5t-12.5 -1.5h-83q-22 0 -12 16l427 688q5 10 9 13t13 3h86q9 0 11.5 -5.5t-2.5 -13.5zM51 524q0 38 12 72.5t35 60.5t56 41.5t75 15.5t75 -15.5t56 -41.5t35 -60.5t12 -72.5t-12 -72.5t-35 -60.5t-56 -41t-75 -15t-75 15t-56 41t-35 60.5
t-12 72.5zM147 524q0 -43 20.5 -72t61.5 -29t61.5 29t20.5 72t-20.5 72.5t-61.5 29.5t-61.5 -29.5t-20.5 -72.5zM513 159q0 38 12 72.5t35 60.5t56 41.5t75 15.5t75 -15.5t56 -41.5t35 -60.5t12 -72.5t-12 -72.5t-35 -60.5t-56 -41t-75 -15t-75 15t-56 41t-35 60.5t-12 72.5
zM609 159q0 -43 20.5 -72t61.5 -29t61.5 29t20.5 72t-20.5 72.5t-61.5 29.5t-61.5 -29.5t-20.5 -72.5z" />
    <glyph glyph-name="cid00269" unicode="&#xff06;" 
d="M594 204q7 14 13 30t10.5 30.5t7 27t3.5 18.5q1 8 4 11t13 3h77q9 0 12 -4.5t2 -13.5q-5 -54 -25.5 -103t-47.5 -89l92 -111q8 -9 6.5 -15t-13.5 -6h-102q-10 0 -16.5 3t-13.5 12l-32 38q-38 -26 -86.5 -45.5t-110.5 -19.5q-58 0 -101 15.5t-71.5 43t-42.5 65t-14 81.5
q0 75 33.5 125t113.5 90q-26 34 -44.5 71t-18.5 78q0 35 11 67t35 56t61.5 38t89.5 14q97 0 146 -45.5t49 -118.5q0 -69 -39.5 -114.5t-121.5 -81.5zM403 77q35 0 63.5 11.5t52.5 29.5l-152 193q-53 -25 -76 -54t-23 -68q0 -54 34.5 -83t100.5 -29zM410 434q55 19 83 44
t28 66t-20.5 60t-58.5 19q-42 0 -65 -20.5t-23 -62.5q0 -31 15 -54t41 -52z" />
    <glyph glyph-name="cid00270" unicode="&#xff07;" 
d="M401 714q-1 11 3 14t13 3h85q9 0 13 -3t3 -14l-11 -166q-1 -11 -4 -14t-12 -3h-63q-9 0 -12 3t-4 14z" />
    <glyph glyph-name="cid00271" unicode="&#xff08;" 
d="M889 -130q6 -7 4 -11.5t-12 -4.5h-68q-15 0 -24 8q-39 36 -73 84.5t-59 105.5t-39 120t-14 126v19q0 127 47.5 236t135.5 198q6 6 12 8t14 2h68q10 0 12 -4.5t-4 -11.5q-34 -37 -63.5 -85.5t-51.5 -103.5t-34.5 -114t-12.5 -116v-29q0 -54 11.5 -112t33 -114.5
t51.5 -108.5t66 -92z" />
    <glyph glyph-name="cid00272" unicode="&#xff09;" 
d="M31 -130q36 40 66 92t51.5 108.5t33 114.5t11.5 112v29q0 57 -12.5 116t-34.5 114t-51.5 103.5t-63.5 85.5q-6 7 -4 11.5t12 4.5h68q8 0 14 -2t12 -8q88 -89 135.5 -198t47.5 -236v-19q0 -63 -14 -126t-39 -120t-59 -105.5t-73 -84.5q-9 -8 -24 -8h-68q-10 0 -12 4.5
t4 11.5z" />
    <glyph glyph-name="cid00273" unicode="&#xff0a;" 
d="M390 377q-5 -8 -8.5 -8t-11.5 6l-47 38q-8 6 -8.5 10t6.5 11l83 91l-116 26q-11 2 -12 6t1 12l19 59q3 9 6 11t12 -2l110 -42l-9 121q-1 10 2.5 12.5t11.5 2.5h62q8 0 11.5 -2.5t2.5 -12.5l-10 -121l111 42q9 3 12 1.5t6 -10.5l19 -59q2 -8 1 -12t-12 -6l-119 -27l84 -90
q7 -7 6.5 -11t-8.5 -10l-47 -38q-8 -6 -11.5 -6t-8.5 8l-69 106z" />
    <glyph glyph-name="cid00274" unicode="&#xff0b;" 
d="M404 556q0 11 3.5 14t12.5 3h79q9 0 12.5 -3t3.5 -14v-166h153q11 0 14 -3.5t3 -12.5v-69q0 -9 -3 -12.5t-14 -3.5h-153v-167q0 -11 -3.5 -14t-12.5 -3h-79q-9 0 -12.5 3t-3.5 14v167h-152q-11 0 -14 3.5t-3 12.5v69q0 9 3 12.5t14 3.5h152v166z" />
    <glyph glyph-name="cid00275" unicode="&#xff0c;" 
d="M532 0q0 -54 -29 -95t-81 -61q-5 -2 -7.5 -1.5t-4.5 4.5l-21 35q-4 7 3 10q24 10 44.5 30t25.5 45h-35q-9 0 -12 2.5t-3 13.5v84q0 11 3 13.5t12 2.5h90q9 0 12 -2.5t3 -13.5v-67z" />
    <glyph glyph-name="cid00276" unicode="&#xff0d;" 
d="M597 391q11 0 14 -3.5t3 -12.5v-71q0 -9 -3 -12.5t-14 -3.5h-274q-11 0 -14 3.5t-3 12.5v71q0 9 3 12.5t14 3.5h274z" />
    <glyph glyph-name="cid00277" unicode="&#xff0e;" 
d="M520 -27q0 -11 -3 -13.5t-12 -2.5h-90q-9 0 -12 2.5t-3 13.5v84q0 11 3 13.5t12 2.5h90q9 0 12 -2.5t3 -13.5v-84z" />
    <glyph glyph-name="cid00278" unicode="&#xff0f;" 
d="M391 -135q-3 -11 -7 -13.5t-13 -2.5h-78q-8 0 -12 2.5t-1 13.5l245 869q3 11 7 14t13 3h82q17 0 12 -19z" />
    <glyph glyph-name="cid00279" unicode="&#xff10;" 
d="M612 342q0 268 -152 268q-75 0 -114 -66t-39 -202t39 -202t114 -66q152 0 152 268zM731 342q0 -185 -71.5 -278.5t-199.5 -93.5t-200 93.5t-72 278.5t72 278.5t200 93.5t199.5 -93.5t71.5 -278.5z" />
    <glyph glyph-name="cid00280" unicode="&#xff11;" 
d="M544 -1q0 -11 -3.5 -14t-12.5 -3h-85q-9 0 -12.5 3t-3.5 14v585l-142 -44q-12 -4 -18 11l-20 51q-2 7 -1 10.5t10 7.5l194 82h78q9 0 12.5 -3t3.5 -14v-686z" />
    <glyph glyph-name="cid00281" unicode="&#xff12;" 
d="M233 -18q-11 0 -14 3.5t-3 13.5v65q0 8 2.5 13t7.5 10q71 69 133 130.5t108.5 113.5t73 95.5t26.5 76.5q0 52 -27 78t-90 26q-38 0 -83.5 -12.5t-85.5 -35.5q-10 -6 -15 2l-40 66q-8 12 2 18q48 32 106.5 50.5t121.5 18.5q109 0 172 -53t63 -149q0 -49 -25.5 -98
t-68.5 -101t-100 -108t-120 -120h309q11 0 14 -3.5t3 -12.5v-71q0 -9 -3 -12.5t-14 -3.5h-453z" />
    <glyph glyph-name="cid00282" unicode="&#xff13;" 
d="M428 -30q-27 0 -55 4.5t-55.5 12t-52.5 18t-45 22.5q-9 5 -4 17l29 66q4 12 16 5q32 -17 77.5 -28.5t89.5 -11.5q77 0 118.5 29t41.5 86q0 52 -40 84.5t-108 32.5h-89q-8 0 -10 2.5t-2 10.5v78q0 7 2 9.5t10 2.5h70q65 0 106.5 26.5t41.5 79.5q0 44 -32 69t-97 25
q-36 0 -73.5 -10.5t-74.5 -29.5q-7 -4 -11 -4t-8 7l-36 65q-5 9 5 16q48 28 99.5 44t111.5 16q110 0 172 -49.5t62 -145.5q0 -109 -113 -155q63 -18 97.5 -62.5t34.5 -109.5q0 -106 -73 -164t-205 -58z" />
    <glyph glyph-name="cid00283" unicode="&#xff14;" 
d="M641 126v-127q0 -11 -3.5 -14t-12.5 -3h-83q-9 0 -12.5 3t-3.5 14v127h-344q-11 0 -14 3.5t-3 12.5v58q0 10 2 16.5t6 12.5l346 456q6 9 8.5 13t11.5 4h86q9 0 12.5 -3t3.5 -14v-458h96q11 0 14 -3.5t3 -12.5v-69q0 -9 -3 -12.5t-14 -3.5h-96zM526 227v305l-234 -305h234
z" />
    <glyph glyph-name="cid00284" unicode="&#xff15;" 
d="M641 702q11 0 14 -3.5t3 -12.5v-70q0 -9 -3 -12.5t-14 -3.5h-263l-8 -172q11 2 31 3t37 1q128 0 198 -61t70 -166q0 -112 -71.5 -173.5t-206.5 -61.5q-31 0 -61.5 5.5t-58 14.5t-50.5 19.5t-39 20.5q-8 4 -3 15l33 71q3 7 12 2q35 -18 78 -30.5t97 -12.5q70 0 111 32.5
t41 95.5q0 64 -42 97.5t-127 33.5q-38 0 -77 -4.5t-72 -10.5q-13 -2 -16 1.5t-2 13.5l20 345q1 14 5 18.5t18 4.5h346z" />
    <glyph glyph-name="cid00285" unicode="&#xff16;" 
d="M318 401q26 23 68 37.5t84 14.5q64 0 111 -18.5t78 -51t46.5 -77t15.5 -96.5q0 -50 -17.5 -94t-50.5 -76.5t-81 -51t-109 -18.5q-59 0 -107.5 19t-83 58t-54 97.5t-19.5 136.5q0 51 5 101.5t15 92.5q31 126 106 182.5t190 56.5q21 0 44 -3t45.5 -8.5t41.5 -12t32 -13.5
q8 -5 5 -14l-27 -70q-4 -9 -14 -6q-29 12 -65.5 19t-68.5 7q-41 0 -73.5 -15t-56.5 -43t-39.5 -67t-20.5 -87zM316 286q-7 -45 0.5 -84.5t27.5 -69t50.5 -46t68.5 -16.5q68 0 107 39t39 104q0 60 -36 100.5t-110 40.5q-51 0 -85.5 -18t-61.5 -50z" />
    <glyph glyph-name="cid00286" unicode="&#xff17;" 
d="M444 -2q-5 -10 -8.5 -13t-12.5 -3h-89q-8 0 -12.5 2.5t-0.5 13.5l255 601h-341q-11 0 -14 3.5t-3 12.5v71q0 9 3 12.5t14 3.5h449q11 0 14 -3.5t3 -12.5v-52q0 -22 -10 -47z" />
    <glyph glyph-name="cid00287" unicode="&#xff18;" 
d="M466 400q22 9 43 20t37.5 25t26 32t9.5 41q0 41 -31.5 70.5t-92.5 29.5q-57 0 -90 -27.5t-33 -69.5q0 -48 32.5 -76t98.5 -45zM456 68q65 0 106 30t41 81q0 47 -39 78t-126 52q-56 -19 -92.5 -51t-36.5 -74q0 -26 10.5 -47t30 -36.5t46.5 -24t60 -8.5zM458 -30
q-62 0 -111.5 14t-84 40t-53 62.5t-18.5 81.5q0 34 12 63t33 52t49 40.5t61 28.5q-61 25 -98 68t-37 106q0 40 17 74t49 59.5t77.5 40t102.5 14.5t102 -13.5t76.5 -37.5t48 -57t16.5 -72q0 -33 -11 -59.5t-29.5 -47.5t-44 -37.5t-54.5 -28.5q34 -11 64 -27.5t53 -39
t36.5 -51t13.5 -64.5q0 -44 -18 -82t-52.5 -66.5t-85 -44.5t-114.5 -16z" />
    <glyph glyph-name="cid00288" unicode="&#xff19;" 
d="M602 290q-26 -23 -68 -37.5t-84 -14.5q-64 0 -111 18t-78 50t-46.5 76t-15.5 96q0 49 17 92t50 75t81 50.5t110 18.5q58 0 107 -19t83.5 -58t54 -97.5t19.5 -136.5q0 -51 -5 -101.5t-15 -92.5q-31 -126 -106 -182.5t-190 -56.5q-21 0 -44 3t-45.5 8.5t-41.5 12t-32 13.5
q-8 5 -5 14l27 70q4 9 14 6q29 -12 65.5 -19t68.5 -7q81 0 131 57.5t59 161.5zM604 405q7 44 -0.5 82t-27.5 66.5t-50.5 44.5t-68.5 16q-68 0 -107 -38.5t-39 -100.5q0 -60 36 -99t110 -39q51 0 86 18t61 50z" />
    <glyph glyph-name="cid00289" unicode="&#xff1a;" 
d="M520 82q0 -11 -3 -13.5t-12 -2.5h-90q-9 0 -12 2.5t-3 13.5v84q0 11 3 13.5t12 2.5h90q9 0 12 -2.5t3 -13.5v-84zM520 474q0 -11 -3 -13.5t-12 -2.5h-90q-9 0 -12 2.5t-3 13.5v84q0 11 3 13.5t12 2.5h90q9 0 12 -2.5t3 -13.5v-84z" />
    <glyph glyph-name="cid00290" unicode="&#xff1b;" 
d="M532 474q0 -11 -3 -13.5t-12 -2.5h-90q-9 0 -12 2.5t-3 13.5v84q0 11 3 13.5t12 2.5h90q9 0 12 -2.5t3 -13.5v-84zM532 99q0 -54 -29 -95t-81 -61q-5 -2 -7.5 -1.5t-4.5 4.5l-21 35q-4 7 3 10q24 10 44.5 30t25.5 45h-35q-9 0 -12 2.5t-3 13.5v84q0 11 3 13.5t12 2.5h90
q9 0 12 -2.5t3 -13.5v-67z" />
    <glyph glyph-name="cid00291" unicode="&#xff1c;" 
d="M636 95q11 -8 11 -22v-92q0 -7 -4.5 -10.5t-11.5 1.5l-348 261q-10 7 -10 17v77q0 6 2 9t8 8l348 255q16 6 16 -9v-92q0 -14 -11 -22l-258 -187z" />
    <glyph glyph-name="cid00292" unicode="&#xff1d;" 
d="M663 501q11 0 14 -3.5t3 -12.5v-71q0 -9 -3 -12.5t-14 -3.5h-407q-11 0 -14 3.5t-3 12.5v71q0 9 3 12.5t14 3.5h407zM663 280q11 0 14 -3.5t3 -12.5v-71q0 -9 -3 -12.5t-14 -3.5h-407q-11 0 -14 3.5t-3 12.5v71q0 9 3 12.5t14 3.5h407z" />
    <glyph glyph-name="cid00293" unicode="&#xff1e;" 
d="M542 298l-258 187q-11 8 -11 22v92q0 15 16 9l348 -255q6 -5 8 -8t2 -9v-77q0 -6 -2 -9t-8 -8l-348 -261q-7 -5 -11.5 -1.5t-4.5 10.5v92q0 14 11 22z" />
    <glyph glyph-name="cid00294" unicode="&#xff1f;" 
d="M364 234q0 20 5 39.5t17.5 40.5t33.5 43t53 47q36 28 53 58t17 75q0 48 -29.5 75t-90.5 27q-35 0 -64 -11.5t-58 -25.5q-12 -6 -16 9l-31 66q-2 10 7 15q16 10 38 19.5t46.5 16.5t50 11t49.5 4q51 0 91.5 -15t69.5 -41t44.5 -61.5t15.5 -76.5q0 -39 -7.5 -68.5t-22 -53
t-35 -43.5t-45.5 -40q-46 -35 -64 -62t-18 -52v-46q0 -10 -3 -13t-11 -3h-81q-9 0 -12 2.5t-3 12.5v51zM481 -17q0 -11 -3 -13.5t-12 -2.5h-90q-9 0 -12 2.5t-3 13.5v84q0 11 3 13.5t12 2.5h90q9 0 12 -2.5t3 -13.5v-84z" />
    <glyph glyph-name="cid00295" unicode="&#xff20;" 
d="M456 -146q-100 0 -178.5 26t-133 76.5t-83 123.5t-28.5 167q0 98 30 186t89.5 154.5t147 105.5t201.5 39q90 0 161.5 -29t121.5 -79.5t76.5 -117t26.5 -141.5q0 -78 -17.5 -138t-50 -101.5t-77.5 -62.5t-100 -21q-53 0 -81 17.5t-36 48.5q-26 -26 -59.5 -40.5
t-75.5 -14.5q-70 0 -109 45.5t-39 126.5q0 67 15.5 121.5t44 93.5t70 60t92.5 21q36 0 66.5 -12.5t47.5 -29.5l12 29q4 9 14 9h70q15 0 11 -18q-19 -79 -35 -156t-31 -154q-5 -24 3 -40t37 -16q23 0 45 15t39.5 44t28 71t10.5 96q0 61 -21 112.5t-58.5 88.5t-89.5 58
t-115 21q-82 0 -149.5 -30t-116 -82.5t-75 -123.5t-26.5 -153q0 -152 86 -229.5t240 -77.5q37 0 72.5 3.5t65 9t52.5 11.5t37 11q12 4 12 -12v-52q0 -10 -2 -13t-9 -6q-37 -16 -97 -28.5t-132 -12.5zM418 128q30 0 56.5 14t43.5 33l44 237q-12 14 -36.5 23.5t-56.5 9.5
q-35 0 -59 -16t-39 -45.5t-21.5 -69.5t-6.5 -88t20 -73t55 -25z" />
    <glyph glyph-name="cid00296" unicode="&#xff21;" 
d="M788 -1q4 -11 0 -14t-13 -3h-96q-9 0 -13.5 3t-8.5 14l-61 169h-282l-59 -169q-4 -11 -8.5 -14t-13.5 -3h-89q-9 0 -13 3t0 14l258 686q4 11 7.5 14t12.5 3h103q9 0 12.5 -3t7.5 -14zM348 266h213l-107 301z" />
    <glyph glyph-name="cid00297" unicode="&#xff22;" 
d="M454 78q146 0 146 117q0 113 -152 113h-135v-230h141zM428 404q68 0 106.5 27t38.5 76q0 54 -33 76.5t-105 22.5h-122v-202h115zM447 702q129 0 188.5 -45.5t59.5 -132.5q0 -59 -33 -101t-93 -59q69 -11 113 -58t44 -118q0 -94 -65.5 -150t-193.5 -56h-251
q-14 0 -18.5 4.5t-4.5 18.5v674q0 14 4.5 18.5t18.5 4.5h231z" />
    <glyph glyph-name="cid00298" unicode="&#xff23;" 
d="M300 342q0 -64 16 -113.5t45 -84t68.5 -52.5t86.5 -18q28 0 51 2t43.5 6t40 10.5t40.5 14.5q8 3 14 3.5t9 -7.5l26 -64q6 -15 -7 -22q-49 -24 -99.5 -35.5t-118.5 -11.5q-72 0 -133.5 25t-107 72.5t-71 116.5t-25.5 158t25.5 158t71 116.5t107 72.5t133.5 25
q62 0 114 -13t90 -35q13 -8 7 -22l-27 -64q-3 -8 -9 -7.5t-14 3.5q-38 17 -75 25.5t-85 8.5q-47 0 -86.5 -18t-68.5 -52.5t-45 -84t-16 -113.5z" />
    <glyph glyph-name="cid00299" unicode="&#xff24;" 
d="M400 80q57 0 101 14.5t74 47t45 84.5t15 128q0 132 -63.5 190.5t-182.5 58.5h-104v-523h115zM188 -18q-14 0 -18.5 4.5t-4.5 18.5v674q0 14 4.5 18.5t18.5 4.5h210q180 0 268 -85t88 -263q0 -194 -84.5 -283t-264.5 -89h-217z" />
    <glyph glyph-name="cid00300" unicode="&#xff25;" 
d="M241 -18q-14 0 -18.5 4.5t-4.5 18.5v674q0 14 4.5 18.5t18.5 4.5h438q11 0 14 -3.5t3 -12.5v-69q0 -9 -3 -12.5t-14 -3.5h-341v-198h294q11 0 14 -3.5t3 -12.5v-68q0 -9 -3 -12.5t-14 -3.5h-294v-220h347q11 0 14 -3.5t3 -12.5v-69q0 -9 -3 -12.5t-14 -3.5h-444z" />
    <glyph glyph-name="cid00301" unicode="&#xff26;" 
d="M238 679q0 14 4.5 18.5t18.5 4.5h403q11 0 14 -3.5t3 -12.5v-66q0 -9 -3 -12.5t-14 -3.5h-306v-217h253q11 0 14 -3.5t3 -12.5v-66q0 -9 -3 -12.5t-14 -3.5h-253v-290q0 -11 -3.5 -14t-12.5 -3h-88q-9 0 -12.5 3t-3.5 14v680z" />
    <glyph glyph-name="cid00302" unicode="&#xff27;" 
d="M501 610q-112 0 -172.5 -69.5t-60.5 -195.5q0 -131 61 -201t180 -70q19 0 40.5 3t42.5 7.5t39.5 11t32.5 14.5v177h-142q-11 0 -14 3.5t-3 12.5v68q0 9 3 12.5t14 3.5h236q9 0 12.5 -3t3.5 -14v-296q0 -13 -2 -18t-10 -11q-40 -31 -107.5 -53t-152.5 -22
q-83 0 -148.5 25.5t-112 74t-71 118t-24.5 157.5q0 86 24 154.5t70 116t111.5 73t148.5 25.5q78 0 136.5 -16.5t97.5 -41.5q13 -9 7 -22l-28 -63q-4 -8 -9.5 -8t-13.5 4q-37 17 -85.5 30t-103.5 13z" />
    <glyph glyph-name="cid00303" unicode="&#xff28;" 
d="M737 -1q0 -11 -3.5 -14t-12.5 -3h-88q-9 0 -12.5 3t-3.5 14v304h-314v-304q0 -11 -3.5 -14t-12.5 -3h-88q-9 0 -12.5 3t-3.5 14v686q0 11 3.5 14t12.5 3h88q9 0 12.5 -3t3.5 -14v-279h314v279q0 11 3.5 14t12.5 3h88q9 0 12.5 -3t3.5 -14v-686z" />
    <glyph glyph-name="cid00304" unicode="&#xff29;" 
d="M520 -1q0 -11 -3.5 -14t-12.5 -3h-88q-9 0 -12.5 3t-3.5 14v686q0 11 3.5 14t12.5 3h88q9 0 12.5 -3t3.5 -14v-686z" />
    <glyph glyph-name="cid00305" unicode="&#xff2a;" 
d="M300 82q4 16 18 11q23 -9 53 -14.5t53 -5.5q49 0 72.5 29t23.5 80v503q0 11 3.5 14t12.5 3h88q9 0 12.5 -3t3.5 -14v-505q0 -102 -51.5 -156t-157.5 -54q-39 0 -74.5 6.5t-63.5 17.5q-15 5 -11 22z" />
    <glyph glyph-name="cid00306" unicode="&#xff2b;" 
d="M720 2q6 -7 3.5 -13t-11.5 -7h-116q-9 0 -13.5 1.5t-10.5 9.5l-257 309v-303q0 -11 -3.5 -14t-12.5 -3h-88q-9 0 -12.5 3t-3.5 14v686q0 11 3.5 14t12.5 3h88q9 0 12.5 -3t3.5 -14v-299l249 305q6 8 10.5 9.5t13.5 1.5h111q9 -1 11 -6.5t-3 -13.5l-284 -332z" />
    <glyph glyph-name="cid00307" unicode="&#xff2c;" 
d="M256 -18q-14 0 -18.5 4.5t-4.5 18.5v680q0 11 3.5 14t12.5 3h88q9 0 12.5 -3t3.5 -14v-600h317q11 0 14 -3.5t3 -12.5v-71q0 -9 -3 -12.5t-14 -3.5h-414z" />
    <glyph glyph-name="cid00308" unicode="&#xff2d;" 
d="M525 -1q-4 -11 -6.5 -14t-11.5 -3h-97q-9 0 -13 3t-8 14l-186 534v-534q0 -11 -3.5 -14t-12.5 -3h-78q-9 0 -12.5 3t-3.5 14v686q0 11 3.5 14t12.5 3h128q20 0 25 -19l197 -562l201 562q5 19 25 19h125q9 0 12.5 -3t3.5 -14v-686q0 -11 -3.5 -14t-12.5 -3h-83
q-9 0 -12.5 3t-3.5 14v537z" />
    <glyph glyph-name="cid00309" unicode="&#xff2e;" 
d="M742 -1q0 -11 -3.5 -14t-12.5 -3h-114q-9 0 -12 3t-8 14l-301 528v-528q0 -11 -3.5 -14t-12.5 -3h-81q-9 0 -12.5 3t-3.5 14v686q0 11 3.5 14t12.5 3h107q9 0 14.5 -4.5t10.5 -14.5l303 -532v534q0 11 3.5 14t12.5 3h81q9 0 12.5 -3t3.5 -14v-686z" />
    <glyph glyph-name="cid00310" unicode="&#xff2f;" 
d="M670 342q0 64 -16 113.5t-44.5 84t-67 52.5t-83.5 18t-83 -18t-66.5 -52.5t-44.5 -84t-16 -113.5t16 -113.5t44.5 -84t66.5 -52.5t83 -18t83.5 18t67 52.5t44.5 84t16 113.5zM792 342q0 -89 -25.5 -158t-70.5 -116.5t-106 -72.5t-131 -25t-130.5 25t-105.5 72.5
t-70.5 116.5t-25.5 158t25.5 158t70.5 116.5t105.5 72.5t130.5 25t131 -25t106 -72.5t70.5 -116.5t25.5 -158z" />
    <glyph glyph-name="cid00311" unicode="&#xff30;" 
d="M444 342q80 0 113.5 31t33.5 100t-33 100t-112 31h-120v-262h118zM206 679q0 14 4.5 18.5t18.5 4.5h231q129 0 191.5 -59t62.5 -170t-62.5 -170t-191.5 -59h-134v-245q0 -11 -3.5 -14t-12.5 -3h-88q-9 0 -12.5 3t-3.5 14v680z" />
    <glyph glyph-name="cid00312" unicode="&#xff31;" 
d="M792 342q0 -110 -40 -189t-106 -125l105 -43q10 -4 10.5 -8.5t-3.5 -11.5l-39 -67q-5 -7 -10 -7t-13 4l-166 83q-37 -8 -71 -8q-66 0 -126.5 25t-106 72.5t-72.5 116.5t-27 158t27 158t72.5 116.5t106 72.5t126.5 25t126.5 -25t106.5 -72.5t73 -116.5t27 -158zM670 342
q0 64 -17.5 113.5t-47 84t-67.5 52.5t-79 18t-79 -18t-67 -52.5t-46.5 -84t-17.5 -113.5t17.5 -113.5t46.5 -84t67 -52.5t79 -18t79 18t67.5 52.5t47 84t17.5 113.5z" />
    <glyph glyph-name="cid00313" unicode="&#xff32;" 
d="M191 679q0 14 4.5 18.5t18.5 4.5h231q129 0 191.5 -58t62.5 -161q0 -81 -39.5 -134.5t-120.5 -73.5l186 -274q6 -11 2 -15t-14 -4h-104q-9 0 -14.5 3t-10.5 12l-167 268h-106v-266q0 -11 -3.5 -14t-12.5 -3h-88q-9 0 -12.5 3t-3.5 14v680zM429 362q81 0 114 30t33 91
t-33 91t-112 30h-120v-242h118z" />
    <glyph glyph-name="cid00314" unicode="&#xff33;" 
d="M260 124q19 -10 42.5 -19.5t48.5 -16.5t49 -11.5t44 -4.5q68 0 107 32.5t39 80.5q0 44 -29 69t-96 47q-60 20 -102.5 41.5t-69.5 48t-39.5 58t-12.5 70.5q0 43 15 78.5t45 61.5t74 40.5t101 14.5q63 0 111 -14t83 -36q7 -5 8.5 -9.5t-2.5 -13.5l-26 -59q-5 -13 -20 -6
q-32 16 -72 27t-82 11q-30 0 -52.5 -7.5t-36.5 -19.5t-21 -27.5t-7 -31.5q0 -21 6.5 -37.5t24 -31t49.5 -29t83 -33.5q52 -19 87.5 -39t57.5 -43.5t32 -53t10 -67.5q0 -51 -18 -92.5t-51 -71t-80.5 -45t-106.5 -15.5q-66 0 -126.5 17.5t-104.5 44.5q-13 8 -9 19l27 65
q6 16 20 8z" />
    <glyph glyph-name="cid00315" unicode="&#xff34;" 
d="M710 702q11 0 14 -3.5t3 -12.5v-71q0 -9 -3 -12.5t-14 -3.5h-190v-600q0 -11 -3.5 -14t-12.5 -3h-88q-9 0 -12.5 3t-3.5 14v600h-190q-11 0 -14 3.5t-3 12.5v71q0 9 3 12.5t14 3.5h500z" />
    <glyph glyph-name="cid00316" unicode="&#xff35;" 
d="M743 245q0 -60 -17 -109.5t-52 -84.5t-88 -54.5t-126 -19.5t-126 19.5t-88 54.5t-52 84.5t-17 109.5v440q0 11 3.5 14t12.5 3h88q9 0 12.5 -3t3.5 -14v-427q0 -88 40 -132.5t123 -44.5q84 0 123.5 44.5t39.5 132.5v427q0 11 3.5 14t12.5 3h88q9 0 12.5 -3t3.5 -14v-440z
" />
    <glyph glyph-name="cid00317" unicode="&#xff36;" 
d="M405 -18q-9 0 -12.5 3.5t-7.5 13.5l-246 686q-4 11 0 14t13 3h96q9 0 14 -3t9 -14l192 -568l192 568q4 11 9 14t14 3h89q9 0 13 -3t0 -14l-251 -686q-4 -10 -7.5 -13.5t-12.5 -3.5h-104z" />
    <glyph glyph-name="cid00318" unicode="&#xff37;" 
d="M616 -18q-9 0 -12.5 3.5t-7.5 13.5l-144 533l-134 -533q-4 -10 -7.5 -13.5t-12.5 -3.5h-116q-9 0 -12.5 3.5t-7.5 13.5l-153 686q-2 11 1 14t12 3h87q9 0 15 -3t8 -14l117 -556l141 556q3 11 8.5 14t14.5 3h96q9 0 14.5 -3t8.5 -14l143 -553l120 553q2 11 8 14t15 3h79
q9 0 12 -3t1 -14l-168 -686q-4 -10 -7.5 -13.5t-12.5 -3.5h-106z" />
    <glyph glyph-name="cid00319" unicode="&#xff38;" 
d="M280 -7q-5 -8 -9 -9.5t-12 -1.5h-101q-18 0 -7 16l238 363l-222 326q-9 15 8 15h111q9 0 13 -2.5t8 -8.5l159 -238l141 238q4 6 8 8.5t13 2.5h107q17 0 8 -15l-212 -329l237 -360q11 -16 -7 -16h-110q-8 0 -11.5 1.5t-9.5 9.5l-176 275z" />
    <glyph glyph-name="cid00320" unicode="&#xff39;" 
d="M516 -1q0 -11 -3.5 -14t-12.5 -3h-88q-9 0 -12.5 3t-3.5 14v268l-233 420q-9 15 8 15h103q9 0 13.5 -2.5t7.5 -8.5l166 -303l166 303q5 11 21 11h100q17 0 8 -15l-240 -420v-268z" />
    <glyph glyph-name="cid00321" unicode="&#xff3a;" 
d="M359 85h326q11 0 14 -3.5t3 -12.5v-71q0 -9 -3 -12.5t-14 -3.5h-455q-11 0 -14 3.5t-3 12.5v39q0 21 1.5 29t9.5 20l328 513h-313q-11 0 -14 3.5t-3 12.5v71q0 9 3 12.5t14 3.5h450q11 0 14 -3.5t3 -12.5v-39q0 -21 -1.5 -29t-9.5 -20z" />
    <glyph glyph-name="cid00322" unicode="&#xff3b;" 
d="M652 -146q-9 0 -12.5 3t-3.5 14v873q0 11 3.5 14t12.5 3h205q11 0 14 -3.5t3 -12.5v-65q0 -9 -3 -12.5t-14 -3.5h-106v-713h106q11 0 14 -3.5t3 -12.5v-65q0 -9 -3 -12.5t-14 -3.5h-205z" />
    <glyph glyph-name="cid00323" unicode="&#xffe6;" 
d="M112 394l-61 291q-2 11 1 14t12 3h83q9 0 14.5 -3t7.5 -14l58 -291h103l64 291q3 11 8 14t14 3h91q9 0 14.5 -3t7.5 -14l67 -291h108l61 291q2 11 7.5 14t14.5 3h77q9 0 12 -3t1 -14l-68 -291h62q11 0 13.5 -3.5t2.5 -11.5v-69q0 -8 -2.5 -11.5t-13.5 -3.5h-85l-69 -296
q-4 -10 -7.5 -13.5t-11.5 -3.5h-102q-8 0 -11.5 3.5t-7.5 13.5l-68 296h-98l-66 -296q-3 -10 -6.5 -13.5t-12.5 -3.5h-111q-9 0 -12.5 3.5t-6.5 13.5l-63 296h-84q-11 0 -13.5 3.5t-2.5 11.5v69q0 8 2.5 11.5t13.5 3.5h63zM276 147l32 148h-62zM653 151l30 144h-64zM433 394
h53l-27 116z" />
    <glyph glyph-name="cid00324" unicode="&#xff3d;" 
d="M63 -146q-11 0 -14 3.5t-3 12.5v65q0 9 3 12.5t14 3.5h106v713h-106q-11 0 -14 3.5t-3 12.5v65q0 9 3 12.5t14 3.5h205q9 0 12.5 -3t3.5 -14v-873q0 -11 -3.5 -14t-12.5 -3h-205z" />
    <glyph glyph-name="cid00325" unicode="&#xff3e;" 
d="M498 731q8 0 10 -3t6 -10l138 -234q5 -8 1 -10.5t-11 -2.5h-66q-7 0 -10 2.5t-8 10.5l-93 154l-99 -154q-5 -7 -7.5 -10t-10.5 -3h-71q-7 0 -11 2.5t1 10.5l139 234q4 7 6 10t11 3h75z" />
    <glyph glyph-name="cid00326" unicode="&#xff3f;" 
d="M620 -79q11 0 14 -3.5t3 -12.5v-46q0 -9 -3 -12.5t-14 -3.5h-321q-11 0 -14 3.5t-3 12.5v46q0 9 3 12.5t14 3.5h321z" />
    <glyph glyph-name="cid00327" unicode="&#xff40;" 
d="M365 717q-11 14 7 14h88q8 0 10 -3t6 -10l79 -138q5 -8 1 -10.5t-11 -2.5h-68q-7 0 -10.5 1.5t-8.5 9.5z" />
    <glyph glyph-name="cid00328" unicode="&#xff41;" 
d="M313 413q-11 -3 -15 -1t-7 11l-18 55q-3 8 -1.5 12.5t12.5 8.5q38 13 84.5 22.5t99.5 9.5q48 0 88 -9.5t68.5 -30t44.5 -51.5t16 -73v-368q0 -11 -3.5 -14t-12.5 -3h-69q-9 0 -12.5 3t-7.5 14l-5 15q-29 -20 -73 -32t-87 -12q-36 0 -69 10t-57.5 30t-39.5 51t-15 72
q0 77 58.5 122.5t160.5 45.5h118v40q0 54 -36 73.5t-102 19.5q-29 0 -60 -6.5t-60 -14.5zM442 59q13 0 30 2t35 6.5t35 10t29 13.5v124h-115q-45 0 -75.5 -18.5t-30.5 -61.5q0 -20 7.5 -34.5t20.5 -23.5t29.5 -13.5t34.5 -4.5z" />
    <glyph glyph-name="cid00329" unicode="&#xff42;" 
d="M317 -1q-4 -11 -8.5 -14t-13.5 -3h-66q-16 0 -16 17v731q0 11 3.5 14t12.5 3h81q9 0 12.5 -3t3.5 -14v-256q70 56 153 56q51 0 93 -15t72 -48t46.5 -86t16.5 -129q0 -77 -17.5 -130.5t-49 -87t-76 -48.5t-97.5 -15q-35 0 -75 13t-70 34zM449 71q30 0 56 8t46 28
t31.5 55.5t11.5 89.5q0 55 -10.5 89.5t-29.5 54t-44.5 26.5t-56.5 7q-64 0 -127 -56v-266q30 -17 63 -26.5t60 -9.5z" />
    <glyph glyph-name="cid00330" unicode="&#xff43;" 
d="M646 103q14 9 17 -5l20 -66q2 -7 1.5 -10.5t-7.5 -8.5q-15 -9 -34.5 -17t-42.5 -13.5t-48 -9t-49 -3.5q-57 0 -106 18.5t-85 54.5t-57 89t-21 122q0 61 18.5 111.5t53.5 87.5t85 57.5t112 20.5q48 0 89.5 -11t67.5 -27q10 -6 6 -17l-23 -68q-5 -12 -15 -6q-10 5 -25 10.5
t-31.5 10t-34.5 7t-34 2.5q-37 0 -66 -13.5t-48.5 -37.5t-29.5 -56.5t-10 -70.5q0 -96 42.5 -141t117.5 -45q40 0 76.5 10.5t60.5 24.5z" />
    <glyph glyph-name="cid00331" unicode="&#xff44;" 
d="M594 730q0 11 3.5 14t12.5 3h81q9 0 12.5 -3t3.5 -14v-731q0 -17 -16 -17h-66q-9 0 -13.5 3t-8.5 14q-2 7 -3.5 13.5t-3.5 14.5q-72 -57 -155 -57q-51 0 -93 15t-72 48.5t-46.5 86.5t-16.5 129q0 77 17.5 131t49 87.5t76 48.5t97.5 15q33 0 71.5 -12.5t69.5 -32.5v244z
M471 431q-30 0 -56 -8t-46 -28.5t-31.5 -56t-11.5 -89.5q0 -55 10.5 -90t29 -54.5t44.5 -26.5t57 -7q32 0 63.5 13t63.5 42v268q-30 17 -63 27t-60 10z" />
    <glyph glyph-name="cid00332" unicode="&#xff45;" 
d="M673 6q-39 -15 -82 -25.5t-104 -10.5q-131 0 -200.5 74.5t-69.5 203.5q0 71 21 124t56 88.5t80.5 53t95.5 17.5q111 0 171.5 -73t60.5 -216q0 -17 -5 -22.5t-19 -5.5h-344q4 -44 18 -72.5t35.5 -45.5t49.5 -23.5t60 -6.5q36 0 75.5 6.5t73.5 19.5q11 4 15 1.5t7 -11.5
l17 -55q2 -8 0.5 -12t-12.5 -9zM467 435q-23 0 -44.5 -6t-39 -21.5t-30 -41.5t-17.5 -66h238q11 0 11 11q0 30 -9.5 53t-26 38.5t-38 24t-44.5 8.5z" />
    <glyph glyph-name="cid00333" unicode="&#xff46;" 
d="M375 -18q-9 0 -12.5 3t-3.5 14v429h-61q-11 0 -14 3.5t-3 12.5v60q0 9 3 12.5t14 3.5h61v66q0 44 14.5 74.5t36.5 50t48.5 28.5t51.5 11q64 5 115 -14q10 -4 12 -7t0 -12l-12 -60q-2 -8 -5 -8.5t-13 2.5q-19 6 -44.5 8t-39.5 -3q-20 -8 -34.5 -27t-14.5 -54v-55h115
q11 0 14 -3.5t3 -12.5v-60q0 -9 -3 -12.5t-14 -3.5h-115v-429q0 -11 -3.5 -14t-12.5 -3h-83v0z" />
    <glyph glyph-name="cid00334" unicode="&#xff47;" 
d="M274 -164q-11 5 -12.5 9t0.5 12l17 55q3 9 7 11.5t15 -1.5q34 -11 73.5 -18.5t65.5 -7.5q42 0 71 7.5t47.5 24t27 43.5t8.5 67q-71 -56 -153 -56q-51 0 -93 15.5t-72 48.5t-46.5 85t-16.5 124q0 73 17.5 125.5t49 86t76 49t97.5 15.5q34 0 74 -13t71 -34q1 8 5 19t7.5 14
t12.5 3h68q9 0 12.5 -3t3.5 -14v-470q0 -126 -65.5 -179.5t-191.5 -53.5q-17 0 -39.5 2.5t-46.5 7t-47.5 11.5t-42.5 15zM467 83q32 0 63.5 13t63.5 42v256q-30 17 -63 27t-60 10q-30 0 -56 -8.5t-46 -29t-31.5 -54t-11.5 -84.5t10.5 -84.5t29 -53t44.5 -27t57 -7.5z" />
    <glyph glyph-name="cid00335" unicode="&#xff48;" 
d="M470 429q-65 0 -130 -56v-374q0 -11 -3.5 -14t-12.5 -3h-83q-9 0 -12.5 3t-3.5 14v731q0 11 3.5 14t12.5 3h83q9 0 12.5 -3t3.5 -14v-256q70 57 161 57q38 0 73 -11.5t62 -33.5t43 -54.5t16 -74.5v-358q0 -11 -3.5 -14t-12.5 -3h-83q-9 0 -12.5 3t-3.5 14v319
q0 58 -28.5 84.5t-81.5 26.5z" />
    <glyph glyph-name="cid00336" unicode="&#xff49;" 
d="M401 503q0 11 3.5 14t12.5 3h85q9 0 12.5 -3t3.5 -14v-504q0 -11 -3.5 -14t-12.5 -3h-85q-9 0 -12.5 3t-3.5 14v504zM518 622q0 -11 -3 -13.5t-12 -2.5h-87q-9 0 -12 2.5t-3 13.5v84q0 11 3 13.5t12 2.5h87q9 0 12 -2.5t3 -13.5v-84z" />
    <glyph glyph-name="cid00337" unicode="&#xff4a;" 
d="M589 622q0 -11 -3 -13.5t-12 -2.5h-86q-9 0 -12 2.5t-3 13.5v84q0 11 3 13.5t12 2.5h86q9 0 12 -2.5t3 -13.5v-84zM473 503q0 11 3.5 14t12.5 3h84q9 0 12.5 -3t3.5 -14v-539q0 -44 -11 -75t-29 -51t-41.5 -29t-48.5 -9q-32 0 -61 3.5t-52 9.5q-12 3 -14 7t0 13l10 61
q2 9 6 11.5t15 0.5q14 -3 30.5 -4.5t30.5 -1.5q22 0 35.5 16.5t13.5 61.5v525z" />
    <glyph glyph-name="cid00338" unicode="&#xff4b;" 
d="M674 3q5 -7 3.5 -13.5t-10.5 -7.5h-100q-9 0 -13.5 1.5t-10.5 9.5l-187 240v-234q0 -11 -3.5 -14t-12.5 -3h-83q-9 0 -12.5 3t-3.5 14v731q0 11 3.5 14t12.5 3h83q9 0 12.5 -3t3.5 -14v-413l172 192q6 8 10.5 9.5t13.5 1.5h93q9 -1 11.5 -7t-3.5 -13l-206 -221z" />
    <glyph glyph-name="cid00339" unicode="&#xff4c;" 
d="M447 148q0 -45 13.5 -61.5t35.5 -16.5q14 0 30.5 1.5t30.5 4.5q11 2 15 -0.5t6 -11.5l10 -61q2 -9 0 -13t-14 -7q-23 -6 -52 -9.5t-61 -3.5q-26 0 -49.5 9t-41.5 29t-28.5 51t-10.5 75v596q0 11 3.5 14t12.5 3h84q9 0 12.5 -3t3.5 -14v-582z" />
    <glyph glyph-name="cid00340" unicode="&#xff4d;" 
d="M699 318q0 58 -17 84.5t-65 26.5q-24 0 -50 -14t-52 -37q0 -5 0.5 -10.5t0.5 -10.5v-358q0 -11 -3.5 -14t-12.5 -3h-81q-9 0 -12.5 3t-3.5 14v319q0 58 -16.5 84.5t-64.5 26.5q-21 0 -47 -12.5t-55 -38.5v-379q0 -11 -3.5 -14t-12.5 -3h-82q-9 0 -12.5 3t-3.5 14v504
q0 11 3.5 14t12.5 3h69q9 0 12.5 -3t7.5 -14q2 -7 3.5 -14t3.5 -15q35 29 71 43t64 14q97 0 138 -69q37 32 76.5 50.5t80.5 18.5q78 0 121.5 -44.5t43.5 -129.5v-358q0 -11 -3.5 -14t-12.5 -3h-82q-9 0 -12.5 3t-3.5 14v319z" />
    <glyph glyph-name="cid00341" unicode="&#xff4e;" 
d="M580 318q0 58 -28.5 84.5t-81.5 26.5q-65 0 -130 -56v-374q0 -11 -3.5 -14t-12.5 -3h-83q-9 0 -12.5 3t-3.5 14v504q0 11 3.5 14t12.5 3h70q9 0 12.5 -3t7.5 -14q2 -7 3.5 -14.5t3.5 -15.5q36 29 76 43.5t87 14.5q38 0 73 -11.5t62 -33.5t43 -54.5t16 -74.5v-358
q0 -11 -3.5 -14t-12.5 -3h-83q-9 0 -12.5 3t-3.5 14v319z" />
    <glyph glyph-name="cid00342" unicode="&#xff4f;" 
d="M197 250q0 57 18 108t52 89.5t82.5 61t110.5 22.5q61 0 110 -22.5t83 -61t52 -89.5t18 -108t-18 -107.5t-52 -89t-83 -61t-110 -22.5q-62 0 -110.5 22.5t-82.5 61t-52 89t-18 107.5zM312 250q0 -38 9.5 -70.5t28 -57.5t46.5 -39t64 -14t64 14t46.5 39t28 57.5t9.5 70.5
q0 37 -9.5 70.5t-28 58t-46.5 39t-64 14.5t-64 -14.5t-46.5 -39t-28 -58t-9.5 -70.5z" />
    <glyph glyph-name="cid00343" unicode="&#xff50;" 
d="M326 -171q0 -11 -3.5 -14t-12.5 -3h-81q-9 0 -12.5 3t-3.5 14v674q0 11 3.5 14t12.5 3h68q9 0 12.5 -3t7.5 -14q2 -7 3.5 -14t3.5 -15q70 57 155 57q49 0 91 -14.5t72.5 -47.5t47.5 -86.5t17 -131.5q0 -77 -17.5 -130.5t-49 -87t-76 -48.5t-97.5 -15q-33 0 -72 12t-69 32
v-185zM449 70q30 0 56 8t46 28t31.5 55.5t11.5 89.5q0 55 -10.5 90t-29.5 54.5t-44.5 27t-56.5 7.5q-64 0 -127 -56v-268q30 -17 63 -26.5t60 -9.5z" />
    <glyph glyph-name="cid00344" unicode="&#xff51;" 
d="M603 503q4 11 7.5 14t12.5 3h68q9 0 12.5 -3t3.5 -14v-674q0 -11 -3.5 -14t-12.5 -3h-81q-9 0 -12.5 3t-3.5 14v199q-71 -56 -153 -56q-51 0 -93 15t-72 48t-46.5 86t-16.5 129q0 77 17.5 130.5t49 87t76 48.5t97.5 15q34 0 74 -13t71 -34q1 8 5 19zM471 431
q-30 0 -56 -8t-46 -28t-31.5 -55.5t-11.5 -89.5q0 -55 10.5 -89.5t29 -54t44.5 -26.5t57 -7q32 0 63.5 13t63.5 42v266q-30 17 -63 27t-60 10z" />
    <glyph glyph-name="cid00345" unicode="&#xff52;" 
d="M561 531q14 0 27.5 -2t21.5 -6q4 -2 4 -5.5t-1 -8.5l-10 -76q-3 -11 -12 -11q-5 0 -20.5 1.5t-35.5 1.5t-49.5 -10.5t-64.5 -42.5v-373q0 -11 -3.5 -14t-12.5 -3h-83q-9 0 -12.5 3t-3.5 14v504q0 11 3.5 14t12.5 3h70q9 0 12.5 -3t7.5 -14q2 -7 3.5 -15.5t3.5 -17.5
q35 32 72.5 46.5t69.5 14.5z" />
    <glyph glyph-name="cid00346" unicode="&#xff53;" 
d="M464 435q-34 0 -55 -15.5t-21 -38.5q0 -13 3.5 -22.5t16 -19t36 -19t62.5 -22.5q87 -29 123 -67.5t36 -95.5q0 -75 -59.5 -120t-166.5 -45q-17 0 -39 3t-45 9t-45.5 14t-41.5 18q-11 6 -12.5 9.5t0.5 11.5l19 58q3 9 7 12t15 -2q32 -14 71 -25.5t68 -11.5q59 0 86 16.5
t27 45.5q0 12 -4 22.5t-14 20t-27.5 18t-45.5 17.5q-52 16 -87.5 34t-57.5 38.5t-31.5 45t-9.5 54.5q0 32 13 60t38.5 48.5t62 32.5t84.5 12q46 0 84.5 -10t67.5 -26q11 -6 12.5 -9.5t-0.5 -11.5l-18 -58q-3 -9 -7 -12t-15 2q-31 13 -62 21t-68 8z" />
    <glyph glyph-name="cid00347" unicode="&#xff54;" 
d="M630 -14q-24 -7 -53 -11.5t-64 -4.5q-33 0 -62 10.5t-51 32.5t-34.5 54.5t-12.5 76.5v284h-62q-11 0 -14 3.5t-3 12.5v60q0 9 3 12.5t14 3.5h62v112q0 11 3.5 14t12.5 3h83q9 0 12.5 -3t3.5 -14v-112h146q11 0 14 -3.5t3 -12.5v-60q0 -9 -3 -12.5t-14 -3.5h-146v-271
q0 -88 80 -88q14 0 30 1.5t34 6.5q11 3 15 0t6 -12l11 -59q2 -9 0 -12.5t-14 -7.5z" />
    <glyph glyph-name="cid00348" unicode="&#xff55;" 
d="M340 184q0 -58 28.5 -84.5t81.5 -26.5q33 0 64.5 13t65.5 42v375q0 11 3.5 14t12.5 3h83q9 0 12.5 -3t3.5 -14v-504q0 -11 -3.5 -14t-12.5 -3h-70q-9 0 -12.5 3t-7.5 14q-2 7 -4 14.5t-4 15.5q-73 -58 -162 -58q-38 0 -73 11.5t-62 33.5t-43 54.5t-16 74.5v358
q0 11 3.5 14t12.5 3h83q9 0 12.5 -3t3.5 -14v-319z" />
    <glyph glyph-name="cid00349" unicode="&#xff56;" 
d="M409 -18q-9 0 -12.5 3.5t-7.5 13.5l-196 504q-4 11 0 14t13 3h93q9 0 14 -3t9 -14l143 -399l140 399q4 11 9 14t14 3h85q9 0 13 -3t0 -14l-194 -504q-4 -10 -7.5 -13.5t-12.5 -3.5h-103z" />
    <glyph glyph-name="cid00350" unicode="&#xff57;" 
d="M571 -18q-9 0 -13 3.5t-7 13.5l-93 347l-89 -347q-4 -17 -20 -17h-96q-9 0 -13 3.5t-7 13.5l-135 504q-3 11 0.5 14t12.5 3h81q9 0 15 -3t8 -14l91 -384l95 384q2 11 7.5 13.5t13.5 3.5h68q9 0 14.5 -3t8.5 -14l108 -383l85 383q2 11 8 14t15 3h80q9 0 12.5 -3t0.5 -14
l-132 -504q-3 -10 -7 -13.5t-13 -3.5h-99z" />
    <glyph glyph-name="cid00351" unicode="&#xff58;" 
d="M335 -7q-6 -8 -9.5 -9.5t-11.5 -1.5h-92q-20 0 -8 16l177 265l-170 241q-5 7 -2.5 11.5t11.5 4.5h102q9 0 13 -2.5t8 -8.5l109 -165l112 165q4 6 8 8.5t13 2.5h95q9 0 11.5 -4.5t-2.5 -11.5l-171 -241l178 -265q12 -16 -8 -16h-99q-8 0 -11.5 1.5t-9.5 9.5l-120 184z" />
    <glyph glyph-name="cid00352" unicode="&#xff59;" 
d="M202 504q-3 8 -1.5 12t10.5 4h99q16 0 21 -11l131 -381l135 381q4 11 21 11h90q17 0 9 -16l-219 -569q-27 -70 -70 -102.5t-97 -32.5q-30 0 -51.5 3.5t-44.5 11.5q-11 4 -13.5 7.5t-0.5 12.5l14 61q2 9 6 12t15 0q14 -4 30.5 -6t30.5 -2q25 0 41 13.5t31 45.5l11 23z" />
    <glyph glyph-name="cid00353" unicode="&#xff5a;" 
d="M382 74h271q11 0 14 -3.5t3 -12.5v-60q0 -9 -3 -12.5t-14 -3.5h-387q-11 0 -14 3.5t-3 12.5v36q0 21 1.5 29t9.5 20l255 345h-231q-11 0 -14 3.5t-3 12.5v60q0 9 3 12.5t14 3.5h354q11 0 14 -3.5t3 -12.5v-36q0 -21 -1.5 -29t-9.5 -20z" />
    <glyph glyph-name="cid00354" unicode="&#xff5b;" 
d="M664 308q35 -8 57.5 -21.5t35 -30.5t17.5 -37.5t5 -42.5v-144q0 -50 26.5 -71t78.5 -21q11 0 11 -12v-63q0 -11 -10 -11q-53 0 -94.5 9.5t-69.5 30.5t-42.5 54t-14.5 80v144q0 26 -7 43t-20.5 27.5t-34 15.5t-47.5 8q-7 1 -7 9v65q0 8 7 9q27 3 47.5 8t34 15.5t20.5 27.5
t7 43v144q0 94 57 134t164 40q10 0 10 -11v-63q0 -12 -11 -12q-52 0 -78.5 -21t-26.5 -71v-144q0 -22 -5 -42t-17.5 -37t-35 -30.5t-57.5 -21.5z" />
    <glyph glyph-name="cid00355" unicode="&#xff5c;" 
d="M512 -134q0 -11 -3.5 -14t-12.5 -3h-72q-9 0 -12.5 3t-3.5 14v868q0 11 3.5 14t12.5 3h72q9 0 12.5 -3t3.5 -14v-868z" />
    <glyph glyph-name="cid00356" unicode="&#xff5d;" 
d="M256 308q-35 8 -57.5 21.5t-35 30.5t-17.5 37t-5 42v144q0 50 -26.5 71t-78.5 21q-11 0 -11 12v63q0 11 10 11q106 0 163.5 -40t57.5 -134v-144q0 -26 7 -43t20.5 -27.5t34 -15.5t47.5 -8q7 -1 7 -9v-65q0 -8 -7 -9q-27 -3 -47.5 -8t-34 -15.5t-20.5 -27.5t-7 -43v-144
q0 -95 -57.5 -134.5t-163.5 -39.5q-10 0 -10 11v63q0 12 11 12q52 0 78.5 21t26.5 71v144q0 22 5 42.5t17.5 37.5t35 30.5t57.5 21.5z" />
    <glyph glyph-name="cid00357" unicode="&#x203e;" 
d="M894 775q11 0 14 -3.5t3 -12.5v-46q0 -9 -3 -12.5t-14 -3.5h-868q-11 0 -14 3.5t-3 12.5v46q0 9 3 12.5t14 3.5h868z" />
    <glyph glyph-name="cid00357" unicode="&#xffe3;" 
d="M894 775q11 0 14 -3.5t3 -12.5v-46q0 -9 -3 -12.5t-14 -3.5h-868q-11 0 -14 3.5t-3 12.5v46q0 9 3 12.5t14 3.5h868z" />
    <glyph glyph-name="cid00358" unicode="&#x3131;" 
d="M738 550q14 0 18.5 -5t4.5 -18v-452q0 -11 -3.5 -14t-12.5 -3h-79q-9 0 -12.5 3t-3.5 14v365q0 7 -1.5 9.5t-9.5 2.5h-451q-11 0 -14 3.5t-3 11.5v67q0 9 3 12.5t14 3.5h550z" />
    <glyph glyph-name="cid00359" unicode="&#x3132;" 
d="M425 546q14 0 18.5 -4.5t4.5 -17.5v-449q0 -11 -3.5 -13.5t-12.5 -2.5h-75q-9 0 -12.5 2.5t-3.5 13.5v370q0 6 -1.5 8.5t-9.5 2.5h-165q-11 0 -14 3.5t-3 11.5v60q0 9 3 12t14 3h260zM777 546q14 0 18.5 -4.5t4.5 -17.5v-449q0 -11 -3.5 -13.5t-12.5 -2.5h-75
q-9 0 -12.5 2.5t-3.5 13.5v370q0 6 -1.5 8.5t-9.5 2.5h-165q-11 0 -14 3.5t-3 11.5v60q0 9 3 12t14 3h260z" />
    <glyph glyph-name="cid00360" unicode="&#x3133;" 
d="M405 542q14 0 18.5 -4.5t4.5 -17.5v-448q0 -11 -3.5 -13.5t-12.5 -2.5h-75q-9 0 -12.5 2.5t-3.5 13.5v369q0 6 -1.5 8.5t-9.5 2.5h-166q-11 0 -14 3.5t-3 11.5v60q0 9 3 12t14 3h261zM646 219q-21 -53 -55.5 -97.5t-79.5 -71.5q-11 -6 -16 -5t-11 9l-43 49q-5 7 -4 11.5
t9 9.5q31 19 58 47.5t46.5 63.5t30.5 76t11 85v130q0 11 3.5 14t12.5 3h76q9 0 12.5 -3t3.5 -14v-129q0 -44 11 -85t30.5 -76t46.5 -63.5t58 -47.5q8 -5 9 -9.5t-4 -11.5l-43 -49q-6 -8 -11 -9t-16 5q-45 27 -79.5 71t-55.5 97z" />
    <glyph glyph-name="cid00361" unicode="&#x3134;" 
d="M181 528q0 11 3.5 14t12.5 3h82q9 0 12.5 -3t3.5 -14v-367q0 -8 2.5 -10.5t10.5 -2.5h449q11 0 14 -3.5t3 -12.5v-66q0 -9 -3 -12.5t-14 -3.5h-513q-34 0 -48.5 14t-14.5 52v412z" />
    <glyph glyph-name="cid00362" unicode="&#x3135;" 
d="M669 459v-88q0 -37 11 -74.5t31 -71t47 -61t60 -43.5q16 -8 7 -18l-44 -56q-6 -7 -9.5 -8.5t-11.5 2.5q-18 9 -38.5 26t-40 39t-36.5 46t-28 46q-10 -24 -26 -49t-35 -47.5t-39.5 -40.5t-39.5 -28q-8 -5 -11.5 -3t-9.5 9l-48 57q-9 10 7 18q33 17 60.5 45.5t47.5 63
t31 73t11 75.5v88h-112q-11 0 -13.5 3t-2.5 11v61q0 8 2.5 11.5t13.5 3.5h334q10 0 13 -3.5t3 -11.5v-61q0 -8 -3 -11t-13 -3h-118zM143 528q0 11 3.5 14t12.5 3h75q9 0 12.5 -3t3.5 -14v-342q0 -7 2 -9.5t10 -2.5q9 0 28 5t40 12.5t41.5 17t34.5 17.5q13 7 17 -11l15 -57
q2 -9 0 -14t-13 -11q-25 -14 -55 -26.5t-61 -21.5t-61 -14.5t-54 -5.5q-29 0 -40 9.5t-11 39.5v414z" />
    <glyph glyph-name="cid00363" unicode="&#x3136;" 
d="M794 217q0 -42 -13 -76t-36 -58.5t-54.5 -38t-68.5 -13.5t-68.5 13t-54.5 37.5t-36 59t-13 76.5q0 50 16 87t44 60h-104q-11 0 -13 3.5t-2 12.5v53q0 9 2 12.5t13 3.5h432q10 0 12.5 -3.5t2.5 -12.5v-53q0 -9 -2.5 -12.5t-12.5 -3.5h-106q29 -23 45.5 -60t16.5 -87z
M135 527q0 11 3.5 14t12.5 3h75q9 0 12.5 -3t3.5 -14v-373q0 -7 2 -9.5t10 -2.5q13 0 30.5 1.5t36.5 4t37.5 6.5t34.5 9q10 3 12.5 -1.5t4.5 -13.5l10 -59q2 -9 -1.5 -12.5t-14.5 -6.5q-23 -7 -51.5 -12t-58 -8t-57.5 -4.5t-51 -1.5q-29 0 -40 9.5t-11 39.5v434zM622 120
q37 0 58 28t21 78q0 45 -21.5 73.5t-57.5 28.5q-37 0 -58 -28.5t-21 -73.5q0 -50 21 -78t58 -28zM525 506q-10 0 -12.5 2.5t-2.5 10.5v58q0 8 2.5 11t12.5 3h194q10 0 12.5 -3t2.5 -11v-58q0 -8 -2.5 -10.5t-12.5 -2.5h-194z" />
    <glyph glyph-name="cid00364" unicode="&#x3137;" 
d="M249 56q-35 0 -50.5 16.5t-15.5 55.5q0 50 2 99.5t5 92.5t7.5 76.5t10.5 51.5h-27q-11 0 -14 3.5t-3 12.5v66q0 9 3 12.5t14 3.5h563q11 0 14 -3.5t3 -12.5v-66q0 -9 -3 -12.5t-14 -3.5h-428q-4 -10 -7 -37t-5 -65t-3 -84t-1 -93q0 -9 3 -12t12 -3h441q11 0 14 -3.5
t3 -12.5v-66q0 -9 -3 -12.5t-14 -3.5h-507z" />
    <glyph glyph-name="cid00365" unicode="&#x3138;" 
d="M550 56q-35 0 -50.5 16.5t-15.5 55.5q0 17 1 45t2.5 61t4 67t5 64.5t5 53.5t5.5 33h-25q-11 0 -14 3.5t-3 12.5v63q0 9 3 12.5t14 3.5h307q11 0 14 -3.5t3 -12.5v-63q0 -9 -3 -12.5t-14 -3.5h-177q-4 -15 -7 -51t-4.5 -79t-2.5 -85.5t-1 -70.5q0 -9 3 -12t12 -3h184
q11 0 14 -3.5t3 -12.5v-63q0 -9 -3 -12.5t-14 -3.5h-246zM187 52q-35 0 -50.5 16.5t-15.5 55.5q0 17 1 45t2.5 61t3.5 67.5t4.5 65t5.5 54.5t6 35h-25q-12 0 -15 3.5t-3 13.5v61q0 9 3 13t15 4h286q11 0 14.5 -4t3.5 -13v-61q0 -10 -3.5 -13.5t-14.5 -3.5h-156
q-5 -17 -7.5 -56.5t-4.5 -84.5t-2.5 -86.5t-0.5 -62.5q0 -9 3 -12t12 -3q18 0 40.5 1t45.5 3.5t44 5.5t36 7q12 3 14.5 -1t4.5 -14l8 -56q2 -10 -1.5 -13.5t-15.5 -6.5q-19 -5 -48.5 -8.5t-62.5 -6.5t-66.5 -4.5t-60.5 -1.5z" />
    <glyph glyph-name="cid00366" unicode="&#x3139;" 
d="M227 44q-29 0 -42.5 12t-13.5 42q0 17 1.5 41t4 48t6 43.5t6.5 27.5h-20q-11 0 -14 3.5t-3 12.5v60q0 9 3 12.5t14 3.5h465q2 6 4 20.5t3.5 30.5t2 30.5t0.5 20.5q0 8 -2 10t-9 2h-446q-11 0 -14 3.5t-3 12.5v63q0 9 3 12.5t14 3.5h549q16 0 21 -5t5 -19
q0 -23 -1.5 -50.5t-4.5 -54t-7 -48.5t-9 -32h20q11 0 14 -3.5t3 -12.5v-60q0 -9 -3 -12.5t-14 -3.5h-463q-2 -6 -3.5 -20.5t-3 -31t-2 -32t-0.5 -22.5t2 -9.5t10 -2.5h469q11 0 14 -3.5t3 -12.5v-64q0 -9 -3 -12.5t-14 -3.5h-542v0z" />
    <glyph glyph-name="cid00367" unicode="&#x313a;" 
d="M780 551q14 0 18.5 -4.5t4.5 -17.5v-457q0 -11 -3.5 -13.5t-12.5 -2.5h-75q-9 0 -12.5 2.5t-3.5 13.5v378q0 6 -1.5 8.5t-9.5 2.5h-168q-11 0 -14 3.5t-3 11.5v60q0 9 3 12t14 3h263zM160 108q0 17 1 40t3 46t4.5 41.5t5.5 26.5h-17q-11 0 -14 3.5t-3 11.5v54q0 8 3 11.5
t14 3.5h189q2 6 4 21t3 32.5t1.5 33t0.5 21.5q0 7 -1.5 9t-8.5 2h-172q-11 0 -13.5 3.5t-2.5 12.5v55q0 9 2.5 12t13.5 3h266q15 0 20 -4.5t5 -18.5q0 -21 -1.5 -47t-4.5 -51t-7 -47t-8 -37h19q11 0 13.5 -3.5t2.5 -11.5v-54q0 -8 -2.5 -11.5t-13.5 -3.5h-190
q-2 -6 -3.5 -20.5t-3 -30.5t-2 -30.5t-0.5 -21.5q0 -12 14 -12q27 -1 58.5 0t61.5 4t56 7.5t42 9.5q10 3 12.5 -1.5t4.5 -13.5l9 -53q2 -9 -1.5 -12.5t-14.5 -6.5q-89 -22 -292 -22q-29 0 -41 9.5t-12 39.5z" />
    <glyph glyph-name="cid00368" unicode="&#x313b;" 
d="M154 104q0 17 1 41t3 47t4.5 42.5t5.5 27.5h-16q-11 0 -14 3.5t-3 11.5v54q0 8 3 11.5t14 3.5h187q2 6 3.5 21t2 31.5t1 31.5t0.5 21q0 7 -1.5 9t-8.5 2h-167q-11 0 -13.5 3.5t-2.5 12.5v55q0 9 2.5 12t13.5 3h261q15 0 20 -4.5t5 -18.5q0 -18 -1.5 -43.5t-4 -51
t-6 -48.5t-7.5 -36h15q11 0 12.5 -3.5t1.5 -11.5v-54q0 -8 -2.5 -11.5t-13.5 -3.5h-183q-2 -6 -3.5 -21t-2.5 -32t-1.5 -33t-0.5 -23q0 -12 14 -12q55 -2 105 3t77 10q10 2 12.5 -2t4.5 -13l6 -51q2 -9 -1.5 -13t-14.5 -6q-23 -3 -46.5 -5.5t-53 -4.5t-67 -3t-87.5 -1
q-29 0 -41 9.5t-12 39.5zM727 51q-8 0 -11.5 3t-3.5 14v16q-12 -6 -31 -11t-40.5 -8.5t-43 -5.5t-37.5 -2q-32 0 -44 11t-12 50v407q0 14 4.5 18.5t18.5 4.5h264q14 0 18.5 -4.5t4.5 -18.5v-350q0 -33 -3 -63.5t-9 -49.5q-4 -11 -15 -11h-60zM618 148q26 0 54 4.5t40 11.5
v284q0 8 -2 10t-10 2h-82q-8 0 -10 -2t-2 -10v-287q0 -8 2 -10.5t10 -2.5z" />
    <glyph glyph-name="cid00369" unicode="&#x313c;" 
d="M147 103q0 17 1 41t3 47.5t4.5 43t5.5 27.5h-16q-11 0 -14 3.5t-3 11.5v54q0 8 3 11.5t14 3.5h185q2 6 3.5 21t2 32t1 32.5t0.5 21.5q0 7 -1.5 9t-8.5 2h-165q-11 0 -13.5 3.5t-2.5 12.5v55q0 9 2.5 12t13.5 3h259q15 0 20 -4.5t5 -18.5q0 -18 -1.5 -43.5t-4 -52
t-6 -49.5t-7.5 -36h15q11 0 12.5 -3.5t1.5 -11.5v-54q0 -8 -2.5 -11.5t-13.5 -3.5h-181q-2 -6 -3.5 -21t-2.5 -32.5t-1.5 -33.5t-0.5 -23q0 -12 14 -12q55 -2 104 3t76 10q10 2 12.5 -2t4.5 -13l6 -51q2 -9 -1.5 -13t-14.5 -6q-23 -3 -46.5 -5.5t-52.5 -4.5t-66 -3t-87 -1
q-29 0 -41 9.5t-12 39.5zM720 50q-8 0 -11.5 2.5t-3.5 13.5v17q-11 -6 -30.5 -10.5t-41.5 -8.5t-44 -6t-40 -2q-31 0 -42.5 10.5t-11.5 45.5v422q0 11 3 13.5t12 2.5h72q8 0 11 -2.5t3 -13.5v-149h109v149q0 11 3 13.5t11 2.5h73q9 0 12 -2.5t3 -13.5v-369q0 -31 -3.5 -59
t-8.5 -45q-3 -6 -6 -8.5t-10 -2.5h-59zM608 147q30 0 56 4.5t41 11.5v134h-108v-137q0 -13 11 -13z" />
    <glyph glyph-name="cid00370" unicode="&#x313d;" 
d="M157 103q0 17 1 41t3 47.5t4.5 43t5.5 27.5h-16q-11 0 -14 3.5t-3 11.5v54q0 8 3 11.5t14 3.5h185q2 6 3.5 21t2 32t1 32.5t0.5 21.5q0 7 -1.5 9t-8.5 2h-165q-11 0 -13.5 3.5t-2.5 12.5v55q0 9 2.5 12t13.5 3h259q15 0 20 -4.5t5 -18.5q0 -18 -1.5 -43.5t-4 -52
t-6 -49.5t-7.5 -36h15q11 0 12.5 -3.5t1.5 -11.5v-54q0 -8 -2.5 -11.5t-13.5 -3.5h-181q-2 -6 -3.5 -21t-2.5 -32.5t-1.5 -33.5t-0.5 -23q0 -12 14 -12q55 -2 95.5 3t67.5 10q10 2 12.5 -2t4.5 -13l1 -11q30 20 56 48t45 62.5t30 74.5t11 84v136q0 11 3.5 14t12.5 3h76
q9 0 12.5 -3t3.5 -14v-135q0 -44 11 -85t30.5 -76t46.5 -63.5t58 -47.5q8 -5 9 -9.5t-4 -11.5l-43 -49q-7 -8 -11.5 -9t-15.5 5q-45 27 -79.5 71t-55.5 97q-21 -53 -55.5 -97.5t-79.5 -71.5q-11 -6 -15.5 -5t-11.5 9l-29 33q2 -9 -1.5 -13t-14.5 -6q-23 -3 -43.5 -5.5
t-46.5 -4.5t-60.5 -3t-84.5 -1q-29 0 -41 9.5t-12 39.5z" />
    <glyph glyph-name="cid00371" unicode="&#x313e;" 
d="M154 104q0 17 1 41t3 47t4.5 42.5t5.5 27.5h-16q-11 0 -14 3.5t-3 11.5v54q0 8 3 11.5t14 3.5h187q2 6 3.5 21t2 31.5t1 31.5t0.5 21q0 7 -1.5 9t-8.5 2h-167q-11 0 -13.5 3.5t-2.5 12.5v55q0 9 2.5 12t13.5 3h261q15 0 20 -4.5t5 -18.5q0 -18 -1.5 -43.5t-4 -51
t-6 -48.5t-7.5 -36h15q11 0 12.5 -3.5t1.5 -11.5v-54q0 -8 -2.5 -11.5t-13.5 -3.5h-183q-2 -6 -3.5 -21t-2.5 -32t-1.5 -33t-0.5 -23q0 -12 14 -12q55 -2 105 3t77 10q10 2 12.5 -2t4.5 -13l6 -51q2 -9 -1.5 -13t-14.5 -6q-23 -3 -46.5 -5.5t-53 -4.5t-67 -3t-87.5 -1
q-29 0 -41 9.5t-12 39.5zM604 260q-1 -31 -1 -58.5v-47.5q0 -7 3 -8.5t11 -1.5h184q11 0 13.5 -3.5t2.5 -11.5v-57q0 -8 -2.5 -11.5t-13.5 -3.5h-226q-36 0 -54 15.5t-18 51.5q0 45 2.5 97.5t6 101t7.5 86.5t8 53h-16q-11 0 -13.5 3.5t-2.5 11.5v57q0 8 2.5 11.5t13.5 3.5
h279q11 0 13.5 -3.5t2.5 -11.5v-57q0 -8 -2.5 -11.5t-13.5 -3.5h-171q-4 -15 -7 -46t-5 -69h175q10 0 12.5 -3.5t2.5 -11.5v-58q0 -8 -2.5 -11t-12.5 -3h-178z" />
    <glyph glyph-name="cid00372" unicode="&#x313f;" 
d="M144 104q0 17 1 41t3 47t4.5 42.5t5.5 27.5h-16q-11 0 -14 3.5t-3 11.5v54q0 8 3 11.5t14 3.5h175q2 6 3.5 21t2 31.5t1 31.5t0.5 21q0 7 -1.5 9t-8.5 2h-155q-11 0 -13.5 3.5t-2.5 12.5v55q0 9 2.5 12t13.5 3h249q15 0 20 -4.5t5 -18.5q0 -18 -1.5 -43.5t-4 -51
t-6 -48.5t-7.5 -36h15q11 0 12.5 -3.5t1.5 -11.5v-54q0 -8 -2.5 -11.5t-13.5 -3.5h-171q-2 -6 -3.5 -21t-2.5 -32t-1.5 -33t-0.5 -23q0 -12 14 -12q55 -2 92.5 3t64.5 10q10 2 12.5 -2t4.5 -13l6 -51q2 -9 -1.5 -13t-14.5 -6q-23 -3 -42.5 -5.5t-44.5 -4.5t-58.5 -3
t-83.5 -1q-29 0 -41 9.5t-12 39.5zM478 55q-11 0 -13.5 3t-2.5 11v60q0 9 2.5 12.5t13.5 3.5h45l-16 249q-1 11 3 13t13 3l66 7q9 1 12 -2.5t4 -14.5l10 -255h50l11 255q1 11 4 14.5t12 2.5l66 -7q9 -1 13 -3t3 -13l-16 -249h45q11 0 13.5 -3.5t2.5 -12.5v-60q0 -8 -2.5 -11
t-13.5 -3h-325zM484 463q-11 0 -13.5 3.5t-2.5 12.5v60q0 8 2.5 11t13.5 3h309q11 0 14 -3t3 -11v-60q0 -9 -3 -12.5t-14 -3.5h-309z" />
    <glyph glyph-name="cid00373" unicode="&#x3140;" 
d="M795 217q0 -42 -12.5 -76t-34 -58.5t-51.5 -38t-65 -13.5t-65 13t-52 37.5t-34 59t-12 76.5q0 50 15 87t42 60h-66q-11 0 -13 3.5t-2 12.5v53q0 9 2 12.5t13 3.5h350q10 0 12.5 -3.5t2.5 -12.5v-53q0 -9 -2.5 -12.5t-12.5 -3.5h-74q27 -23 43 -60t16 -87zM144 104
q0 17 1 41t3 47t4.5 42.5t5.5 27.5h-16q-11 0 -14 3.5t-3 11.5v54q0 8 3 11.5t14 3.5h170q2 6 3.5 21t2 31.5t1 31.5t0.5 21q0 7 -1.5 9t-8.5 2h-150q-11 0 -13.5 3.5t-2.5 12.5v55q0 9 2.5 12t13.5 3h244q15 0 20 -4.5t5 -18.5q0 -18 -1.5 -43.5t-4 -51t-6 -48.5t-7.5 -36
h15q11 0 12.5 -3.5t1.5 -11.5v-54q0 -8 -2.5 -11.5t-13.5 -3.5h-166q-2 -6 -3.5 -21t-2.5 -32t-1.5 -33t-0.5 -23q0 -12 14 -12q55 -2 102.5 3t74.5 10q10 2 12.5 -2t4.5 -13l6 -51q2 -9 -1.5 -13t-14.5 -6q-23 -3 -46 -5.5t-51.5 -4.5t-65 -3t-86.5 -1q-29 0 -41 9.5
t-12 39.5zM632 120q34 0 53.5 28t19.5 78q0 45 -20 73.5t-53 28.5q-34 0 -53.5 -28.5t-19.5 -73.5q0 -50 19.5 -78t53.5 -28zM539 506q-10 0 -12.5 2.5t-2.5 10.5v58q0 8 2.5 11t12.5 3h190q10 0 12.5 -3t2.5 -11v-58q0 -8 -2.5 -10.5t-12.5 -2.5h-190z" />
    <glyph glyph-name="cid00374" unicode="&#x3141;" 
d="M666 50q-9 0 -12.5 3t-3.5 14v21q-18 -8 -50 -13.5t-82 -10t-119 -6.5t-159 -2q-34 0 -48.5 13.5t-14.5 52.5v405q0 14 4.5 18.5t18.5 4.5h537q15 0 19.5 -4.5t4.5 -18.5v-353q0 -33 -3 -63.5t-9 -49.5q-2 -6 -5 -8.5t-11 -2.5h-67zM300 153q144 0 230 5t120 16v267
q0 8 -2.5 10t-10.5 2h-336q-8 0 -10.5 -2t-2.5 -10v-275q0 -8 2 -10.5t10 -2.5z" />
    <glyph glyph-name="cid00375" unicode="&#x3142;" 
d="M663 49q-9 0 -12.5 3t-3.5 14v21q-16 -7 -47 -12.5t-80.5 -10t-118.5 -7t-162 -2.5q-34 0 -48.5 14t-14.5 52v419q0 11 3.5 14t12.5 3h79q9 0 12.5 -3t3.5 -14v-137h360v137q0 11 3.5 14t12.5 3h79q9 0 12.5 -3t3.5 -14v-367q0 -33 -3 -63.5t-9 -49.5q-2 -6 -5 -8.5
t-11 -2.5h-67zM298 150q149 0 233 5t116 16v137h-360v-145q0 -13 11 -13z" />
    <glyph glyph-name="cid00376" unicode="&#x3143;" 
d="M351 42q-8 0 -11.5 3t-3.5 14v21q-12 -7 -31.5 -12.5t-41 -10t-43.5 -7t-40 -2.5q-33 0 -47 14t-14 51v426q0 11 3 14t12 3h78q8 0 11.5 -3t3.5 -14v-151h109v152q0 11 3.5 14t11.5 3h77q9 0 12.5 -3t3.5 -14v-376q0 -33 -3 -63t-9 -48q-2 -6 -5 -8.5t-11 -2.5h-65z
M238 147q9 0 24 1.5t30 4t27 5.5t17 7v129h-109v-134q0 -13 11 -13zM727 42q-8 0 -11.5 3t-3.5 14v21q-12 -7 -31.5 -12.5t-41 -10t-43.5 -7t-40 -2.5q-33 0 -47 14t-14 51v426q0 11 3 14t12 3h78q8 0 11.5 -3t3.5 -14v-151h109v152q0 11 3.5 14t11.5 3h77q9 0 12.5 -3
t3.5 -14v-376q0 -33 -3 -63t-9 -48q-2 -6 -5 -8.5t-11 -2.5h-65zM614 147q9 0 24 1.5t30 4t27 5.5t17 7v129h-109v-134q0 -13 11 -13z" />
    <glyph glyph-name="cid00377" unicode="&#x3144;" 
d="M371 42q-8 0 -11.5 3t-3.5 14v21q-12 -7 -31.5 -12.5t-41 -10t-43.5 -7t-40 -2.5q-33 0 -47 14t-14 51v418q0 11 3 14t12 3h78q8 0 11.5 -3t3.5 -14v-143h109v144q0 11 3.5 14t11.5 3h77q9 0 12.5 -3t3.5 -14v-368q0 -11 -0.5 -20.5t-0.5 -19.5q31 19 57.5 47.5t46 63.5
t30.5 76t11 85v135q0 11 3.5 14t12.5 3h76q9 0 12.5 -3t3.5 -14v-134q0 -44 11 -85t30.5 -76t46.5 -63.5t58 -47.5q8 -5 9 -9.5t-4 -11.5l-43 -49q-7 -8 -11.5 -9t-15.5 5q-45 27 -79.5 71t-55.5 97q-21 -53 -55.5 -97.5t-79.5 -71.5q-11 -6 -15.5 -5t-11.5 9l-39 44
q-3 -29 -9 -45q-2 -6 -5 -8.5t-11 -2.5h-65zM258 147q9 0 24 1.5t30 4t27 5.5t17 7v129h-109v-134q0 -13 11 -13z" />
    <glyph glyph-name="cid00378" unicode="&#x3145;" 
d="M469 259q-17 -35 -45.5 -70.5t-66 -65.5t-82 -53t-93.5 -34q-10 -2 -13.5 -1.5t-8.5 8.5l-35 65q-4 7 -3.5 12t11.5 7q55 10 104 39t86.5 70t59.5 90.5t22 100.5v122q0 11 3.5 14t12.5 3h96q9 0 12.5 -3.5t3.5 -14.5v-122q0 -51 22 -100.5t59.5 -90.5t86.5 -70t104 -39
q11 -2 11.5 -7t-3.5 -12l-34 -65q-5 -8 -8.5 -8.5t-13.5 1.5q-49 11 -93.5 34t-82 53.5t-66.5 66t-46 70.5z" />
    <glyph glyph-name="cid00379" unicode="&#x3146;" 
d="M494 39q-11 -6 -15.5 -5t-11.5 9l-44 52q-5 7 -4 11.5t9 9.5q34 22 63.5 55t51 72t34 80t12.5 79v131q0 11 3.5 14t12.5 3h78q9 0 12.5 -3t3.5 -14v-130q0 -42 11 -80t30 -70t44.5 -57.5t53.5 -44.5q8 -5 9 -8.5t-4 -11.5l-42 -54q-6 -8 -10.5 -9t-13.5 5q-17 11 -35 27
t-35 35.5t-32 40.5t-25 42q-11 -23 -29.5 -50t-40 -52t-44.5 -45.5t-42 -31.5zM163 54q-10 -7 -15 -5.5t-12 9.5l-44 48q-5 7 -4 11t9 10q33 24 60.5 55t47 66.5t30.5 74.5t11 80v125q0 11 3.5 14t12.5 3h78q9 0 12.5 -3t3.5 -14v-124q0 -65 25 -117t74 -83q7 -5 9 -8.5
t-4 -11.5l-46 -53q-6 -8 -9.5 -9t-13.5 5q-23 14 -48.5 43t-38.5 55q-26 -53 -62 -97.5t-79 -73.5z" />
    <glyph glyph-name="cid00380" unicode="&#x3147;" 
d="M279 305q0 -72 49.5 -116t133.5 -44q42 0 75.5 11.5t57.5 32.5t37 50.5t13 65.5q0 35 -13 64t-37 50t-57.5 33t-75.5 12t-76 -12t-57.5 -33t-36.5 -50t-13 -64zM165 305q0 55 21.5 101.5t60.5 80.5t93.5 53t121.5 19t121.5 -19t93.5 -53t60.5 -80.5t21.5 -101.5
q0 -56 -21.5 -103t-60.5 -80.5t-93.5 -52.5t-121.5 -19t-121.5 19t-93.5 52.5t-60.5 80.5t-21.5 103z" />
    <glyph glyph-name="cid00381" unicode="&#x3148;" 
d="M535 457v-37q0 -51 21 -97t57 -83.5t84 -64t103 -38.5q11 -2 11.5 -7t-3.5 -12l-37 -63q-5 -8 -8.5 -8.5t-13.5 1.5q-49 13 -92 35t-78.5 50.5t-63 61.5t-44.5 68q-35 -71 -106.5 -129.5t-170.5 -84.5q-10 -2 -13.5 -1.5t-8.5 8.5l-38 63q-4 7 -3.5 12t11.5 7
q55 12 103 38.5t84 64t57 83.5t21 97v36h-210q-11 0 -14 3.5t-3 11.5v67q0 9 3 12.5t14 3.5h548q11 0 14 -3.5t3 -12.5v-67q0 -8 -3 -11.5t-14 -3.5h-210z" />
    <glyph glyph-name="cid00382" unicode="&#x3149;" 
d="M682 462v-63q0 -45 12 -85t32.5 -73t48.5 -58t60 -41q15 -7 5 -21l-41 -53q-6 -8 -10.5 -9t-14.5 4q-20 10 -40.5 27t-39.5 36.5t-35 41t-27 42.5q-11 -23 -26.5 -48t-34 -48t-39 -42.5t-41.5 -31.5q-11 -6 -15.5 -5t-11.5 9l-43 48q-12 12 5 23q69 44 107.5 119
t38.5 164v64h-74q-11 0 -14 3.5t-3 11.5v65q0 9 3 12.5t14 3.5h290q11 0 14 -3.5t3 -12.5v-65q0 -8 -3 -11.5t-14 -3.5h-106zM358 462v-62q0 -65 22.5 -115t71.5 -81q7 -5 9 -8.5t-4 -11.5l-45 -55q-6 -8 -9.5 -8.5t-13.5 4.5q-23 13 -46 39.5t-36 52.5q-10 -21 -25.5 -45
t-35 -46t-41.5 -41t-45 -31q-11 -5 -15.5 -4.5t-11.5 8.5l-44 51q-5 7 -4.5 11.5t9.5 9.5q71 40 112.5 109t41.5 160v63h-111q-11 0 -14 3.5t-3 11.5v65q0 9 3 12.5t14 3.5h292q11 0 14 -3.5t3 -12.5v-65q0 -8 -3 -11.5t-14 -3.5h-71z" />
    <glyph glyph-name="cid00383" unicode="&#x314a;" 
d="M534 336q4 -38 25 -75t56 -69t82 -55.5t101 -32.5q11 -2 11.5 -7t-3.5 -12l-35 -61q-5 -8 -8.5 -8.5t-13.5 1.5q-45 9 -87.5 27.5t-78.5 44t-65.5 56.5t-48.5 65q-20 -34 -49 -65t-65 -56.5t-78.5 -44t-87.5 -27.5q-10 -2 -13.5 -1.5t-8.5 8.5l-35 61q-4 7 -3.5 12
t11.5 7q54 9 101 32.5t82 55.5t56 69t25 75h-204q-11 0 -14 3.5t-3 11.5v67q0 9 3 12.5t14 3.5h538q11 0 14 -3.5t3 -12.5v-67q0 -8 -3 -11.5t-14 -3.5h-204zM330 501q-11 0 -13.5 3.5t-2.5 11.5v67q0 9 2.5 12.5t13.5 3.5h278q11 0 13.5 -3.5t2.5 -12.5v-67
q0 -8 -2.5 -11.5t-13.5 -3.5h-278z" />
    <glyph glyph-name="cid00384" unicode="&#x314b;" 
d="M736 555q14 0 18.5 -5t4.5 -18v-466q0 -11 -3.5 -14t-12.5 -3h-79q-9 0 -12.5 3t-3.5 14v198q-47 -5 -107 -10t-123 -9.5t-122.5 -8.5t-105.5 -5q-11 -1 -13 3t-4 13l-11 67q-3 16 17 16q51 1 113.5 3.5t126.5 5.5t123.5 6.5t105.5 6.5v93q0 7 -1.5 9.5t-9.5 2.5h-446
q-11 0 -14 3.5t-3 11.5v67q0 9 3 12.5t14 3.5h545z" />
    <glyph glyph-name="cid00385" unicode="&#x314c;" 
d="M284 254q-2 -29 -2 -52v-36q0 -9 3 -12t12 -3h461q11 0 14 -3.5t3 -12.5v-65q0 -9 -3 -12.5t-14 -3.5h-529q-35 0 -50.5 16.5t-15.5 55.5q0 26 2 72.5t5.5 96t8 93t9.5 63.5h-27q-11 0 -14 3.5t-3 12.5v65q0 9 3 12.5t14 3.5h590q11 0 14 -3.5t3 -12.5v-65q0 -9 -3 -12.5
t-14 -3.5h-453q-3 -17 -5.5 -44t-4.5 -58h440q11 0 14 -3.5t3 -12.5v-64q0 -8 -3 -11.5t-14 -3.5h-444z" />
    <glyph glyph-name="cid00386" unicode="&#x314d;" 
d="M172 50q-11 0 -14 3.5t-3 12.5v66q0 9 3 12.5t14 3.5h130l-29 224q-1 11 3 13t13 4l83 10q9 2 12 -2t4 -15l22 -234h120l22 234q1 11 4 15t12 2l83 -10q9 -2 13 -4t3 -13l-29 -224h130q11 0 14 -3.5t3 -12.5v-66q0 -9 -3 -12.5t-14 -3.5h-596zM187 448q-11 0 -14 3.5
t-3 12.5v66q0 9 3 12.5t14 3.5h566q11 0 14 -3.5t3 -12.5v-66q0 -9 -3 -12.5t-14 -3.5h-566z" />
    <glyph glyph-name="cid00387" unicode="&#x314e;" 
d="M690 210q0 -45 -17 -81.5t-46 -62.5t-68.5 -40.5t-85.5 -14.5t-85.5 14.5t-69 40.5t-46 62.5t-16.5 81.5q0 33 13 62.5t35 54.5h-121q-11 0 -14 3.5t-3 12.5v64q0 9 3 12.5t14 3.5h568q11 0 14 -3.5t3 -12.5v-64q0 -9 -3 -12.5t-14 -3.5h-110q23 -25 36 -54.5t13 -62.5z
M582 209q0 23 -8.5 42.5t-23.5 34t-35 22.5t-42 8q-47 0 -78 -30.5t-31 -76.5q0 -21 8.5 -40t23 -33.5t34.5 -22.5t43 -8q22 0 42 8t35 22.5t23.5 33.5t8.5 40zM341 501q-11 0 -14 3.5t-3 12.5v65q0 9 3 12.5t14 3.5h262q11 0 14 -3.5t3 -12.5v-65q0 -9 -3 -12.5t-14 -3.5
h-262z" />
    <glyph glyph-name="cid00388" unicode="&#x314f;" 
d="M420 -149q-9 0 -12.5 3t-3.5 14v866q0 11 3.5 14t12.5 3h80q9 0 12.5 -3t3.5 -14v-343h124q11 0 14 -3.5t3 -12.5v-66q0 -9 -3 -12.5t-14 -3.5h-124v-317q0 -73 -19 -114q-3 -6 -6 -8.5t-11 -2.5h-60v0z" />
    <glyph glyph-name="cid00389" unicode="&#x3150;" 
d="M323 -110q-9 0 -12.5 3t-3.5 14v814q0 11 3.5 14t12.5 3h78q9 0 12.5 -3t3.5 -14v-315h106v327q0 11 3.5 14t12.5 3h78q9 0 12.5 -3t3.5 -14v-758q0 -73 -19 -114q-3 -6 -6 -8.5t-11 -2.5h-58q-9 0 -12.5 3t-3.5 14v441h-106v-293q0 -73 -19 -114q-3 -6 -6 -8.5t-11 -2.5
h-58v0z" />
    <glyph glyph-name="cid00390" unicode="&#x3151;" 
d="M420 -150q-9 0 -12.5 3t-3.5 14v866q0 11 3.5 14t12.5 3h80q9 0 12.5 -3t3.5 -14v-227h124q11 0 14 -3.5t3 -12.5v-66q0 -9 -3 -12.5t-14 -3.5h-124v-147h124q11 0 14 -3.5t3 -12.5v-66q0 -9 -3 -12.5t-14 -3.5h-124v-188q0 -73 -19 -114q-3 -6 -6 -8.5t-11 -2.5h-60v0z
" />
    <glyph glyph-name="cid00391" unicode="&#x3152;" 
d="M323 -110q-9 0 -12.5 3t-3.5 14v814q0 11 3.5 14t12.5 3h78q9 0 12.5 -3t3.5 -14v-203h106v215q0 11 3.5 14t12.5 3h78q9 0 12.5 -3t3.5 -14v-758q0 -73 -19 -114q-3 -6 -6 -8.5t-11 -2.5h-58q-9 0 -12.5 3t-3.5 14v285h-106v-137q0 -73 -19 -114q-3 -6 -6 -8.5t-11 -2.5
h-58zM417 250h106v170h-106v-170z" />
    <glyph glyph-name="cid00392" unicode="&#x3153;" 
d="M506 -149q-9 0 -12.5 3t-3.5 14v428h-161q-11 0 -14 3.5t-3 12.5v66q0 9 3 12.5t14 3.5h161v340q0 11 3.5 14t12.5 3h80q9 0 12.5 -3t3.5 -14v-758q0 -73 -19 -114q-3 -6 -6 -8.5t-11 -2.5h-60v0z" />
    <glyph glyph-name="cid00393" unicode="&#x3154;" 
d="M399 -110q-9 0 -12.5 3t-3.5 14v390h-138q-11 0 -14 3.5t-3 12.5v66q0 9 3 12.5t14 3.5h138v326q0 11 3.5 14t12.5 3h78q9 0 12.5 -3t3.5 -14v-706q0 -73 -19 -114q-3 -6 -6 -8.5t-11 -2.5h-58zM586 -150q-9 0 -12.5 3t-3.5 14v866q0 11 3.5 14t12.5 3h78q9 0 12.5 -3
t3.5 -14v-758q0 -73 -19 -114q-3 -6 -6 -8.5t-11 -2.5h-58z" />
    <glyph glyph-name="cid00394" unicode="&#x3155;" 
d="M506 -149q-9 0 -12.5 3t-3.5 14v318h-161q-11 0 -14 3.5t-3 12.5v66q0 9 3 12.5t14 3.5h161v103h-161q-11 0 -14 3.5t-3 12.5v66q0 9 3 12.5t14 3.5h161v249q0 11 3.5 14t12.5 3h80q9 0 12.5 -3t3.5 -14v-758q0 -73 -19 -114q-3 -6 -6 -8.5t-11 -2.5h-60v0z" />
    <glyph glyph-name="cid00395" unicode="&#x3156;" 
d="M399 -110q-9 0 -12.5 3t-3.5 14v274h-138q-11 0 -14 3.5t-3 12.5v66q0 9 3 12.5t14 3.5h138v132h-138q-11 0 -14 3.5t-3 12.5v66q0 9 3 12.5t14 3.5h138v212q0 11 3.5 14t12.5 3h78q9 0 12.5 -3t3.5 -14v-706q0 -73 -19 -114q-3 -6 -6 -8.5t-11 -2.5h-58zM586 -150
q-9 0 -12.5 3t-3.5 14v866q0 11 3.5 14t12.5 3h78q9 0 12.5 -3t3.5 -14v-758q0 -73 -19 -114q-3 -6 -6 -8.5t-11 -2.5h-58z" />
    <glyph glyph-name="cid00396" unicode="&#x3157;" 
d="M404 525q0 11 3.5 14t12.5 3h80q9 0 12.5 -3t3.5 -14v-353h349q11 0 14 -3.5t3 -12.5v-66q0 -9 -3 -12.5t-14 -3.5h-809q-11 0 -14 3.5t-3 12.5v66q0 9 3 12.5t14 3.5h348v353z" />
    <glyph glyph-name="cid00397" unicode="&#x3158;" 
d="M679 -150q-9 0 -12.5 3t-3.5 14v866q0 11 3.5 14t12.5 3h80q9 0 12.5 -3t3.5 -14v-344h119q11 0 14 -3.5t3 -12.5v-66q0 -9 -3 -12.5t-14 -3.5h-119v-316q0 -73 -19 -114q-3 -6 -6 -8.5t-11 -2.5h-60zM64 170q57 -1 112.5 -0.5t108.5 1.5v279q0 11 3.5 14t12.5 3h80
q9 0 12.5 -3t3.5 -14v-276q58 2 108.5 5.5t92.5 8.5q11 2 14.5 -1.5t5.5 -12.5l8 -57q2 -8 -0.5 -12t-13.5 -6q-37 -6 -95 -10.5t-125.5 -7.5t-138 -5t-132.5 -2h-57q-11 0 -14 3.5t-3 11.5v65q0 9 3 12.5t14 3.5z" />
    <glyph glyph-name="cid00398" unicode="&#x3159;" 
d="M754 -150q-9 0 -12.5 3t-3.5 14v443h-79v-295q0 -35 -4.5 -64.5t-14.5 -49.5q-3 -6 -6 -8.5t-11 -2.5h-55q-9 0 -12.5 3t-3.5 14v811q0 11 3.5 14t12.5 3h75q9 0 12.5 -3t3.5 -14v-314h79v329q0 11 3.5 14t12.5 3h75q9 0 12.5 -3t3.5 -14v-758q0 -35 -4.5 -64.5
t-14.5 -49.5q-3 -6 -6 -8.5t-11 -2.5h-55zM44 178q47 0 93.5 -0.5t93.5 0.5v283q0 11 3.5 14t12.5 3h77q9 0 12.5 -3t3.5 -14v-280q41 2 80.5 5t78.5 8q11 2 14.5 -1.5t5.5 -12.5l8 -52q2 -8 -0.5 -12t-13.5 -6q-75 -12 -181 -18t-231 -7h-57q-11 0 -14 3.5t-3 11.5v62
q0 9 3 12.5t14 3.5z" />
    <glyph glyph-name="cid00399" unicode="&#x315a;" 
d="M720 -151q-9 0 -12.5 3t-3.5 14v866q0 11 3.5 14t12.5 3h80q9 0 12.5 -3t3.5 -14v-758q0 -73 -19 -114q-3 -6 -6 -8.5t-11 -2.5h-60zM114 174q58 -1 113.5 -1t107.5 2v275q0 11 3.5 14t12.5 3h80q9 0 12.5 -3t3.5 -14v-272q55 2 102.5 5.5t88.5 8.5q11 2 14.5 -1.5
t5.5 -12.5l8 -57q2 -8 -0.5 -12t-13.5 -6q-37 -6 -98 -10.5t-132 -7.5t-145 -5t-136 -2h-27q-11 0 -14 3.5t-3 11.5v65q0 9 3 12.5t14 3.5z" />
    <glyph glyph-name="cid00400" unicode="&#x315b;" 
d="M531 525q0 11 3.5 14t12.5 3h80q9 0 12.5 -3t3.5 -14v-353h222q11 0 14 -3.5t3 -12.5v-66q0 -9 -3 -12.5t-14 -3.5h-809q-11 0 -14 3.5t-3 12.5v66q0 9 3 12.5t14 3.5h214v353q0 11 3.5 14t12.5 3h80q9 0 12.5 -3t3.5 -14v-353h149v353z" />
    <glyph glyph-name="cid00401" unicode="&#x315c;" 
d="M867 331q11 0 14 -3.5t3 -12.5v-66q0 -9 -3 -12.5t-14 -3.5h-352v-351q0 -11 -3 -14t-13 -3h-81q-9 0 -12 3t-3 14v351h-349q-12 0 -14.5 3.5t-2.5 12.5v66q0 9 2.5 12.5t14.5 3.5h813z" />
    <glyph glyph-name="cid00402" unicode="&#x315d;" 
d="M730 -150q-9 0 -12.5 3t-3.5 14v237h-185q-11 0 -14 3.5t-3 12.5v66q0 9 3 12.5t14 3.5h185v531q0 11 3.5 14t12.5 3h80q9 0 12.5 -3t3.5 -14v-758q0 -73 -19 -114q-3 -6 -6 -8.5t-11 -2.5h-60zM84 367q112 -1 207.5 1.5t169 6t122.5 7.5t68 7q11 2 14.5 -1.5t5.5 -12.5
l8 -57q2 -8 -0.5 -12t-13.5 -6q-40 -7 -109 -12.5t-148 -9.5v-348q0 -11 -3 -14t-13 -3h-81q-9 0 -12 3t-3 14v344q-42 -2 -81 -2.5t-74 -0.5h-57q-11 0 -14 3.5t-3 11.5v65q0 9 3 12.5t14 3.5z" />
    <glyph glyph-name="cid00403" unicode="&#x315e;" 
d="M571 191v527q0 11 3.5 14t12.5 3h75q9 0 12.5 -3t3.5 -14v-703q0 -35 -4.5 -64.5t-14.5 -49.5q-3 -6 -6 -8.5t-11 -2.5h-55q-9 0 -12.5 3t-3.5 14v193h-131q-11 0 -14 3.5t-3 12.5v59q0 9 3 12.5t14 3.5h131zM738 733q0 11 3.5 14t12.5 3h75q9 0 12.5 -3t3.5 -14v-758
q0 -35 -4.5 -64.5t-14.5 -49.5q-3 -6 -6 -8.5t-11 -2.5h-55q-9 0 -12.5 3t-3.5 14v866zM69 364q84 -1 156 0.5t128.5 4.5t95.5 7t59 8q11 2 14.5 -1.5t5.5 -12.5l8 -51q2 -8 -0.5 -12t-13.5 -6q-36 -6 -77 -11t-89 -9v-335q0 -11 -3 -14t-13 -3h-78q-9 0 -12 3t-3 14v329
q-29 -1 -59 -1.5t-62 -0.5h-57q-11 0 -14 3.5t-3 11.5v60q0 9 3 12.5t14 3.5z" />
    <glyph glyph-name="cid00404" unicode="&#x315f;" 
d="M743 -151q-9 0 -12.5 3t-3.5 14v866q0 11 3.5 14t12.5 3h80q9 0 12.5 -3t3.5 -14v-758q0 -73 -19 -114q-3 -6 -6 -8.5t-11 -2.5h-60zM94 356q112 -1 205.5 0.5t165.5 4.5t119.5 6.5t66.5 6.5q11 2 14.5 -1.5t5.5 -12.5l8 -57q2 -8 -0.5 -12t-13.5 -6q-36 -6 -95.5 -10.5
t-128.5 -7.5v-343q0 -11 -3 -14t-13 -3h-81q-9 0 -12 3t-3 14v339q-48 -2 -93 -2.5t-85 -0.5h-57q-11 0 -14 3.5t-3 11.5v65q0 9 3 12.5t14 3.5z" />
    <glyph glyph-name="cid00405" unicode="&#x3160;" 
d="M867 330q11 0 14 -3.5t3 -12.5v-66q0 -9 -3 -12.5t-14 -3.5h-203v-352q0 -11 -3 -14t-13 -3h-81q-9 0 -12 3t-3 14v352h-184v-352q0 -11 -3 -14t-13 -3h-81q-9 0 -12 3t-3 14v352h-202q-12 0 -14.5 3.5t-2.5 12.5v66q0 9 2.5 12.5t14.5 3.5h813z" />
    <glyph glyph-name="cid00406" unicode="&#x3161;" 
d="M867 151q11 0 14 -3.5t3 -12.5v-66q0 -9 -3 -12.5t-14 -3.5h-813q-12 0 -14.5 3.5t-2.5 12.5v66q0 9 2.5 12.5t14.5 3.5h813z" />
    <glyph glyph-name="cid00407" unicode="&#x3162;" 
d="M722 -150q-9 0 -12.5 3t-3.5 14v866q0 11 3.5 14t12.5 3h80q9 0 12.5 -3t3.5 -14v-758q0 -73 -19 -114q-3 -6 -6 -8.5t-11 -2.5h-60zM64 220q112 -1 209 1.5t172.5 6t126 7.5t69.5 7q11 2 14.5 -1.5t5.5 -12.5l8 -57q2 -8 -0.5 -12t-13.5 -6q-37 -6 -102 -11t-140 -9
t-152.5 -6.5t-139.5 -2.5h-57q-11 0 -14 3.5t-3 11.5v65q0 9 3 12.5t14 3.5z" />
    <glyph glyph-name="cid00408" unicode="&#x3163;" 
d="M430 -149q-9 0 -12.5 3t-3.5 14v866q0 11 3.5 14t12.5 3h80q9 0 12.5 -3t3.5 -14v-758q0 -73 -19 -114q-3 -6 -6 -8.5t-11 -2.5h-60v0z" />
    <glyph glyph-name="cid00409" unicode="&#x3165;" 
d="M145 527q0 11 3.5 14t12.5 3h75q9 0 12.5 -3t3.5 -14v-366q0 -7 2 -9.5t10 -2.5q13 0 33.5 1.5t43 4t44.5 6.5t38 9q10 3 12.5 -1.5t4.5 -13.5l10 -59q2 -9 -1.5 -12.5t-14.5 -6.5q-23 -7 -54.5 -12t-64.5 -8t-64.5 -4.5t-54.5 -1.5q-29 0 -40 9.5t-11 39.5v427zM478 528
q0 11 3.5 14t12.5 3h75q9 0 12.5 -3t3.5 -14v-362q0 -8 2.5 -10.5t10.5 -2.5h169q11 0 14 -3.5t3 -12.5v-64q0 -9 -3 -12.5t-14 -3.5h-226q-34 0 -48.5 14t-14.5 52v405z" />
    <glyph glyph-name="cid00410" unicode="&#x3166;" 
d="M145 527q0 11 3.5 14t12.5 3h75q9 0 12.5 -3t3.5 -14v-366q0 -7 2 -9.5t10 -2.5q13 0 33.5 1.5t43 4t44.5 6.5t38 9q10 3 12.5 -1.5t4.5 -13.5l10 -59q2 -9 -1.5 -12.5t-14.5 -6.5q-23 -7 -54.5 -12t-64.5 -8t-64.5 -4.5t-54.5 -1.5q-29 0 -40 9.5t-11 39.5v427zM542 56
q-35 0 -50.5 16.5t-15.5 55.5q0 17 1 45t2.5 61t4 67t5 64.5t5 53.5t5.5 33h-25q-11 0 -14 3.5t-3 12.5v63q0 9 3 12.5t14 3.5h287q11 0 14 -3.5t3 -12.5v-63q0 -9 -3 -12.5t-14 -3.5h-157q-4 -15 -7 -51t-4.5 -79t-2.5 -85.5t-1 -70.5q0 -9 3 -12t12 -3h172q11 0 14 -3.5
t3 -12.5v-63q0 -9 -3 -12.5t-14 -3.5h-234z" />
    <glyph glyph-name="cid00411" unicode="&#x3167;" 
d="M636 209q-21 -53 -55.5 -97.5t-79.5 -71.5q-11 -6 -16 -5t-11 9l-34 38q-3 -3 -13 -5q-23 -7 -55 -12t-66 -8t-65.5 -4.5t-54.5 -1.5q-29 0 -40 9.5t-11 39.5v427q0 11 3.5 14t12.5 3h75q9 0 12.5 -3t3.5 -14v-366q0 -7 2 -9.5t10 -2.5q13 0 34 1.5t44 4t45.5 6.5t38.5 9
q10 3 12.5 -1.5t4.5 -13.5l6 -39q30 20 56.5 48t45.5 63t30 75t11 84v141q0 11 3.5 14t12.5 3h76q9 0 12.5 -3t3.5 -14v-140q0 -44 11 -85t30.5 -76t46.5 -63.5t58 -47.5q8 -5 9 -9.5t-4 -11.5l-43 -49q-6 -8 -11 -9t-16 5q-45 27 -79.5 71t-55.5 97z" />
    <glyph glyph-name="cid00412" unicode="&#x3168;" 
d="M152 527q0 11 3.5 14t12.5 3h75q9 0 12.5 -3t3.5 -14v-368q0 -7 2 -9.5t10 -2.5q77 0 142 15q10 2 12.5 -1.5t4.5 -13.5l10 -59q2 -9 -1.5 -13t-14.5 -6q-20 -5 -46.5 -8t-56.5 -5.5t-60.5 -3.5t-57.5 -1q-29 0 -40 9.5t-11 39.5v427zM814 75q3 -9 -0.5 -13t-10.5 -4
h-339q-8 0 -11 3t0 12l169 500q3 10 12 10t12 -10zM699 139l-65 213l-67 -213h132z" />
    <glyph glyph-name="cid00413" unicode="&#x3169;" 
d="M711 212q-14 -46 -46 -89t-67 -70q-8 -6 -12 -5t-10 9l-21 24v-9q0 -11 -3 -13.5t-10 -2.5h-70q-8 0 -10.5 2.5t-2.5 13.5v378q0 6 -1.5 8.5t-7.5 2.5h-114q-9 0 -11.5 3.5t-2.5 11.5v60q0 9 2.5 12t11.5 3h200q11 0 15 -4.5t4 -17.5v-393q22 21 42 48.5t35 61t24 71.5
t9 79v136q0 11 2.5 14t10.5 3h66q8 0 10.5 -3t2.5 -14v-135q0 -44 10 -85t27.5 -76t40 -63.5t47.5 -47.5q12 -9 4 -21l-40 -46q-6 -8 -10 -9t-12 5q-35 27 -65.5 70t-47.5 88zM52 108q0 17 1 40t2.5 46t3.5 41.5t4 26.5h-13q-9 0 -11.5 3.5t-2.5 11.5v54q0 8 2.5 11.5
t11.5 3.5h141q2 6 3.5 21t2.5 32.5t1.5 33t0.5 21.5q0 11 -8 11h-128q-9 0 -11 3.5t-2 12.5v55q0 9 2 12t11 3h212q12 0 16 -4.5t4 -18.5q0 -21 -1.5 -47t-3.5 -51t-5 -47t-6 -37h15q8 0 10.5 -3.5t2.5 -11.5v-54q0 -8 -2.5 -11.5t-10.5 -3.5h-143q-2 -6 -3 -20.5t-2 -30.5
t-1.5 -30.5t-0.5 -21.5q0 -12 11 -12q45 -2 92 4t73 17q8 3 10 -1.5t4 -13.5l7 -53q2 -9 -1 -12.5t-12 -6.5q-72 -22 -233 -22q-24 0 -33.5 9.5t-9.5 39.5z" />
    <glyph glyph-name="cid00414" unicode="&#x316a;" 
d="M154 104q0 17 1 41t3 47t4.5 42.5t5.5 27.5h-16q-11 0 -14 3.5t-3 11.5v54q0 8 3 11.5t14 3.5h187q2 6 3.5 21t2 31.5t1 31.5t0.5 21q0 7 -1.5 9t-8.5 2h-167q-11 0 -13.5 3.5t-2.5 12.5v55q0 9 2.5 12t13.5 3h261q15 0 20 -4.5t5 -18.5q0 -18 -1.5 -43.5t-4 -51
t-6 -48.5t-7.5 -36h15q11 0 12.5 -3.5t1.5 -11.5v-54q0 -8 -2.5 -11.5t-13.5 -3.5h-183q-2 -6 -3.5 -21t-2.5 -32t-1.5 -33t-0.5 -23q0 -12 14 -12q55 -2 97.5 2t69.5 9q10 2 12.5 -2t4.5 -13l6 -51q2 -9 -1.5 -13t-14.5 -6q-23 -3 -44.5 -5t-48 -3.5t-61.5 -2.5t-85 -1
q-29 0 -41 9.5t-12 39.5zM560 56q-35 0 -50.5 16.5t-15.5 55.5q0 17 1 45t2.5 61t4 67t5 64.5t5 53.5t5.5 33h-20q-11 0 -14 3.5t-3 12.5v63q0 9 3 12.5t14 3.5h257q11 0 14 -3.5t3 -12.5v-63q0 -9 -3 -12.5t-14 -3.5h-132q-4 -15 -7 -51t-4.5 -79t-2.5 -85.5t-1 -70.5
q0 -9 3 -12t12 -3h139q11 0 14 -3.5t3 -12.5v-63q0 -9 -3 -12.5t-14 -3.5h-201z" />
    <glyph glyph-name="cid00415" unicode="&#x316b;" 
d="M501 50q-7 0 -9.5 2.5t-2.5 13.5v17q-9 -6 -23 -10.5t-29.5 -8.5t-32 -6t-30.5 -2q-24 0 -33.5 10.5t-9.5 45.5v427q0 11 2.5 13.5t9.5 2.5h68q7 0 9 -2.5t2 -13.5v-154h67v154q0 11 2.5 13.5t8.5 2.5h69q7 0 9.5 -2.5t2.5 -13.5v-393q41 42 67.5 107t26.5 143v136
q0 11 2.5 14t10.5 3h66q8 0 10.5 -3t2.5 -14v-135q0 -44 9.5 -85t26 -76t38.5 -63.5t47 -47.5q12 -9 4 -21l-40 -46q-6 -8 -10 -9.5t-12 5.5q-32 29 -62 70t-47 86q-14 -46 -43 -88t-64 -69q-8 -6 -12 -5t-10 9l-18 20l-3 -16q-2 -6 -4.5 -8.5t-8.5 -2.5h-57zM57 108
q0 17 1 40t2.5 46t3.5 41.5t4 26.5h-13q-9 0 -11.5 3.5t-2.5 11.5v54q0 8 2.5 11.5t11.5 3.5h131q2 6 3.5 21t2.5 32.5t1.5 33t0.5 21.5q0 11 -8 11h-118q-9 0 -11 3.5t-2 12.5v55q0 9 2 12t11 3h202q12 0 16 -4.5t4 -18.5q0 -21 -1.5 -47t-3.5 -51t-5 -47t-6 -37h15
q8 0 10.5 -3.5t2.5 -11.5v-54q0 -8 -2.5 -11.5t-10.5 -3.5h-133q-2 -6 -3 -20.5t-2 -31t-1.5 -31.5t-0.5 -22q0 -11 11 -12t27.5 0t34.5 3t35.5 5t30.5 7q8 3 10 -1t4 -13l7 -51q2 -9 -1 -13t-12 -6q-36 -9 -87.5 -13t-108.5 -4q-24 0 -33.5 9.5t-9.5 39.5zM432 146
q34 0 57 17v134h-66v-138q0 -8 1.5 -10.5t7.5 -2.5z" />
    <glyph glyph-name="cid00416" unicode="&#x316c;" 
d="M154 104q0 17 1 40.5t3 46.5t4.5 42t5.5 27h-16q-11 0 -14 3.5t-3 11.5v56q0 8 3 11.5t14 3.5h185q2 6 3.5 20.5t2 30.5t1 31t0.5 21q0 7 -1.5 9t-8.5 2h-165q-11 0 -13.5 3.5t-2.5 12.5v57q0 9 2.5 12t13.5 3h261q15 0 20 -4.5t5 -18.5q0 -18 -1.5 -43.5t-4 -51
t-6 -48.5t-7.5 -36h15q11 0 12.5 -3.5t1.5 -11.5v-56q0 -8 -2.5 -11.5t-13.5 -3.5h-181q-2 -6 -3.5 -20.5t-2.5 -31t-1.5 -31.5t-0.5 -22q0 -12 14 -12q55 -2 93 2t65 9q10 2 12.5 -2t4.5 -13l6 -53q2 -9 -1.5 -13t-14.5 -6q-23 -3 -43 -5t-45.5 -3.5t-59.5 -2.5t-84 -1
q-29 0 -41 9.5t-12 39.5zM829 75q3 -9 -0.5 -13t-10.5 -4h-339q-8 0 -11 3t0 12l169 500q3 10 12 10t12 -10zM714 139l-65 213l-67 -213h132z" />
    <glyph glyph-name="cid00417" unicode="&#x316d;" 
d="M496 463q-11 0 -13 3.5t-2 12.5v53q0 9 2 12.5t13 3.5h296q10 0 12.5 -3.5t2.5 -12.5v-53q0 -9 -2.5 -12.5t-12.5 -3.5h-296zM149 104q0 17 1 41t3 47t4.5 42.5t5.5 27.5h-16q-11 0 -14 3.5t-3 11.5v54q0 8 3 11.5t14 3.5h183q2 6 3.5 21t2 31.5t1 31.5t0.5 21
q0 7 -1.5 9t-8.5 2h-163q-11 0 -13.5 3.5t-2.5 12.5v55q0 9 2.5 12t13.5 3h257q15 0 20 -4.5t5 -18.5q0 -18 -1.5 -43.5t-4 -51t-6 -48.5t-7.5 -36h15q11 0 12.5 -3.5t1.5 -11.5v-54q0 -8 -2.5 -11.5t-13.5 -3.5h-179q-2 -6 -3.5 -21t-2.5 -32t-1.5 -33t-0.5 -23
q0 -12 14 -12q55 -2 99 3t71 10q10 2 12.5 -2t4.5 -13l6 -51q2 -9 -1.5 -13t-14.5 -6q-23 -3 -45 -5.5t-49 -4.5t-62.5 -3t-85.5 -1q-29 0 -41 9.5t-12 39.5zM809 211q0 -37 -13 -68.5t-35.5 -54.5t-53 -36t-64.5 -13q-35 0 -65 13t-52 36t-35 54.5t-13 68.5t13 68t35 53.5
t52 35t65 12.5q34 0 64.5 -12.5t53 -35t35.5 -53.5t13 -68zM643 299q-33 0 -55.5 -25t-22.5 -63t22 -64t56 -26t56 26t22 64t-22 63t-56 25z" />
    <glyph glyph-name="cid00418" unicode="&#x316e;" 
d="M720 50q-8 0 -11.5 2.5t-3.5 13.5v17q-11 -6 -30.5 -10.5t-41.5 -8.5t-44 -6t-40 -2q-31 0 -42.5 10.5t-11.5 45.5v422q0 11 3 13.5t12 2.5h72q8 0 11 -2.5t3 -13.5v-149h109v149q0 11 3 13.5t11 2.5h73q9 0 12 -2.5t3 -13.5v-369q0 -31 -3.5 -59t-8.5 -45q-3 -6 -6 -8.5
t-10 -2.5h-59zM608 147q30 0 56 4.5t41 11.5v134h-108v-137q0 -13 11 -13zM357 51q-8 0 -11.5 3t-3.5 14v16q-12 -6 -31 -11t-40.5 -8.5t-43 -5.5t-37.5 -2q-32 0 -44 11t-12 50v407q0 14 4.5 18.5t18.5 4.5h264q14 0 18.5 -4.5t4.5 -18.5v-350q0 -33 -3 -63.5t-9 -49.5
q-4 -11 -15 -11h-60zM248 148q26 0 54 4.5t40 11.5v284q0 8 -2 10t-10 2h-82q-8 0 -10 -2t-2 -10v-287q0 -8 2 -10.5t10 -2.5z" />
    <glyph glyph-name="cid00419" unicode="&#x316f;" 
d="M643 209q-21 -53 -55.5 -97.5t-79.5 -71.5q-11 -6 -16 -5t-11 9l-42 48q-2 -9 -3.5 -16.5t-3.5 -13.5q-4 -11 -15 -11h-60q-8 0 -11.5 3t-3.5 14v16q-12 -6 -31 -11t-40.5 -8.5t-43 -5.5t-37.5 -2q-32 0 -44 11t-12 50v407q0 14 4.5 18.5t18.5 4.5h264q14 0 18.5 -4.5
t4.5 -18.5v-350q0 -34 -3 -62q1 0 2 1q31 19 58 47.5t46.5 63.5t30.5 76t11 85v141q0 11 3.5 14t12.5 3h76q9 0 12.5 -3t3.5 -14v-140q0 -44 11 -85t30.5 -76t46.5 -63.5t58 -47.5q8 -5 9 -9.5t-4 -11.5l-43 -49q-6 -8 -11 -9t-16 5q-45 27 -79.5 71t-55.5 97zM248 148
q26 0 54 4.5t40 11.5v284q0 8 -2 10t-10 2h-82q-8 0 -10 -2t-2 -10v-287q0 -8 2 -10.5t10 -2.5z" />
    <glyph glyph-name="cid00420" unicode="&#x3170;" 
d="M357 51q-8 0 -11.5 3t-3.5 14v16q-12 -6 -31 -11t-40.5 -8.5t-43 -5.5t-37.5 -2q-32 0 -44 11t-12 50v407q0 14 4.5 18.5t18.5 4.5h264q14 0 18.5 -4.5t4.5 -18.5v-350q0 -33 -3 -63.5t-9 -49.5q-4 -11 -15 -11h-60zM248 148q26 0 54 4.5t40 11.5v284q0 8 -2 10t-10 2
h-82q-8 0 -10 -2t-2 -10v-287q0 -8 2 -10.5t10 -2.5zM825 75q3 -9 -0.5 -13t-10.5 -4h-339q-8 0 -11 3t0 12l169 500q3 10 12 10t12 -10zM710 139l-65 213l-67 -213h132z" />
    <glyph glyph-name="cid00421" unicode="&#x3171;" 
d="M649 93q0 -35 -13.5 -62.5t-37.5 -46.5t-57 -29t-72 -10t-72.5 10t-57.5 29t-37.5 46.5t-13.5 62.5q0 34 13.5 61t37.5 46.5t57.5 30t72.5 10.5t72 -10.5t57 -30t37.5 -46.5t13.5 -61zM552 93q0 31 -24 48t-59 17t-59.5 -17t-24.5 -48q0 -32 24.5 -48.5t59.5 -16.5
t59 16.5t24 48.5zM609 322q-9 0 -12.5 3t-3.5 14v21q-36 -12 -109.5 -22t-184.5 -10q-34 0 -48.5 13.5t-14.5 52.5v276q0 14 4.5 18.5t18.5 4.5h418q15 0 19.5 -4.5t4.5 -18.5v-224q0 -33 -3 -63.5t-9 -49.5q-2 -6 -5 -8.5t-11 -2.5h-64zM356 422q83 0 145.5 5.5t91.5 16.5
v142q0 8 -2.5 10.5t-10.5 2.5h-223q-8 0 -10.5 -2t-2.5 -11v-150q0 -8 2 -11t10 -3z" />
    <glyph glyph-name="cid00422" unicode="&#x3172;" 
d="M373 50q-8 0 -11.5 2.5t-3.5 13.5v17q-11 -6 -30.5 -10.5t-41.5 -8.5t-44 -6t-40 -2q-31 0 -42.5 10.5t-11.5 45.5v422q0 11 3 13.5t12 2.5h72q8 0 11 -2.5t3 -13.5v-149h109v149q0 11 3 13.5t11 2.5h73q9 0 12 -2.5t3 -13.5v-369q0 -31 -3.5 -59t-8.5 -45q-3 -6 -6 -8.5
t-10 -2.5h-59zM261 147q30 0 56 4.5t41 11.5v134h-108v-137q0 -13 11 -13zM777 546q14 0 18.5 -4.5t4.5 -17.5v-449q0 -11 -3.5 -13.5t-12.5 -2.5h-75q-9 0 -12.5 2.5t-3.5 13.5v370q0 6 -1.5 8.5t-9.5 2.5h-165q-11 0 -14 3.5t-3 11.5v60q0 9 3 12t14 3h260z" />
    <glyph glyph-name="cid00423" unicode="&#x3173;" 
d="M570 56q-35 0 -50.5 16.5t-15.5 55.5q0 17 1 45t2.5 61t4 67t5 64.5t5 53.5t5.5 33h-20q-11 0 -14 3.5t-3 12.5v63q0 9 3 12.5t14 3.5h257q11 0 14 -3.5t3 -12.5v-63q0 -9 -3 -12.5t-14 -3.5h-132q-4 -15 -7 -51t-4.5 -79t-2.5 -85.5t-1 -70.5q0 -9 3 -12t12 -3h139
q11 0 14 -3.5t3 -12.5v-63q0 -9 -3 -12.5t-14 -3.5h-201zM373 50q-8 0 -11.5 2.5t-3.5 13.5v17q-11 -6 -30.5 -10.5t-41.5 -8.5t-44 -6t-40 -2q-31 0 -42.5 10.5t-11.5 45.5v422q0 11 3 13.5t12 2.5h72q8 0 11 -2.5t3 -13.5v-149h109v149q0 11 3 13.5t11 2.5h73q9 0 12 -2.5
t3 -13.5v-369q0 -31 -3.5 -59t-8.5 -45q-3 -6 -6 -8.5t-10 -2.5h-59zM261 147q30 0 56 4.5t41 11.5v134h-108v-137q0 -13 11 -13z" />
    <glyph glyph-name="cid00424" unicode="&#x3174;" 
d="M261 50q-7 0 -9.5 2.5t-2.5 13.5v17q-9 -6 -23 -10.5t-29.5 -8.5t-32 -6t-30.5 -2q-24 0 -33.5 10.5t-9.5 45.5v420q0 11 2.5 13.5t9.5 2.5h68q7 0 9 -2.5t2 -13.5v-147h67v147q0 11 2.5 13.5t8.5 2.5h69q7 0 9.5 -2.5t2.5 -13.5v-367q0 -10 -0.5 -19.5t-0.5 -18.5
q24 20 45 48t36.5 62.5t24.5 74.5t9 84v136q0 11 2.5 14t10.5 3h66q8 0 10.5 -3t2.5 -14v-135q0 -44 9.5 -85t26 -76t38.5 -63.5t47 -47.5q12 -9 4 -21l-40 -46q-6 -8 -10 -9.5t-12 5.5q-32 29 -62 70t-47 86q-14 -46 -43 -88t-64 -69q-8 -6 -12 -5t-10 9l-35 40
q-1 -11 -2.5 -20t-3.5 -16q-2 -6 -4.5 -8.5t-8.5 -2.5h-57zM817 551q11 0 15 -4.5t4 -17.5v-457q0 -11 -3 -13.5t-10 -2.5h-70q-8 0 -10.5 2.5t-2.5 13.5v378q0 6 -1.5 8.5t-7.5 2.5h-114q-9 0 -11.5 3.5t-2.5 11.5v60q0 9 2.5 12t11.5 3h200zM192 146q34 0 57 17v134h-66
v-138q0 -8 1.5 -10.5t7.5 -2.5z" />
    <glyph glyph-name="cid00425" unicode="&#x3175;" 
d="M684 56q-37 0 -48 30l-24 -28q-6 -8 -10 -9.5t-12 5.5q-32 29 -62 70t-47 86q-14 -46 -43 -88t-64 -69q-8 -6 -12 -5t-10 9l-26 29q-2 -8 -2.5 -14t-2.5 -11q-2 -6 -4.5 -8.5t-8.5 -2.5h-57q-7 0 -9.5 2.5t-2.5 13.5v17q-9 -6 -23 -10.5t-29.5 -8.5t-32 -6t-30.5 -2
q-24 0 -33.5 10.5t-9.5 45.5v420q0 11 2.5 13.5t9.5 2.5h68q7 0 9 -2.5t2 -13.5v-147h67v147q0 11 2.5 13.5t8.5 2.5h69q7 0 9.5 -2.5t2.5 -13.5v-367v-14.5t-1 -14.5q22 21 41 48.5t33.5 61t22.5 71.5t8 79v136q0 11 2.5 14t10.5 3h66q8 0 10.5 -3t2.5 -14v-135
q0 -41 8 -78.5t22 -70.5t33 -60.5t41 -48.5q0 20 1 48.5t2.5 60.5t3 64.5t3.5 61t4 50t4 31.5h-26q-9 0 -11 3.5t-2 12.5v60q0 9 2 12.5t11 3.5h216q9 0 11.5 -3.5t2.5 -12.5v-60q0 -9 -2.5 -12.5t-11.5 -3.5h-96q-3 -15 -5.5 -52t-4 -81t-2 -87.5t-0.5 -71.5q0 -9 2.5 -12
t9.5 -3h102q9 0 11 -3.5t2 -12.5v-60q0 -9 -2 -12.5t-11 -3.5h-161zM182 146q34 0 57 17v134h-66v-138q0 -8 1.5 -10.5t7.5 -2.5z" />
    <glyph glyph-name="cid00426" unicode="&#x3176;" 
d="M642 209q-7 -19 -21.5 -42t-33 -45.5t-40 -42t-42.5 -31.5q-8 -5 -11.5 -3t-9.5 9l-35 40q-2 -10 -3.5 -18.5t-3.5 -14.5q-3 -6 -6 -8.5t-10 -2.5h-59q-8 0 -11.5 2.5t-3.5 13.5v17q-11 -6 -29.5 -10.5t-39.5 -8.5t-42 -6t-39 -2q-31 0 -42.5 10.5t-11.5 45.5v422
q0 11 3 13.5t12 2.5h72q8 0 11 -2.5t3 -13.5v-149h103v149q0 11 3 13.5t11 2.5h73q9 0 12 -2.5t3 -13.5v-369q0 -11 -0.5 -20.5t-1.5 -19.5q31 19 56.5 47t44 61.5t28.5 71t10 76.5v78h-89q-11 0 -13.5 3t-2.5 11v61q0 8 2.5 11.5t13.5 3.5h281q10 0 13 -3.5t3 -11.5v-61
q0 -8 -3 -11t-13 -3h-90v-78q0 -40 11 -79t30.5 -73.5t45.5 -64t55 -49.5q8 -6 10 -9.5t-3 -8.5l-40 -46q-6 -7 -9.5 -9t-11.5 3q-18 11 -39 30t-40.5 42t-35.5 47t-24 45zM261 147q30 0 53 4.5t38 11.5v134h-102v-137q0 -13 11 -13z" />
    <glyph glyph-name="cid00427" unicode="&#x3177;" 
d="M367 50q-8 0 -11.5 2.5t-3.5 13.5v17q-11 -6 -29.5 -10.5t-39.5 -8.5t-42 -6t-39 -2q-31 0 -42.5 10.5t-11.5 45.5v422q0 11 3 13.5t12 2.5h72q8 0 11 -2.5t3 -13.5v-149h103v149q0 11 3 13.5t11 2.5h73q9 0 12 -2.5t3 -13.5v-369q0 -31 -3.5 -59t-8.5 -45q-3 -6 -6 -8.5
t-10 -2.5h-59zM592 260q-1 -31 -1 -58.5v-47.5q0 -7 3 -8.5t11 -1.5h173q11 0 13.5 -3.5t2.5 -11.5v-57q0 -8 -2.5 -11.5t-13.5 -3.5h-215q-36 0 -54 15.5t-18 51.5q0 45 2.5 97.5t6 101t7.5 86.5t8 53h-16q-11 0 -13.5 3.5t-2.5 11.5v57q0 8 2.5 11.5t13.5 3.5h268
q11 0 13.5 -3.5t2.5 -11.5v-57q0 -8 -2.5 -11.5t-13.5 -3.5h-160q-4 -15 -7 -46t-5 -69h164q10 0 12.5 -3.5t2.5 -11.5v-58q0 -8 -2.5 -11t-12.5 -3h-167zM261 147q30 0 53 4.5t38 11.5v134h-102v-137q0 -13 11 -13z" />
    <glyph glyph-name="cid00428" unicode="&#x3178;" 
d="M649 93q0 -35 -13.5 -62.5t-37.5 -46.5t-57 -29t-72 -10t-72.5 10t-57.5 29t-37.5 46.5t-13.5 62.5q0 34 13.5 61t37.5 46.5t57.5 30t72.5 10.5t72 -10.5t57 -30t37.5 -46.5t13.5 -61zM552 93q0 31 -24 48t-59 17t-59.5 -17t-24.5 -48q0 -32 24.5 -48.5t59.5 -16.5
t59 16.5t24 48.5zM608 289q-9 0 -12.5 3t-3.5 14v21q-32 -14 -100.5 -23t-192.5 -9q-34 0 -48.5 14t-14.5 52v319q0 11 3.5 14t12.5 3h77q9 0 12.5 -3t3.5 -14v-98h247v98q0 11 3.5 14t12.5 3h77q9 0 12.5 -3t3.5 -14v-267q0 -33 -3 -63.5t-9 -49.5q-2 -6 -5 -8.5t-11 -2.5
h-65zM356 387q90 0 148.5 6t87.5 15v82h-247v-90q0 -13 11 -13z" />
    <glyph glyph-name="cid00429" unicode="&#x3179;" 
d="M649 93q0 -35 -13.5 -62.5t-37.5 -46.5t-57 -29t-72 -10t-72.5 10t-57.5 29t-37.5 46.5t-13.5 62.5q0 34 13.5 61t37.5 46.5t57.5 30t72.5 10.5t72 -10.5t57 -30t37.5 -46.5t13.5 -61zM552 93q0 31 -24 48t-59 17t-59.5 -17t-24.5 -48q0 -32 24.5 -48.5t59.5 -16.5
t59 16.5t24 48.5zM359 292q-8 0 -10.5 3t-2.5 14v20q-24 -16 -59.5 -23.5t-69.5 -7.5q-31 0 -44.5 14t-13.5 50v314q0 11 3 14t12 3h72q8 0 11.5 -3t3.5 -14v-95h85v96q0 11 2.5 14t10.5 3h74q8 0 11 -3t3 -14v-265q0 -33 -2.5 -62.5t-7.5 -46.5q-2 -6 -5 -8.5t-11 -2.5h-62
zM272 393q8 0 19 1.5t21.5 3.5t19.5 5.5t14 7.5v79h-85v-84q0 -13 11 -13zM691 292q-8 0 -11 3t-3 14v20q-23 -16 -59 -23.5t-70 -7.5q-31 0 -44 14t-13 50v314q0 11 2.5 14t11.5 3h73q8 0 11 -3t3 -14v-95h85v96q0 11 3 14t11 3h73q9 0 12 -3t3 -14v-265q0 -33 -2.5 -62.5
t-8.5 -46.5q-4 -11 -15 -11h-62zM603 393q9 0 20 1.5t21.5 3.5t19 5.5t13.5 7.5v79h-85v-84q0 -13 11 -13z" />
    <glyph glyph-name="cid00430" unicode="&#x317a;" 
d="M757 546q14 0 18.5 -4.5t4.5 -17.5v-450q0 -11 -3.5 -13.5t-12.5 -2.5h-75q-9 0 -12.5 2.5t-3.5 13.5v371q0 6 -1.5 8.5t-9.5 2.5h-184q-11 0 -14 3.5t-3 11.5v60q0 9 3 12t14 3h279zM334 227q-21 -53 -56.5 -99.5t-80.5 -73.5q-11 -6 -15.5 -5t-11.5 9l-43 49
q-6 7 -4.5 11.5t9.5 9.5q31 19 58 51t47.5 69.5t32 77t11.5 74.5v133q0 11 3.5 14t12.5 3h70q9 0 12.5 -3t3.5 -14v-132q0 -35 12.5 -74.5t33 -77.5t47 -70.5t54.5 -52.5q8 -6 9.5 -10t-4.5 -11l-41 -46q-7 -8 -11.5 -9.5t-15.5 5.5q-44 29 -77.5 75.5t-55.5 96.5z" />
    <glyph glyph-name="cid00431" unicode="&#x317b;" 
d="M307 227q-21 -53 -56.5 -99.5t-80.5 -73.5q-11 -6 -15.5 -5t-11.5 9l-43 49q-6 7 -4.5 11.5t9.5 9.5q31 19 58 51t47.5 69.5t32 77t11.5 74.5v133q0 11 3.5 14t12.5 3h70q9 0 12.5 -3t3.5 -14v-132q0 -33 11 -69.5t29 -72.5t42 -67.5t50 -53.5v390q0 11 3.5 14t12.5 3h75
q9 0 12.5 -3t3.5 -14v-362q0 -8 2.5 -10.5t10.5 -2.5h169q11 0 14 -3.5t3 -12.5v-64q0 -9 -3 -12.5t-14 -3.5h-226q-24 0 -38.5 7t-20.5 24l-25 -29q-7 -8 -11.5 -9.5t-15.5 5.5q-44 29 -77.5 75.5t-55.5 96.5z" />
    <glyph glyph-name="cid00432" unicode="&#x317c;" 
d="M555 56q-48 0 -61 33l-27 -30q-7 -8 -11.5 -9.5t-15.5 5.5q-44 29 -77.5 75.5t-55.5 96.5q-21 -53 -56.5 -99.5t-80.5 -73.5q-11 -6 -15.5 -5t-11.5 9l-43 49q-6 7 -4.5 11.5t9.5 9.5q31 19 58 51t47.5 69.5t32 77t11.5 74.5v133q0 11 3.5 14t12.5 3h70q9 0 12.5 -3
t3.5 -14v-132q0 -33 11 -70t29.5 -72.5t42.5 -67.5t50 -54q0 19 1 47t3 60t4 64.5t4.5 61t5 50.5t5.5 32h-20q-11 0 -14 3.5t-3 12.5v63q0 9 3 12.5t14 3.5h271q11 0 14 -3.5t3 -12.5v-63q0 -9 -3 -12.5t-14 -3.5h-149q-4 -15 -7 -51t-4.5 -79t-2.5 -85.5t-1 -70.5
q0 -9 3 -12t12 -3h156q11 0 14 -3.5t3 -12.5v-63q0 -9 -3 -12.5t-14 -3.5h-215z" />
    <glyph glyph-name="cid00433" unicode="&#x317d;" 
d="M720 50q-8 0 -11.5 2.5t-3.5 13.5v17q-11 -6 -30.5 -10.5t-41.5 -8.5t-44 -6t-40 -2q-26 0 -38 6.5t-15 28.5l-29 -32q-7 -8 -11.5 -9.5t-15.5 5.5q-44 29 -77.5 75.5t-55.5 96.5q-21 -53 -56.5 -99.5t-80.5 -73.5q-11 -6 -15.5 -5t-11.5 9l-43 49q-6 7 -4.5 11.5
t9.5 9.5q31 19 58 51t47.5 69.5t32 77t11.5 74.5v133q0 11 3.5 14t12.5 3h70q9 0 12.5 -3t3.5 -14v-132q0 -34 11.5 -72t31 -75t44.5 -69t52 -53v402q0 11 3 13.5t12 2.5h72q8 0 11 -2.5t3 -13.5v-149h109v149q0 11 3 13.5t11 2.5h73q9 0 12 -2.5t3 -13.5v-369
q0 -31 -3.5 -59t-8.5 -45q-3 -6 -6 -8.5t-10 -2.5h-59zM608 147q30 0 56 4.5t41 11.5v134h-108v-137q0 -13 11 -13z" />
    <glyph glyph-name="cid00434" unicode="&#x317e;" 
d="M678 459v-78q0 -40 10.5 -77.5t29 -71.5t43.5 -62t54 -48q8 -6 10 -9.5t-3 -8.5l-40 -48q-6 -7 -9.5 -9t-11.5 3q-18 11 -38 29.5t-38.5 40t-33.5 45t-23 44.5q-7 -19 -21.5 -43t-33 -47.5t-40 -44t-42.5 -32.5q-8 -5 -11.5 -3t-9.5 9l-44 52q-5 5 -3.5 9t10.5 9
q32 19 58.5 48t46 63.5t30 73.5t10.5 78v78h-90q-11 0 -13.5 3t-2.5 11v61q0 8 2.5 11.5t13.5 3.5h281q10 0 13 -3.5t3 -11.5v-61q0 -8 -3 -11t-13 -3h-91zM171 60q-10 -7 -15 -5.5t-12 9.5l-44 48q-5 7 -4 11t9 10q33 24 61 55t48.5 66.5t32 74.5t11.5 80v125q0 11 3.5 14
t12.5 3h70q9 0 12.5 -3t3.5 -14v-124q0 -63 28 -119t73 -94q6 -5 8 -9t-5 -11l-49 -45q-7 -7 -11.5 -7t-11.5 6q-21 18 -44 47.5t-36 55.5q-26 -53 -62 -99t-79 -75z" />
    <glyph glyph-name="cid00435" unicode="&#x317f;" 
d="M715 77q3 -10 -0.5 -14t-11.5 -4h-469q-8 0 -11.5 3t-0.5 13l234 540q4 11 13.5 11t12.5 -11zM579 145l-110 261l-112 -261h222z" />
    <glyph glyph-name="cid00436" unicode="&#x3180;" 
d="M447 304q0 -62 -14 -111t-38 -84t-56.5 -53.5t-68.5 -18.5t-68 18.5t-57 53.5t-39.5 84t-14.5 111q0 63 14.5 112t39.5 83t57 52t68 18t68.5 -18t56.5 -52t38 -83t14 -112zM190 304q0 -38 6.5 -69t17.5 -53.5t25.5 -35t30.5 -12.5t30.5 12.5t25 35t17 53.5t6.5 69
q0 39 -6.5 70.5t-17 54t-25 34.5t-30.5 12q-32 0 -56 -46.5t-24 -124.5zM845 304q0 -62 -14 -111t-38 -84t-56.5 -53.5t-68.5 -18.5t-68 18.5t-57 53.5t-39.5 84t-14.5 111q0 63 14.5 112t39.5 83t57 52t68 18t68.5 -18t56.5 -52t38 -83t14 -112zM588 304q0 -38 6.5 -69
t17.5 -53.5t25.5 -35t30.5 -12.5t30.5 12.5t25 35t17 53.5t6.5 69q0 39 -6.5 70.5t-17 54t-25 34.5t-30.5 12q-32 0 -56 -46.5t-24 -124.5z" />
    <glyph glyph-name="cid00437" unicode="&#x3181;" 
d="M527 520q45 -9 82.5 -30.5t64.5 -54t42.5 -75.5t15.5 -94q0 -59 -20 -107.5t-55.5 -83t-83.5 -53t-104 -18.5q-57 0 -105 18.5t-83 52.5t-55 82.5t-20 108.5q0 49 15 91.5t42 75.5t65 55.5t83 31.5v142q0 11 3.5 14t12.5 3h84q9 0 12.5 -3t3.5 -14v-142zM618 268
q0 39 -11.5 69.5t-31.5 51.5t-47.5 32t-59.5 11q-66 0 -107 -43.5t-41 -122.5q0 -76 40.5 -121.5t107.5 -45.5q69 0 109.5 46.5t40.5 122.5z" />
    <glyph glyph-name="cid00438" unicode="&#x3182;" 
d="M103 249q0 83 37 137t101 70v93q0 11 3.5 14t12.5 3h76q9 0 12.5 -3t3.5 -14v-95q61 -18 95.5 -71t34.5 -134q0 -99 -50.5 -155t-137.5 -56q-86 0 -137 56t-51 155zM663 209q-21 -53 -55.5 -97.5t-79.5 -71.5q-11 -6 -16 -5t-11 9l-43 49q-5 7 -4 11.5t9 9.5
q31 19 58 47.5t46.5 63.5t30.5 76t11 85v141q0 11 3.5 14t12.5 3h76q9 0 12.5 -3t3.5 -14v-140q0 -44 11 -85t30.5 -76t46.5 -63.5t58 -47.5q8 -5 9 -9.5t-4 -11.5l-43 -49q-6 -8 -11 -9t-16 5q-45 27 -79.5 71t-55.5 97zM203 250q0 -61 23.5 -92t64.5 -31t64.5 31t23.5 92
t-23.5 91.5t-64.5 30.5t-64.5 -30.5t-23.5 -91.5z" />
    <glyph glyph-name="cid00439" unicode="&#x3183;" 
d="M103 249q0 83 37 137t101 70v93q0 11 3.5 14t12.5 3h76q9 0 12.5 -3t3.5 -14v-95q61 -18 95.5 -71t34.5 -134q0 -99 -50.5 -155t-137.5 -56q-86 0 -137 56t-51 155zM825 75q3 -9 -0.5 -13t-10.5 -4h-339q-8 0 -11 3t0 12l169 500q3 10 12 10t12 -10zM203 250
q0 -61 23.5 -92t64.5 -31t64.5 31t23.5 92t-23.5 91.5t-64.5 30.5t-64.5 -30.5t-23.5 -91.5zM710 139l-65 213l-67 -213h132z" />
    <glyph glyph-name="cid00440" unicode="&#x3184;" 
d="M202 303q-11 0 -14 3.5t-3 12.5v64q0 9 3 12.5t14 3.5h108l-27 136q-1 11 3 13t13 4l81 10q9 2 12 -2t4 -15l20 -146h107l21 146q1 11 4 15t12 2l81 -10q9 -2 13 -4t3 -13l-27 -136h108q11 0 14 -3.5t3 -12.5v-64q0 -9 -3 -12.5t-14 -3.5h-536zM649 93q0 -35 -13.5 -62.5
t-37.5 -46.5t-57 -29t-72 -10t-72.5 10t-57.5 29t-37.5 46.5t-13.5 62.5q0 34 13.5 61t37.5 46.5t57.5 30t72.5 10.5t72 -10.5t57 -30t37.5 -46.5t13.5 -61zM217 603q-11 0 -14 3.5t-3 12.5v64q0 9 3 12.5t14 3.5h506q11 0 14 -3.5t3 -12.5v-64q0 -9 -3 -12.5t-14 -3.5h-506
zM552 93q0 31 -24 48t-59 17t-59.5 -17t-24.5 -48q0 -32 24.5 -48.5t59.5 -16.5t59 16.5t24 48.5z" />
    <glyph glyph-name="cid00441" unicode="&#x3185;" 
d="M812 220q0 -41 -12 -74.5t-33.5 -57.5t-51 -37t-63.5 -13q-35 0 -64 13t-50.5 36.5t-33.5 57t-12 75.5q0 49 15 85t41 59h-53q-11 0 -13 3.5t-2 12.5v53q0 9 2 12.5t13 3.5h320q10 0 12.5 -3.5t2.5 -12.5v-53q0 -9 -2.5 -12.5t-12.5 -3.5h-61q26 -23 42 -59t16 -85z
M432 220q0 -41 -12 -74.5t-33.5 -57.5t-51 -37t-63.5 -13q-35 0 -64 13t-50.5 36.5t-33.5 57t-12 75.5q0 49 15 85t41 59h-53q-11 0 -13 3.5t-2 12.5v53q0 9 2 12.5t13 3.5h320q10 0 12.5 -3.5t2.5 -12.5v-53q0 -9 -2.5 -12.5t-12.5 -3.5h-61q26 -23 42 -59t16 -85zM272 127
q32 0 51.5 27t19.5 75q0 43 -19.5 70.5t-51.5 27.5t-51.5 -27.5t-19.5 -70.5q0 -48 19.5 -75t51.5 -27zM652 127q32 0 51.5 27t19.5 75q0 43 -19.5 70.5t-51.5 27.5t-51.5 -27.5t-19.5 -70.5q0 -48 19.5 -75t51.5 -27zM179 506q-10 0 -12.5 2.5t-2.5 10.5v58q0 8 2.5 11
t12.5 3h190q10 0 12.5 -3t2.5 -11v-58q0 -8 -2.5 -10.5t-12.5 -2.5h-190zM559 506q-10 0 -12.5 2.5t-2.5 10.5v58q0 8 2.5 11t12.5 3h190q10 0 12.5 -3t2.5 -11v-58q0 -8 -2.5 -10.5t-12.5 -2.5h-190z" />
    <glyph glyph-name="cid00442" unicode="&#x3186;" 
d="M710 237q0 -54 -18.5 -97.5t-51 -74.5t-76.5 -48t-95 -17t-95.5 16.5t-76.5 47.5t-50.5 75t-18.5 98q0 52 18.5 95.5t50.5 74.5t76.5 48t95.5 17q50 0 94 -17t76.5 -47.5t51.5 -74t19 -96.5zM598 237q0 69 -37 107.5t-93 38.5q-57 0 -92.5 -38.5t-35.5 -107.5
q0 -66 35.5 -106.5t92.5 -40.5q60 0 95 40.5t35 106.5zM237 547q-11 0 -14 3.5t-3 12.5v64q0 9 3 12.5t14 3.5h465q11 0 14 -3.5t3 -12.5v-64q0 -9 -3 -12.5t-14 -3.5h-465z" />
    <glyph glyph-name="cid00443" unicode="&#x3187;" 
d="M679 -150q-9 0 -12.5 3t-3.5 14v866q0 11 3.5 14t12.5 3h80q9 0 12.5 -3t3.5 -14v-238h119q11 0 14 -3.5t3 -12.5v-61q0 -9 -3 -12.5t-14 -3.5h-119v-140h119q11 0 14 -3.5t3 -12.5v-61q0 -9 -3 -12.5t-14 -3.5h-119v-194q0 -73 -19 -114q-3 -6 -6 -8.5t-11 -2.5h-60z
M186 170v280q0 11 3.5 14t12.5 3h74q9 0 12.5 -3t3.5 -14v-279q24 0 47.5 1t46.5 2v276q0 11 3.5 14t12.5 3h74q9 0 12.5 -3t3.5 -14v-272q29 2 56 4.5t50 5.5q11 2 14.5 -1.5t5.5 -12.5l8 -57q2 -8 -0.5 -12t-13.5 -6q-37 -6 -95 -10.5t-125.5 -7.5t-138 -5t-132.5 -2h-57
q-11 0 -14 3.5t-3 11.5v65q0 9 3 12.5t14 3.5h122z" />
    <glyph glyph-name="cid00444" unicode="&#x3188;" 
d="M754 -150q-9 0 -12.5 3t-3.5 14v307h-79v-159q0 -35 -4.5 -64.5t-14.5 -49.5q-3 -6 -6 -8.5t-11 -2.5h-55q-9 0 -12.5 3t-3.5 14v811q0 11 3.5 14t12.5 3h75q9 0 12.5 -3t3.5 -14v-226h79v241q0 11 3.5 14t12.5 3h75q9 0 12.5 -3t3.5 -14v-758q0 -35 -4.5 -64.5
t-14.5 -49.5q-3 -6 -6 -8.5t-11 -2.5h-55zM144 178v283q0 11 3.5 14t12.5 3h72q9 0 12.5 -3t3.5 -14v-283l71 2v281q0 11 3.5 14t12.5 3h72q9 0 12.5 -3t3.5 -14v-275l38 4l38 4q11 2 14.5 -1.5t5.5 -12.5l8 -52q2 -8 -0.5 -12t-13.5 -6q-75 -12 -181 -18t-231 -7h-57
q-11 0 -14 3.5t-3 11.5v62q0 9 3 12.5t14 3.5h100zM659 263h79v140h-79v-140z" />
    <glyph glyph-name="cid00445" unicode="&#x3189;" 
d="M237 174v276q0 11 3.5 14t12.5 3h73q9 0 12.5 -3t3.5 -14v-275l96 3v272q0 11 3.5 14t12.5 3h73q9 0 12.5 -3t3.5 -14v-267q52 3 95 9q11 2 14.5 -1.5t5.5 -12.5l8 -57q2 -8 -0.5 -12t-13.5 -6q-37 -6 -98 -10.5t-132 -7.5t-145 -5t-136 -2h-27q-11 0 -14 3.5t-3 11.5v65
q0 9 3 12.5t14 3.5h123zM720 -151q-9 0 -12.5 3t-3.5 14v866q0 11 3.5 14t12.5 3h80q9 0 12.5 -3t3.5 -14v-758q0 -73 -19 -114q-3 -6 -6 -8.5t-11 -2.5h-60z" />
    <glyph glyph-name="cid00446" unicode="&#x318a;" 
d="M84 367q112 -1 207.5 1.5t169 6t122.5 7.5t68 7q11 2 14.5 -1.5t5.5 -12.5l8 -57q2 -8 -0.5 -12t-13.5 -6q-29 -5 -75.5 -9.5t-101.5 -7.5v-353q0 -11 -3 -14t-13 -3h-76q-9 0 -12 3t-3 14v347l-87 -3v-344q0 -11 -3 -14t-13 -3h-76q-9 0 -12 3t-3 14v341h-103
q-11 0 -14 3.5t-3 11.5v65q0 9 3 12.5t14 3.5zM730 -150q-9 0 -12.5 3t-3.5 14v126h-165q-11 0 -14 3.5t-3 12.5v61q0 9 3 12.5t14 3.5h165v54h-165q-11 0 -14 3.5t-3 12.5v61q0 9 3 12.5t14 3.5h165v500q0 11 3.5 14t12.5 3h80q9 0 12.5 -3t3.5 -14v-758q0 -73 -19 -114
q-3 -6 -6 -8.5t-11 -2.5h-60z" />
    <glyph glyph-name="cid00447" unicode="&#x318b;" 
d="M69 394q84 -1 156 0.5t128.5 4.5t95.5 7t59 8q11 2 14.5 -1.5t5.5 -12.5l8 -51q2 -8 -0.5 -12t-13.5 -6q-22 -4 -46 -7.5t-50 -6.5v-371q0 -11 -3 -14t-13 -3h-72q-9 0 -12 3t-3 14v363q-16 -2 -31.5 -2t-32.5 -1v-360q0 -11 -3 -14t-13 -3h-72q-9 0 -12 3t-3 14v357h-87
q-11 0 -14 3.5t-3 11.5v60q0 9 3 12.5t14 3.5zM581 266v452q0 11 3.5 14t12.5 3h75q9 0 12.5 -3t3.5 -14v-703q0 -35 -4.5 -64.5t-14.5 -49.5q-3 -6 -6 -8.5t-11 -2.5h-55q-9 0 -12.5 3t-3.5 14v128h-111q-11 0 -14 3.5t-3 12.5v54q0 9 3 12.5t14 3.5h111v59h-111
q-11 0 -14 3.5t-3 12.5v54q0 9 3 12.5t14 3.5h111zM738 733q0 11 3.5 14t12.5 3h75q9 0 12.5 -3t3.5 -14v-758q0 -35 -4.5 -64.5t-14.5 -49.5q-3 -6 -6 -8.5t-11 -2.5h-55q-9 0 -12.5 3t-3.5 14v866z" />
    <glyph glyph-name="cid00448" unicode="&#x318c;" 
d="M94 356q112 -1 205.5 0.5t165.5 4.5t119.5 6.5t66.5 6.5q11 2 14.5 -1.5t5.5 -12.5l8 -57q2 -8 -0.5 -12t-13.5 -6q-21 -4 -50.5 -7t-64.5 -5v-349q0 -11 -3 -14t-13 -3h-76q-9 0 -12 3t-3 14v343q-23 -2 -47 -2.5t-48 -1.5v-339q0 -11 -3 -14t-13 -3h-76q-9 0 -12 3
t-3 14v337q-24 -1 -46.5 -1h-43.5h-57q-11 0 -14 3.5t-3 11.5v65q0 9 3 12.5t14 3.5zM743 -151q-9 0 -12.5 3t-3.5 14v866q0 11 3.5 14t12.5 3h80q9 0 12.5 -3t3.5 -14v-758q0 -73 -19 -114q-3 -6 -6 -8.5t-11 -2.5h-60z" />
    <glyph glyph-name="cid00449" unicode="&#x318d;" 
d="M460 234q-35 0 -56.5 22.5t-21.5 53.5q0 33 21.5 55.5t56.5 22.5q36 0 56.5 -22.5t21.5 -55.5q0 -31 -21 -53.5t-57 -22.5z" />
    <glyph glyph-name="cid00450" unicode="&#x318e;" 
d="M339 234q-35 0 -56.5 22.5t-21.5 53.5q0 33 21.5 55.5t56.5 22.5q36 0 56.5 -22.5t21.5 -55.5q0 -31 -21 -53.5t-57 -22.5zM570 -149q-9 0 -12.5 3t-3.5 14v866q0 11 3.5 14t12.5 3h80q9 0 12.5 -3t3.5 -14v-758q0 -73 -19 -114q-3 -6 -6 -8.5t-11 -2.5h-60z" />
    <glyph glyph-name="cid00451" unicode="&#x2170;" horiz-adv-x="915" 
d="M402 575v120h110v-120h-110zM402 -28v518h110v-518h-110z" />
    <glyph glyph-name="cid00452" unicode="&#x2171;" horiz-adv-x="915" 
d="M640 575h-106v120h106v-120zM380 575h-106v120h106v-120zM640 -31h-106v517h106v-517zM380 -31h-106v517h106v-517z" />
    <glyph glyph-name="cid00453" unicode="&#x2172;" horiz-adv-x="915" 
d="M725 575h-103v120h103v-120zM508 575h-103v120h103v-120zM291 575h-103v120h103v-120zM725 -31h-103v517h103v-517zM508 -31h-103v517h103v-517zM291 -31h-103v517h103v-517z" />
    <glyph glyph-name="cid00454" unicode="&#x2173;" horiz-adv-x="915" 
d="M293 575h-103v120h103v-120zM800 486l-170 -517h-107l-168 517h114l110 -411h2l108 411h111zM293 -31h-103v517h103v-517z" />
    <glyph glyph-name="cid00455" unicode="&#x2174;" horiz-adv-x="915" 
d="M709 486l-196 -517h-107l-192 517h116l131 -412h3l131 412h114z" />
    <glyph glyph-name="cid00456" unicode="&#x2175;" horiz-adv-x="915" 
d="M727 575h-103v120h103v-120zM727 -31h-103v517h103v-517zM563 486l-170 -517h-107l-169 517h115l110 -411h2l108 411h111z" />
    <glyph glyph-name="cid00457" unicode="&#x2176;" horiz-adv-x="915" 
d="M800 575h-97v120h97v-120zM611 575h-97v120h97v-120zM799 -31h-96v517h96v-517zM611 -31h-97v517h97v-517zM457 486l-139 -517h-101l-141 517h107l86 -411h2l85 411h101z" />
    <glyph glyph-name="cid00458" unicode="&#x2177;" horiz-adv-x="915" 
d="M832 575h-89v120h89v-120zM679 575h-89v120h89v-120zM526 575h-89v120h89v-120zM832 -31h-89v517h89v-517zM679 -31h-89v517h89v-517zM526 -31h-89v517h89v-517zM393 486l-119 -517h-90l-124 517h99l71 -411h1l70 411h92z" />
    <glyph glyph-name="cid00459" unicode="&#x2178;" horiz-adv-x="915" 
d="M285 575h-103v120h103v-120zM641 236l156 -267h-118l-105 200h-2l-103 -200h-112l155 264l-149 253h118l98 -190h2l96 190h114zM285 -31h-103v517h103v-517z" />
    <glyph glyph-name="cid00460" unicode="&#x2179;" horiz-adv-x="915" 
d="M521 238l182 -269h-122l-125 200h-2l-124 -200h-119l184 266l-175 251h121l119 -185h2l115 185h119z" />
    <glyph glyph-name="cid00461" unicode="&#x2160;" horiz-adv-x="915" 
d="M511 686v-717h-109v717h109z" />
    <glyph glyph-name="cid00462" unicode="&#x2161;" horiz-adv-x="915" 
d="M643 686v-717h-108v717h108zM377 686v-717h-107v717h107z" />
    <glyph glyph-name="cid00463" unicode="&#x2162;" horiz-adv-x="915" 
d="M727 686v-717h-104v717h104zM281 686v-717h-104v717h104zM501 686v-717h-105v717h105z" />
    <glyph glyph-name="cid00464" unicode="&#x2163;" horiz-adv-x="915" 
d="M836 686l-208 -717h-127l-202 717h118l150 -604h1l153 604h115zM242 -31h-105v717h105v-717z" />
    <glyph glyph-name="cid00465" unicode="&#x2164;" horiz-adv-x="915" 
d="M763 686l-250 -717h-124l-238 717h119l184 -607h1l193 607h115z" />
    <glyph glyph-name="cid00466" unicode="&#x2165;" horiz-adv-x="915" 
d="M801 -31h-104v717h104v-717zM624 686l-209 -717h-127l-201 717h117l150 -604h2l152 604h116z" />
    <glyph glyph-name="cid00467" unicode="&#x2166;" horiz-adv-x="915" 
d="M867 -31h-97v717h97v-717zM682 -31h-98v717h98v-717zM539 686l-166 -717h-109l-163 717h104l115 -601h3l112 601h104z" />
    <glyph glyph-name="cid00468" unicode="&#x2167;" horiz-adv-x="915" 
d="M413 686l-129 -717h-104q-33 180 -65.5 358.5t-65.5 358.5h98q11 -81 23.5 -161t23.5 -160q9 -62 20.5 -134.5t18.5 -143.5h3q7 72 16.5 143t18.5 137l45 319h97zM695 -31h-90v717h90v-717zM545 -31h-90v717h90v-717zM844 -31h-90v717h90v-717z" />
    <glyph glyph-name="cid00469" unicode="&#x2168;" horiz-adv-x="915" 
d="M638 335l194 -366h-117l-142 289h-2l-135 -289h-116l192 364l-183 353h116l132 -276h3l127 276h115zM248 -31h-105v717h105v-717z" />
    <glyph glyph-name="cid00470" unicode="&#x2169;" horiz-adv-x="915" 
d="M520 336l227 -367h-127l-168 290h-1l-160 -290h-125l223 363l-214 354h126l155 -278h3l153 278h125z" />
    <glyph glyph-name="cid00471" unicode="&#x391;" horiz-adv-x="663" 
d="M429 272l-101 326h-3l-98 -326h202zM206 188l-68 -216h-114l239 718h135l241 -718h-118l-72 216h-243z" />
    <glyph glyph-name="cid00472" unicode="&#x392;" horiz-adv-x="594" 
d="M187 53q14 -3 32.5 -3.5t41.5 -0.5q34 0 65.5 6.5t55.5 22t38.5 41t14.5 62.5q0 34 -14 58t-38 39.5t-56 23t-68 7.5h-72v-256zM187 390h77q72 0 110.5 31.5t38.5 81.5q0 58 -40 83.5t-106 25.5q-32 0 -50.5 -2t-29.5 -4v-216zM78 679q31 7 79.5 11.5t99.5 4.5
q72 0 119.5 -11.5t80.5 -37.5q31 -21 49.5 -53.5t18.5 -77.5q0 -51 -32 -93t-90 -62v-4q27 -7 53.5 -21t47.5 -36t33.5 -52t12.5 -69q0 -48 -17.5 -84t-46.5 -62q-74 -67 -256 -67q-51 0 -89 3t-63 6v705z" />
    <glyph glyph-name="cid00473" unicode="&#x393;" horiz-adv-x="488" 
d="M475 690v-93h-287v-625h-110v718h397z" />
    <glyph glyph-name="cid00474" unicode="&#x394;" horiz-adv-x="667" 
d="M24 31q15 41 34.5 94t42 112.5t45.5 122.5t45.5 122.5t42.5 113t35 94.5h128l242 -658v-60h-615v59zM515 62l-135 373l-29 87t-22 71h-3q-8 -27 -20.5 -67.5t-24.5 -77.5l-139 -386h373z" />
    <glyph glyph-name="cid00475" unicode="&#x395;" horiz-adv-x="535" 
d="M463 301h-275v-238h308v-91h-418v718h402v-91h-292v-208h275v-90z" />
    <glyph glyph-name="cid00476" unicode="&#x396;" horiz-adv-x="595" 
d="M30 34l384 560v4h-351v92h493v-66l-380 -558v-3h386v-91h-532v62z" />
    <glyph glyph-name="cid00477" unicode="&#x397;" horiz-adv-x="704" 
d="M188 690v-296h328v296h110v-718h-110v327h-328v-327h-110v718h110z" />
    <glyph glyph-name="cid00478" unicode="&#x398;" horiz-adv-x="742" 
d="M506 385v-90h-272v90h272zM371 48q52 0 92.5 22.5t68 61t41.5 90.5t14 111q0 52 -13.5 102.5t-40 89.5t-67 63t-94.5 24q-55 0 -96 -23.5t-68.5 -63t-41 -91t-13.5 -107.5t14.5 -106.5t42 -88.5t68 -61t92.5 -23h1zM365 -40q-74 0 -134 27t-103.5 75t-67 115t-23.5 148
q0 84 25 153.5t70 119t107 77t136 27.5q76 0 136.5 -27.5t103.5 -76t66 -115.5t23 -146q0 -91 -26.5 -161.5t-72 -118.5t-107.5 -72.5t-132 -24.5h-1z" />
    <glyph glyph-name="cid00479" unicode="&#x399;" horiz-adv-x="266" 
d="M188 690v-718h-110v718h110z" />
    <glyph glyph-name="cid00480" unicode="&#x39a;" horiz-adv-x="596" 
d="M78 690h109v-339h3q29 43 55 76l206 263h135l-254 -306l273 -412h-130l-220 342l-68 -78v-264h-109v718z" />
    <glyph glyph-name="cid00481" unicode="&#x39b;" horiz-adv-x="658" 
d="M521 -28l-156 478q-22 73 -37 141h-4q-14 -69 -33 -141l-151 -478h-116l239 718h135l242 -718h-119z" />
    <glyph glyph-name="cid00482" unicode="&#x39c;" horiz-adv-x="867" 
d="M684 277q-2 36 -4 75t-3.5 79t-2.5 78.5t-1 73.5h-2q-19 -64 -40.5 -132.5t-47.5 -140.5l-117 -332h-84l-107 326q-24 73 -43.5 143t-34.5 136h-3q-1 -34 -2 -72.5t-3 -78.5t-4 -81t-4 -80l-17 -299h-104l48 718h143l110 -322q21 -65 38 -126t31 -119h4q14 57 32 118.5
t41 127.5l116 321h141l43 -718h-107z" />
    <glyph glyph-name="cid00483" unicode="&#x39d;" horiz-adv-x="709" 
d="M78 -28v718h123l210 -339q38 -62 69.5 -120.5t56.5 -115.5l2 1q-7 72 -9 142t-2 153v279h103v-718h-113l-211 343q-36 60 -70 121.5t-61 120.5l-3 -1q4 -68 5.5 -139t1.5 -161v-284h-102z" />
    <glyph glyph-name="cid00484" unicode="&#x39e;" horiz-adv-x="584" 
d="M546 62v-90h-500v90h500zM499 388v-91h-406v91h406zM533 690v-90h-475v90h475z" />
    <glyph glyph-name="cid00485" unicode="&#x39f;" horiz-adv-x="741" 
d="M371 49q52 0 92 22.5t67.5 61t41.5 90t14 110.5q0 52 -13.5 102.5t-40 89.5t-67 63t-94.5 24t-95 -23.5t-68 -62.5t-40.5 -90.5t-13.5 -107.5t14.5 -106.5t42 -88.5t68 -61t91.5 -23h1zM364 -40q-73 0 -133 27t-103 75.5t-66.5 115.5t-23.5 147q0 84 25 153.5t69.5 119
t106.5 77t136 27.5q76 0 136.5 -27.5t103 -76t65 -115t22.5 -145.5q0 -91 -26 -161.5t-72 -118.5t-107.5 -73t-131.5 -25h-1z" />
    <glyph glyph-name="cid00486" unicode="&#x3a0;" horiz-adv-x="684" 
d="M605 -28h-110v625h-307v-625h-110v718h527v-718z" />
    <glyph glyph-name="cid00487" unicode="&#x3a1;" horiz-adv-x="579" 
d="M187 341q14 -5 31.5 -6.5t40.5 -1.5q79 0 124.5 37.5t45.5 106.5q0 66 -43 99t-116 33q-29 0 -50 -2t-33 -5v-261zM78 680q35 7 81.5 11t106.5 4q71 0 122 -15t83 -44q32 -26 50 -65.5t18 -88.5q0 -98 -59 -157q-38 -39 -95.5 -59t-126.5 -20q-43 0 -71 7v-281h-109v708z
" />
    <glyph glyph-name="cid00488" unicode="&#x3a3;" horiz-adv-x="595" 
d="M170 63h394v-91h-535v64l240 292l-227 289v73h489v-91h-349v-4l207 -263l-219 -265v-4z" />
    <glyph glyph-name="cid00489" unicode="&#x3a4;" horiz-adv-x="543" 
d="M215 597h-212v93h536v-93h-213v-625h-111v625z" />
    <glyph glyph-name="cid00490" unicode="&#x3a5;" horiz-adv-x="636" 
d="M29 696q20 -1 44 -8t48.5 -19t48 -29.5t43.5 -39.5q40 -45 68 -109.5t38 -146.5h4q13 83 47.5 146.5t72.5 105.5q19 21 41 38.5t44.5 30.5t44.5 21t40 10l18 -91q-32 -11 -67.5 -36t-69 -64t-61.5 -91.5t-45 -118.5q-8 -32 -13.5 -68.5t-5.5 -78.5v-176h-110v178
q0 40 -3.5 74.5t-10.5 69.5q-15 68 -39 122.5t-55 94t-67 64t-74 32.5z" />
    <glyph glyph-name="cid00491" unicode="&#x3a6;" horiz-adv-x="782" 
d="M443 78q35 4 69 21.5t60.5 49t43 76.5t16.5 105q0 61 -16.5 107.5t-43 78t-60.5 49t-69 21.5v-508zM338 586q-32 -3 -65.5 -21t-61 -50t-45 -78.5t-17.5 -107.5q0 -57 16 -101.5t42.5 -76t60.5 -50t70 -23.5v508zM442 -56h-105v56q-55 5 -109 27t-96.5 62t-68.5 99
t-26 139q0 82 28 143t71.5 102.5t97.5 64t105 27.5v53h105v-53q56 -5 109.5 -28t95.5 -64.5t68 -101.5t26 -139t-25.5 -138.5t-68 -100.5t-96.5 -64t-111 -28v-56z" />
    <glyph glyph-name="cid00492" unicode="&#x3a7;" horiz-adv-x="619" 
d="M467 -28l-163 290h-2l-152 -290h-126l216 363l-208 355h126l151 -281h2l150 281h126l-213 -351l221 -367h-128z" />
    <glyph glyph-name="cid00493" unicode="&#x3a8;" horiz-adv-x="744" 
d="M696 482q0 -73 -20.5 -127t-56.5 -90.5t-86 -56t-109 -22.5v-214h-102v214q-53 2 -102.5 17.5t-87.5 47.5t-60.5 81.5t-22.5 120.5v237h106v-219q0 -54 12.5 -91t34.5 -60.5t52.5 -34.5t67.5 -13v418h102v-419q33 2 63 14t53 38t36.5 67.5t13.5 103.5v196h106v-208z" />
    </font>
</defs>
</svg>
